{"glyphs":{"0":{"ha":750,"x_min":40,"x_max":708,"o":"m 301 -14 q 106 67 171 -14 q 40 296 40 147 q 74 570 40 429 q 197 815 108 711 q 440 918 286 918 q 642 839 575 918 q 708 611 708 760 q 676 349 708 490 q 553 97 643 207 q 301 -14 463 -14 m 326 63 q 442 105 400 63 q 506 222 485 147 q 544 425 528 297 q 561 624 561 550 q 551 746 561 700 q 510 816 540 792 q 422 840 479 840 q 308 799 350 840 q 243 684 265 758 q 203 483 221 610 q 188 279 188 386 q 215 114 188 165 q 326 63 243 63 z "},"1":{"ha":536,"x_min":-1,"x_max":479,"o":"m 178 85 l 276 786 l 72 786 l 72 853 l 350 904 l 424 904 l 308 85 l 479 64 l 471 0 l -1 0 l 7 63 l 178 85 z "},"2":{"ha":665,"x_min":-28,"x_max":606,"o":"m -28 75 l 265 361 q 394 502 351 444 q 451 599 438 560 q 465 683 465 639 q 428 774 465 742 q 315 807 390 807 q 213 784 258 807 q 115 715 168 761 l 81 743 q 194 860 117 804 q 378 917 272 917 q 546 863 486 917 q 606 722 606 810 q 541 531 606 625 q 321 293 476 438 l 125 110 l 128 104 l 144 106 l 476 106 l 528 240 l 594 229 l 553 0 l 7 0 l -28 75 z "},"3":{"ha":617,"x_min":-21,"x_max":568,"o":"m 218 -14 q 40 19 101 -14 q -21 114 -21 51 q -8 158 -21 131 q 19 208 4 186 q 44 229 35 229 l 88 229 l 99 100 q 149 75 113 85 q 228 65 185 65 q 367 114 319 65 q 415 256 415 163 q 231 431 415 431 l 186 431 l 168 468 l 168 511 l 203 511 q 369 563 306 513 q 433 696 433 614 q 399 783 433 753 q 296 813 364 813 q 200 793 244 813 q 114 733 156 774 l 76 758 q 190 872 115 826 q 340 917 265 917 q 508 865 447 917 q 568 722 568 813 q 520 585 568 649 q 394 492 472 521 l 394 488 q 512 413 469 464 q 554 292 554 361 q 511 133 554 203 q 392 25 468 64 q 218 -14 315 -14 z "},"4":{"ha":685,"x_min":-24,"x_max":629,"o":"m 335 0 l 367 239 l 4 239 l -24 322 l 496 940 l 585 911 l 508 333 l 629 333 l 618 239 l 496 239 l 464 0 l 335 0 m 107 333 l 379 333 l 432 731 l 436 749 l 432 749 l 421 732 l 103 343 l 107 333 z "},"5":{"ha":636,"x_min":-15,"x_max":624,"o":"m 222 -14 q 47 18 110 -14 q -15 115 -15 50 q -1 171 -15 146 q 31 213 14 196 q 50 229 47 229 l 93 229 l 104 100 q 119 89 104 99 q 166 71 135 79 q 244 63 197 63 q 378 115 333 63 q 424 276 424 167 q 396 393 424 347 q 298 469 368 439 q 103 514 228 499 l 176 900 l 526 900 l 551 958 l 624 958 l 599 782 l 239 782 l 208 586 q 475 500 385 564 q 565 319 565 436 q 519 140 565 215 q 396 26 474 65 q 222 -14 318 -14 z "},"6":{"ha":703,"x_min":44,"x_max":663,"o":"m 331 -14 q 122 64 200 -14 q 44 307 44 142 q 125 596 44 460 q 346 817 206 732 q 657 908 486 901 l 663 856 q 372 726 488 826 q 219 485 257 626 q 245 505 219 488 q 313 537 271 522 q 408 551 354 551 q 574 495 513 551 q 635 317 635 439 q 594 151 635 226 q 483 31 553 75 q 331 -14 414 -14 m 336 65 q 456 117 418 65 q 493 278 493 168 q 460 417 493 376 q 346 457 428 457 q 201 415 261 457 q 190 282 190 367 q 336 65 190 65 z "},"7":{"ha":614,"x_min":68,"x_max":640,"o":"m 546 782 l 161 782 l 135 671 l 68 671 l 68 900 l 640 900 l 640 782 l 171 0 l 72 0 l 72 60 l 546 767 l 546 782 z "},"8":{"ha":665,"x_min":31,"x_max":618,"o":"m 276 -15 q 139 12 194 -15 q 57 82 83 39 q 31 174 31 125 q 94 334 31 260 q 257 457 158 408 q 150 571 186 515 q 114 690 114 626 q 153 807 114 756 q 256 888 192 858 q 389 917 319 917 q 558 869 499 917 q 618 744 618 821 q 564 600 618 664 q 426 490 510 536 q 519 408 486 442 q 569 335 551 374 q 586 243 586 296 q 551 121 586 181 q 445 23 515 61 q 276 -15 375 -15 m 382 525 q 467 609 433 557 q 500 722 500 661 q 472 808 500 778 q 374 839 443 839 q 274 811 310 839 q 239 728 239 783 q 272 633 239 678 q 382 525 306 589 m 307 63 q 424 100 383 63 q 464 211 464 138 q 435 294 464 258 q 329 397 406 331 l 300 424 q 163 192 163 339 q 197 98 163 133 q 307 63 231 63 z "},"9":{"ha":697,"x_min":49,"x_max":656,"o":"m 168 -14 q 49 -4 103 -14 l 57 51 q 118 47 89 47 q 361 135 267 47 q 488 400 456 224 l 485 401 q 472 386 481 392 q 395 340 442 358 q 297 321 349 321 q 131 390 196 321 q 67 575 67 460 q 108 746 67 667 q 219 871 149 825 q 371 917 289 917 q 582 830 508 917 q 656 579 656 743 q 593 276 656 411 q 419 63 531 140 q 168 -14 308 -14 m 358 411 q 435 428 397 411 q 496 467 474 444 q 508 639 508 532 q 473 794 508 747 q 360 840 438 840 q 250 778 289 840 q 211 599 211 717 q 358 411 211 411 z "},"\u0000":{"ha":0,"x_min":0,"x_max":0,"o":""},"\r":{"ha":236,"x_min":0,"x_max":0,"o":""}," ":{"ha":236,"x_min":0,"x_max":0,"o":""},"A":{"ha":722,"x_min":-74,"x_max":713,"o":"m -65 60 l 13 81 l 390 908 l 469 908 l 628 78 l 713 60 l 707 0 l 389 0 l 394 60 l 489 79 l 489 106 l 463 256 l 179 256 l 108 99 l 108 79 l 207 60 l 200 0 l -74 0 l -65 60 m 447 338 l 388 674 l 383 710 l 381 707 l 365 671 l 217 338 l 447 338 z "},"Á":{"ha":722,"x_min":-74,"x_max":713,"o":"m 0 0 m -65 60 l 13 81 l 390 908 l 469 908 l 628 78 l 713 60 l 707 0 l 389 0 l 394 60 l 489 79 l 489 106 l 463 256 l 179 256 l 108 99 l 108 79 l 207 60 l 200 0 l -74 0 l -65 60 m 447 338 l 388 674 l 383 710 l 381 707 l 365 671 l 217 338 l 447 338 m 290 996 l 532 1161 q 567 1130 553 1150 q 581 1086 581 1110 q 565 1047 581 1063 q 513 1017 549 1032 l 321 942 l 290 996 z "},"Ă":{"ha":722,"x_min":-74,"x_max":713,"o":"m 658 1126 q 568 1019 632 1079 q 404 958 504 958 q 317 978 356 958 q 256 1028 278 999 q 233 1088 233 1058 q 254 1122 233 1106 q 307 1151 275 1139 q 351 1088 325 1117 q 425 1060 376 1060 q 625 1156 529 1060 l 658 1126 m -65 60 l 13 81 l 390 908 l 469 908 l 628 78 l 713 60 l 707 0 l 389 0 l 394 60 l 489 79 l 489 106 l 463 256 l 179 256 l 108 99 l 108 79 l 207 60 l 200 0 l -74 0 l -65 60 m 447 338 l 388 674 l 383 710 l 381 707 l 365 671 l 217 338 l 447 338 z "},"Ắ":{"ha":722,"x_min":-74,"x_max":713,"o":"m 0 0 m -65 60 l 13 81 l 390 908 l 469 908 l 628 78 l 713 60 l 707 0 l 389 0 l 394 60 l 489 79 l 489 106 l 463 256 l 179 256 l 108 99 l 108 79 l 207 60 l 200 0 l -74 0 l -65 60 m 447 338 l 388 674 l 383 710 l 381 707 l 365 671 l 217 338 l 447 338 m 679 1126 q 589 1019 653 1079 q 425 958 525 958 q 337 978 376 958 q 275 1028 297 999 q 253 1088 253 1058 q 274 1122 253 1106 q 328 1151 296 1139 q 372 1088 346 1117 q 446 1060 397 1060 q 646 1156 550 1060 l 679 1126 m 407 1197 l 649 1363 q 683 1331 669 1351 q 697 1288 697 1311 q 681 1249 697 1264 q 629 1218 665 1233 l 438 1143 l 407 1197 z "},"Ặ":{"ha":722,"x_min":-74,"x_max":713,"o":"m 0 0 m -65 60 l 13 81 l 390 908 l 469 908 l 628 78 l 713 60 l 707 0 l 389 0 l 394 60 l 489 79 l 489 106 l 463 256 l 179 256 l 108 99 l 108 79 l 207 60 l 200 0 l -74 0 l -65 60 m 447 338 l 388 674 l 383 710 l 381 707 l 365 671 l 217 338 l 447 338 m 285 -242 q 227 -219 249 -242 q 206 -162 206 -197 q 230 -92 206 -124 q 297 -61 254 -61 q 355 -84 332 -61 q 378 -144 378 -107 q 353 -212 378 -183 q 285 -242 329 -242 m 675 1126 q 585 1019 649 1079 q 421 958 521 958 q 333 978 372 958 q 271 1028 293 999 q 249 1088 249 1058 q 270 1122 249 1106 q 324 1151 292 1139 q 367 1088 342 1117 q 442 1060 393 1060 q 642 1156 546 1060 l 675 1126 z "},"Ằ":{"ha":722,"x_min":-74,"x_max":713,"o":"m 0 0 m -65 60 l 13 81 l 390 908 l 469 908 l 628 78 l 713 60 l 707 0 l 389 0 l 394 60 l 489 79 l 489 106 l 463 256 l 179 256 l 108 99 l 108 79 l 207 60 l 200 0 l -74 0 l -65 60 m 447 338 l 388 674 l 383 710 l 381 707 l 365 671 l 217 338 l 447 338 m 689 1126 q 599 1019 663 1079 q 435 958 535 958 q 347 978 386 958 q 285 1028 307 999 q 263 1088 263 1058 q 284 1122 263 1106 q 338 1151 306 1139 q 381 1088 356 1117 q 456 1060 407 1060 q 656 1156 560 1060 l 689 1126 m 364 1218 q 313 1248 328 1232 q 297 1286 297 1264 q 310 1331 297 1311 q 346 1363 324 1351 l 588 1197 l 556 1143 l 364 1218 z "},"Ẳ":{"ha":722,"x_min":-74,"x_max":713,"o":"m 0 0 m -65 60 l 13 81 l 390 908 l 469 908 l 628 78 l 713 60 l 707 0 l 389 0 l 394 60 l 489 79 l 489 106 l 463 256 l 179 256 l 108 99 l 108 79 l 207 60 l 200 0 l -74 0 l -65 60 m 447 338 l 388 674 l 383 710 l 381 707 l 365 671 l 217 338 l 447 338 m 688 1126 q 597 1019 661 1079 q 433 958 533 958 q 345 978 385 958 q 283 1028 306 999 q 261 1088 261 1058 q 283 1122 261 1106 q 336 1151 304 1139 q 380 1088 354 1117 q 454 1060 406 1060 q 654 1156 558 1060 l 688 1126 m 447 1125 q 442 1149 442 1142 q 455 1178 442 1165 q 503 1203 468 1190 q 554 1249 554 1224 q 540 1268 554 1261 q 496 1275 525 1275 q 408 1264 456 1275 q 397 1306 397 1286 q 420 1340 397 1326 q 496 1354 443 1354 q 619 1331 574 1354 q 664 1267 664 1308 q 637 1204 664 1231 q 565 1164 610 1178 q 535 1149 542 1156 q 526 1128 528 1142 l 447 1125 z "},"Ẵ":{"ha":722,"x_min":-74,"x_max":721,"o":"m 283 1300 q 365 1349 324 1349 q 467 1325 404 1349 l 575 1290 l 686 1340 l 721 1303 l 664 1236 q 583 1188 621 1188 q 535 1196 564 1188 q 481 1213 507 1204 l 374 1249 l 261 1199 l 226 1235 l 283 1300 m 663 1126 q 572 1019 636 1079 q 408 958 508 958 q 320 978 360 958 q 258 1028 281 999 q 236 1088 236 1058 q 258 1122 236 1106 q 311 1151 279 1139 q 355 1088 329 1117 q 429 1060 381 1060 q 629 1156 533 1060 l 663 1126 m -65 60 l 13 81 l 390 908 l 469 908 l 628 78 l 713 60 l 707 0 l 389 0 l 394 60 l 489 79 l 489 106 l 463 256 l 179 256 l 108 99 l 108 79 l 207 60 l 200 0 l -74 0 l -65 60 m 447 338 l 388 674 l 383 710 l 381 707 l 365 671 l 217 338 l 447 338 z "},"Ǎ":{"ha":722,"x_min":-74,"x_max":713,"o":"m 0 0 m -65 60 l 13 81 l 390 908 l 469 908 l 628 78 l 713 60 l 707 0 l 389 0 l 394 60 l 489 79 l 489 106 l 463 256 l 179 256 l 108 99 l 108 79 l 207 60 l 200 0 l -74 0 l -65 60 m 447 338 l 388 674 l 383 710 l 381 707 l 365 671 l 217 338 l 447 338 m 444 951 q 364 1014 426 951 l 271 1104 l 321 1161 l 464 1069 l 614 1164 l 650 1115 l 549 1025 q 444 951 468 951 z "},"Â":{"ha":722,"x_min":-74,"x_max":713,"o":"m 343 1088 l 369 1108 q 419 1146 400 1132 q 447 1160 439 1160 q 494 1131 460 1160 q 532 1097 528 1101 l 626 1011 l 579 951 l 429 1042 l 272 957 l 236 1006 l 343 1088 m -65 60 l 13 81 l 390 908 l 469 908 l 628 78 l 713 60 l 707 0 l 389 0 l 394 60 l 489 79 l 489 106 l 463 256 l 179 256 l 108 99 l 108 79 l 207 60 l 200 0 l -74 0 l -65 60 m 447 338 l 388 674 l 383 710 l 381 707 l 365 671 l 217 338 l 447 338 z "},"Ấ":{"ha":722,"x_min":-74,"x_max":810,"o":"m 0 0 m -65 60 l 13 81 l 390 908 l 469 908 l 628 78 l 713 60 l 707 0 l 389 0 l 394 60 l 489 79 l 489 106 l 463 256 l 179 256 l 108 99 l 108 79 l 207 60 l 200 0 l -74 0 l -65 60 m 447 338 l 388 674 l 383 710 l 381 707 l 365 671 l 217 338 l 447 338 m 361 1088 l 388 1108 q 438 1146 418 1132 q 465 1160 457 1160 q 512 1131 478 1160 q 550 1097 546 1101 l 644 1011 l 596 951 l 446 1042 l 289 957 l 254 1006 l 361 1088 m 519 1182 l 761 1347 q 796 1316 782 1336 q 810 1272 810 1296 q 794 1233 810 1249 q 742 1203 778 1218 l 550 1128 l 519 1182 z "},"Ậ":{"ha":722,"x_min":-74,"x_max":713,"o":"m 0 0 m -65 60 l 13 81 l 390 908 l 469 908 l 628 78 l 713 60 l 707 0 l 389 0 l 394 60 l 489 79 l 489 106 l 463 256 l 179 256 l 108 99 l 108 79 l 207 60 l 200 0 l -74 0 l -65 60 m 447 338 l 388 674 l 383 710 l 381 707 l 365 671 l 217 338 l 447 338 m 285 -242 q 227 -219 249 -242 q 206 -162 206 -197 q 230 -92 206 -124 q 297 -61 254 -61 q 355 -84 332 -61 q 378 -144 378 -107 q 353 -212 378 -183 q 285 -242 329 -242 m 372 1088 l 399 1108 q 449 1146 429 1132 q 476 1160 468 1160 q 523 1131 489 1160 q 561 1097 557 1101 l 656 1011 l 607 951 l 457 1042 l 300 957 l 265 1006 l 372 1088 z "},"Ầ":{"ha":722,"x_min":-74,"x_max":713,"o":"m 0 0 m -65 60 l 13 81 l 390 908 l 469 908 l 628 78 l 713 60 l 707 0 l 389 0 l 394 60 l 489 79 l 489 106 l 463 256 l 179 256 l 108 99 l 108 79 l 207 60 l 200 0 l -74 0 l -65 60 m 447 338 l 388 674 l 383 710 l 381 707 l 365 671 l 217 338 l 447 338 m 357 1088 l 383 1108 q 433 1146 414 1132 q 461 1160 453 1160 q 508 1131 474 1160 q 546 1097 542 1101 l 640 1011 l 592 951 l 442 1042 l 285 957 l 250 1006 l 357 1088 m 475 1203 q 424 1233 439 1217 q 408 1271 408 1249 q 422 1316 408 1296 q 457 1347 435 1336 l 699 1182 l 667 1128 l 475 1203 z "},"Ẩ":{"ha":722,"x_min":-74,"x_max":774,"o":"m 0 0 m -65 60 l 13 81 l 390 908 l 469 908 l 628 78 l 713 60 l 707 0 l 389 0 l 394 60 l 489 79 l 489 106 l 463 256 l 179 256 l 108 99 l 108 79 l 207 60 l 200 0 l -74 0 l -65 60 m 447 338 l 388 674 l 383 710 l 381 707 l 365 671 l 217 338 l 447 338 m 335 1088 l 361 1108 q 411 1146 392 1132 q 439 1160 431 1160 q 485 1131 451 1160 q 524 1097 519 1101 l 618 1011 l 569 951 l 419 1042 l 263 957 l 228 1006 l 335 1088 m 557 1107 q 551 1131 551 1124 q 565 1160 551 1147 q 613 1185 578 1172 q 664 1231 664 1206 q 649 1250 664 1243 q 606 1257 635 1257 q 518 1246 565 1257 q 507 1288 507 1268 q 530 1322 507 1308 q 606 1336 553 1336 q 728 1313 683 1336 q 774 1249 774 1290 q 747 1186 774 1213 q 675 1146 719 1160 q 644 1131 651 1138 q 636 1110 638 1124 l 557 1107 z "},"Ẫ":{"ha":722,"x_min":-74,"x_max":721,"o":"m 283 1304 q 365 1353 324 1353 q 467 1329 404 1353 l 575 1294 l 686 1344 l 721 1307 l 664 1240 q 583 1192 621 1192 q 535 1200 564 1192 q 481 1217 507 1208 l 374 1253 l 261 1203 l 226 1239 l 283 1304 m 361 1088 l 388 1108 q 438 1146 418 1132 q 465 1160 457 1160 q 512 1131 478 1160 q 550 1097 546 1101 l 644 1011 l 596 951 l 446 1042 l 289 957 l 254 1006 l 361 1088 m -65 60 l 13 81 l 390 908 l 469 908 l 628 78 l 713 60 l 707 0 l 389 0 l 394 60 l 489 79 l 489 106 l 463 256 l 179 256 l 108 99 l 108 79 l 207 60 l 200 0 l -74 0 l -65 60 m 447 338 l 388 674 l 383 710 l 381 707 l 365 671 l 217 338 l 447 338 z "},"Ȁ":{"ha":722,"x_min":-74,"x_max":713,"o":"m 0 0 m -65 60 l 13 81 l 390 908 l 469 908 l 628 78 l 713 60 l 707 0 l 389 0 l 394 60 l 489 79 l 489 106 l 463 256 l 179 256 l 108 99 l 108 79 l 207 60 l 200 0 l -74 0 l -65 60 m 447 338 l 388 674 l 383 710 l 381 707 l 365 671 l 217 338 l 447 338 m 239 1011 q 194 1088 194 1056 q 225 1139 194 1117 q 292 1165 256 1161 l 376 972 l 322 935 l 239 1011 m 467 1011 q 422 1088 422 1056 q 453 1139 422 1117 q 519 1165 483 1161 l 603 972 l 550 935 l 467 1011 z "},"Ä":{"ha":722,"x_min":-74,"x_max":713,"o":"m 282 969 q 228 992 249 969 q 207 1051 207 1015 q 230 1115 207 1088 q 290 1143 253 1143 q 346 1121 325 1143 q 367 1063 367 1099 q 344 997 367 1025 q 282 969 321 969 m 581 969 q 525 992 546 969 q 504 1051 504 1015 q 528 1115 504 1088 q 589 1143 551 1143 q 644 1121 622 1143 q 665 1063 665 1099 q 642 997 665 1025 q 581 969 619 969 m -65 60 l 13 81 l 390 908 l 469 908 l 628 78 l 713 60 l 707 0 l 389 0 l 394 60 l 489 79 l 489 106 l 463 256 l 179 256 l 108 99 l 108 79 l 207 60 l 200 0 l -74 0 l -65 60 m 447 338 l 388 674 l 383 710 l 381 707 l 365 671 l 217 338 l 447 338 z "},"Ạ":{"ha":722,"x_min":-74,"x_max":713,"o":"m 0 0 m -65 60 l 13 81 l 390 908 l 469 908 l 628 78 l 713 60 l 707 0 l 389 0 l 394 60 l 489 79 l 489 106 l 463 256 l 179 256 l 108 99 l 108 79 l 207 60 l 200 0 l -74 0 l -65 60 m 447 338 l 388 674 l 383 710 l 381 707 l 365 671 l 217 338 l 447 338 m 285 -242 q 227 -219 249 -242 q 206 -162 206 -197 q 230 -92 206 -124 q 297 -61 254 -61 q 355 -84 332 -61 q 378 -144 378 -107 q 353 -212 378 -183 q 285 -242 329 -242 z "},"À":{"ha":722,"x_min":-74,"x_max":713,"o":"m 339 1018 q 287 1048 303 1032 q 271 1086 271 1064 q 284 1131 271 1111 q 319 1163 297 1151 l 561 997 l 531 943 l 339 1018 m -65 60 l 13 81 l 390 908 l 469 908 l 628 78 l 713 60 l 707 0 l 389 0 l 394 60 l 489 79 l 489 106 l 463 256 l 179 256 l 108 99 l 108 79 l 207 60 l 200 0 l -74 0 l -65 60 m 447 338 l 388 674 l 383 710 l 381 707 l 365 671 l 217 338 l 447 338 z "},"Ả":{"ha":722,"x_min":-74,"x_max":713,"o":"m 0 0 m -65 60 l 13 81 l 390 908 l 469 908 l 628 78 l 713 60 l 707 0 l 389 0 l 394 60 l 489 79 l 489 106 l 463 256 l 179 256 l 108 99 l 108 79 l 207 60 l 200 0 l -74 0 l -65 60 m 447 338 l 388 674 l 383 710 l 381 707 l 365 671 l 217 338 l 447 338 m 408 939 q 403 963 403 956 q 416 992 403 979 q 464 1017 429 1004 q 515 1063 515 1038 q 501 1082 515 1075 q 457 1089 486 1089 q 369 1078 417 1089 q 358 1119 358 1100 q 381 1154 358 1140 q 457 1168 404 1168 q 580 1145 535 1168 q 625 1081 625 1122 q 598 1018 625 1044 q 526 978 571 992 q 496 963 503 969 q 488 942 489 956 l 408 939 z "},"Ȃ":{"ha":722,"x_min":-74,"x_max":713,"o":"m 0 0 m -65 60 l 13 81 l 390 908 l 469 908 l 628 78 l 713 60 l 707 0 l 389 0 l 394 60 l 489 79 l 489 106 l 463 256 l 179 256 l 108 99 l 108 79 l 207 60 l 200 0 l -74 0 l -65 60 m 447 338 l 388 674 l 383 710 l 381 707 l 365 671 l 217 338 l 447 338 m 249 988 q 342 1097 279 1039 q 504 1156 404 1156 q 592 1135 553 1156 q 653 1085 631 1115 q 675 1026 675 1056 q 653 992 675 1010 q 601 963 632 975 q 558 1026 583 997 q 483 1054 532 1054 q 363 1022 414 1054 q 283 958 313 990 l 249 988 z "},"Ā":{"ha":722,"x_min":-74,"x_max":713,"o":"m 226 1093 l 646 1093 l 635 997 l 215 997 l 226 1093 m -65 60 l 13 81 l 390 908 l 469 908 l 628 78 l 713 60 l 707 0 l 389 0 l 394 60 l 489 79 l 489 106 l 463 256 l 179 256 l 108 99 l 108 79 l 207 60 l 200 0 l -74 0 l -65 60 m 447 338 l 388 674 l 383 710 l 381 707 l 365 671 l 217 338 l 447 338 z "},"Ą":{"ha":722,"x_min":-74,"x_max":713,"o":"m 571 0 q 500 -118 500 -54 q 554 -172 500 -172 q 631 -144 585 -172 l 657 -182 q 635 -201 657 -183 q 581 -235 614 -219 q 508 -250 547 -250 q 396 -160 396 -250 q 425 -70 396 -111 q 503 0 454 -29 l 389 0 l 394 60 l 489 79 l 489 106 l 463 256 l 179 256 l 108 99 l 108 79 l 207 60 l 200 0 l -74 0 l -65 60 l 13 81 l 390 908 l 469 908 l 628 78 l 713 60 l 707 0 l 571 0 m 217 338 l 447 338 l 388 674 l 383 710 l 381 707 l 365 671 l 217 338 z "},"Å":{"ha":722,"x_min":-74,"x_max":713,"o":"m 428 919 q 338 945 368 919 q 308 1018 308 971 q 347 1115 308 1074 q 451 1157 386 1157 q 540 1132 510 1157 q 571 1060 571 1107 q 533 961 571 1003 q 428 919 494 919 m 439 982 q 477 999 465 982 q 489 1053 489 1015 q 476 1085 489 1076 q 439 1094 464 1094 q 400 1078 411 1094 q 389 1026 389 1063 q 401 992 389 1003 q 439 982 413 982 m -65 60 l 13 81 l 390 908 l 469 908 l 628 78 l 713 60 l 707 0 l 389 0 l 394 60 l 489 79 l 489 106 l 463 256 l 179 256 l 108 99 l 108 79 l 207 60 l 200 0 l -74 0 l -65 60 m 447 338 l 388 674 l 383 710 l 381 707 l 365 671 l 217 338 l 447 338 z "},"Ǻ":{"ha":722,"x_min":-74,"x_max":713,"o":"m 0 0 m -65 60 l 13 81 l 390 908 l 469 908 l 628 78 l 713 60 l 707 0 l 389 0 l 394 60 l 489 79 l 489 106 l 463 256 l 179 256 l 108 99 l 108 79 l 207 60 l 200 0 l -74 0 l -65 60 m 447 338 l 388 674 l 383 710 l 381 707 l 365 671 l 217 338 l 447 338 m 447 919 q 357 945 388 919 q 326 1018 326 971 q 366 1115 326 1074 q 471 1157 406 1157 q 560 1132 529 1157 q 590 1060 590 1107 q 552 961 590 1003 q 447 919 514 919 m 458 982 q 497 999 485 982 q 508 1053 508 1015 q 496 1085 508 1076 q 458 1094 483 1094 q 419 1078 431 1094 q 408 1026 408 1063 q 419 992 408 1003 q 458 982 431 982 m 399 1254 l 640 1419 q 675 1388 661 1408 q 689 1344 689 1368 q 673 1306 689 1321 q 621 1275 657 1290 l 429 1200 l 399 1254 z "},"Ã":{"ha":722,"x_min":-74,"x_max":713,"o":"m 236 1088 q 317 1139 276 1139 q 419 1114 350 1139 l 526 1076 l 639 1129 l 674 1090 l 617 1019 q 535 968 575 968 q 433 994 504 968 l 325 1032 l 214 979 l 179 1018 l 236 1088 m -65 60 l 13 81 l 390 908 l 469 908 l 628 78 l 713 60 l 707 0 l 389 0 l 394 60 l 489 79 l 489 106 l 463 256 l 179 256 l 108 99 l 108 79 l 207 60 l 200 0 l -74 0 l -65 60 m 447 338 l 388 674 l 383 710 l 381 707 l 365 671 l 217 338 l 447 338 z "},"Æ":{"ha":994,"x_min":-132,"x_max":1021,"o":"m -46 81 l 496 900 l 1021 900 l 988 672 l 913 672 l 913 826 l 769 826 l 668 819 l 615 456 l 790 456 l 821 540 l 881 540 l 849 301 l 790 301 l 785 386 l 606 386 l 563 81 q 686 72 633 74 l 825 72 l 878 222 l 944 222 l 917 0 l 324 0 l 332 60 l 431 79 l 474 386 l 250 386 l 58 99 l 58 79 l 156 60 l 149 0 l -132 0 l -124 60 l -46 81 m 483 456 l 536 821 l 529 821 l 293 456 l 483 456 z "},"Ǽ":{"ha":994,"x_min":-132,"x_max":1021,"o":"m 0 0 m -46 81 l 496 900 l 1021 900 l 988 672 l 913 672 l 913 826 l 769 826 l 668 819 l 615 456 l 790 456 l 821 540 l 881 540 l 849 301 l 790 301 l 785 386 l 606 386 l 563 81 q 686 72 633 74 l 825 72 l 878 222 l 944 222 l 917 0 l 324 0 l 332 60 l 431 79 l 474 386 l 250 386 l 58 99 l 58 79 l 156 60 l 149 0 l -132 0 l -124 60 l -46 81 m 483 456 l 536 821 l 529 821 l 293 456 l 483 456 m 549 997 l 790 1163 q 825 1131 811 1151 q 839 1088 839 1111 q 823 1049 839 1064 q 771 1018 807 1033 l 579 943 l 549 997 z "},"B":{"ha":760,"x_min":10,"x_max":690,"o":"m 117 79 l 221 821 l 125 840 l 133 900 l 418 900 q 622 853 553 900 q 690 715 690 807 q 634 569 690 635 q 478 469 578 504 q 611 408 560 451 q 663 286 663 364 q 622 142 663 207 q 502 39 581 78 q 314 0 424 0 l 10 0 l 18 60 l 117 79 m 306 492 q 553 699 553 518 q 516 797 553 768 q 407 825 479 825 q 372 823 388 825 q 353 819 357 821 l 306 492 m 249 78 q 325 69 282 69 q 467 121 419 69 q 515 264 515 172 q 464 386 515 346 q 297 429 413 426 l 249 78 z "},"C":{"ha":749,"x_min":56,"x_max":743,"o":"m 671 249 l 651 42 q 382 -15 526 -15 q 56 339 56 -15 q 113 634 56 503 q 275 841 171 765 q 513 917 379 917 q 743 889 632 917 l 711 672 l 642 672 l 632 807 q 569 831 608 821 q 488 840 529 840 q 279 717 353 840 q 206 365 206 594 q 253 133 206 203 q 411 63 300 63 q 503 76 465 63 q 558 103 542 90 l 601 249 l 671 249 z "},"Ć":{"ha":749,"x_min":56,"x_max":743,"o":"m 376 997 l 618 1163 q 653 1131 640 1151 q 667 1088 667 1110 q 651 1049 667 1065 q 599 1018 635 1033 l 407 943 l 376 997 m 671 249 l 651 42 q 522 -1 593 14 q 382 -15 451 -15 q 138 74 219 -15 q 56 339 56 163 q 115 636 56 504 q 278 842 174 768 q 513 917 382 917 q 743 889 640 917 l 711 672 l 642 672 l 632 807 q 567 831 606 822 q 488 840 528 840 q 278 717 351 840 q 206 365 206 594 q 253 132 206 201 q 411 63 300 63 q 495 74 454 63 q 558 103 536 85 l 601 249 l 671 249 z "},"Č":{"ha":749,"x_min":56,"x_max":743,"o":"m 381 1161 l 524 1069 l 674 1164 l 710 1115 l 608 1025 q 504 951 528 951 q 424 1014 486 951 l 331 1104 l 381 1161 m 671 249 l 651 42 q 382 -15 526 -15 q 56 339 56 -15 q 113 634 56 503 q 275 841 171 765 q 513 917 379 917 q 743 889 632 917 l 711 672 l 642 672 l 632 807 q 569 831 608 821 q 488 840 529 840 q 279 717 353 840 q 206 365 206 594 q 253 133 206 203 q 411 63 300 63 q 503 76 465 63 q 558 103 542 90 l 601 249 l 671 249 z "},"Ç":{"ha":749,"x_min":56,"x_max":743,"o":"m 267 -175 q 304 -192 285 -186 q 356 -197 324 -197 q 407 -169 407 -197 q 375 -135 407 -151 l 304 -99 l 304 -69 l 343 -14 q 56 339 56 7 q 113 634 56 503 q 275 841 171 765 q 513 917 379 917 q 743 889 632 917 l 711 672 l 642 672 l 632 807 q 569 831 608 821 q 488 840 529 840 q 279 717 353 840 q 206 365 206 594 q 253 133 206 203 q 411 63 300 63 q 503 76 465 63 q 558 103 542 90 l 601 249 l 671 249 l 651 42 q 413 -15 543 -8 l 413 -40 l 460 -68 q 513 -142 513 -99 q 470 -235 513 -208 q 367 -262 428 -262 q 236 -224 292 -262 l 267 -175 z "},"Ĉ":{"ha":749,"x_min":56,"x_max":743,"o":"m 56 0 m 671 249 l 651 42 q 382 -15 526 -15 q 56 339 56 -15 q 113 634 56 503 q 275 841 171 765 q 513 917 379 917 q 743 889 632 917 l 711 672 l 642 672 l 632 807 q 569 831 608 821 q 488 840 529 840 q 279 717 353 840 q 206 365 206 594 q 253 133 206 203 q 411 63 300 63 q 503 76 465 63 q 558 103 542 90 l 601 249 l 671 249 m 458 1088 l 485 1108 q 535 1146 515 1132 q 563 1160 554 1160 q 609 1131 575 1160 q 647 1097 643 1101 l 742 1011 l 693 951 l 543 1042 l 386 957 l 351 1006 l 458 1088 z "},"Ċ":{"ha":749,"x_min":56,"x_max":743,"o":"m 56 0 m 671 249 l 651 42 q 382 -15 526 -15 q 56 339 56 -15 q 113 634 56 503 q 275 841 171 765 q 513 917 379 917 q 743 889 632 917 l 711 672 l 642 672 l 632 807 q 569 831 608 821 q 488 840 529 840 q 279 717 353 840 q 206 365 206 594 q 253 133 206 203 q 411 63 300 63 q 503 76 465 63 q 558 103 542 90 l 601 249 l 671 249 m 539 964 q 483 986 504 964 q 463 1042 463 1008 q 486 1110 463 1081 q 553 1140 510 1140 q 609 1119 588 1140 q 631 1060 631 1097 q 606 992 631 1021 q 539 964 582 964 z "},"D":{"ha":888,"x_min":10,"x_max":836,"o":"m 115 79 l 219 821 l 125 840 l 132 900 l 469 900 q 741 813 646 900 q 836 565 836 726 q 772 272 836 400 q 594 72 708 143 q 332 0 479 0 l 10 0 l 17 60 l 115 79 m 249 78 q 346 72 304 72 q 595 191 506 72 q 688 524 685 310 q 626 755 688 685 q 421 825 564 825 q 353 822 372 825 l 249 78 z "},"Ǳ":{"ha":1585,"x_min":10,"x_max":1594,"o":"m 10 0 m 115 79 l 219 821 l 125 840 l 132 900 l 469 900 q 741 813 646 900 q 836 565 836 726 q 772 272 836 400 q 594 72 708 143 q 332 0 479 0 l 10 0 l 17 60 l 115 79 m 249 78 q 346 72 304 72 q 595 191 506 72 q 688 524 685 310 q 626 755 688 685 q 421 825 564 825 q 353 822 372 825 l 249 78 m 875 71 l 1418 797 l 1403 825 l 1093 825 l 1035 678 l 967 678 l 999 900 l 1550 900 l 1594 828 l 1044 88 l 1050 72 l 1394 72 l 1450 219 l 1518 219 l 1489 0 l 904 0 l 875 71 z "},"Ǆ":{"ha":1585,"x_min":10,"x_max":1594,"o":"m 10 0 m 115 79 l 219 821 l 125 840 l 132 900 l 469 900 q 741 813 646 900 q 836 565 836 726 q 772 272 836 400 q 594 72 708 143 q 332 0 479 0 l 10 0 l 17 60 l 115 79 m 249 78 q 346 72 304 72 q 595 191 506 72 q 688 524 685 310 q 626 755 688 685 q 421 825 564 825 q 353 822 372 825 l 249 78 m 875 71 l 1418 797 l 1403 825 l 1093 825 l 1035 678 l 967 678 l 999 900 l 1550 900 l 1594 828 l 1044 88 l 1050 72 l 1394 72 l 1450 219 l 1518 219 l 1489 0 l 904 0 l 875 71 m 1283 951 q 1203 1014 1265 951 l 1110 1104 l 1160 1161 l 1303 1069 l 1453 1164 l 1489 1115 l 1388 1025 q 1283 951 1307 951 z "},"Ð":{"ha":886,"x_min":8,"x_max":835,"o":"m 114 79 l 163 426 l 49 426 l 61 506 l 174 506 l 218 821 l 124 840 l 131 900 l 468 900 q 740 814 644 900 q 835 565 835 728 q 771 272 835 400 q 593 72 707 143 q 332 0 479 0 l 8 0 l 15 60 l 114 79 m 247 78 q 346 72 303 72 q 594 190 503 72 q 688 524 685 308 q 623 757 688 689 q 419 825 558 825 q 351 822 371 825 l 307 506 l 500 506 l 488 426 l 296 426 l 247 78 z "},"Ď":{"ha":881,"x_min":4,"x_max":831,"o":"m 493 1069 l 643 1164 l 679 1115 l 578 1025 q 474 951 497 951 q 393 1014 456 951 l 300 1104 l 350 1161 l 493 1069 m 111 79 l 215 821 l 119 840 l 126 900 l 464 900 q 735 813 640 900 q 831 565 831 726 q 767 272 831 400 q 589 72 703 143 q 328 0 475 0 l 4 0 l 13 60 l 111 79 m 243 78 q 342 72 299 72 q 592 191 501 72 q 683 524 682 310 q 621 754 683 683 q 417 825 558 825 q 349 822 368 825 l 243 78 z "},"Đ":{"ha":881,"x_min":4,"x_max":831,"o":"m 111 79 l 158 426 l 44 426 l 57 506 l 171 506 l 215 821 l 119 840 l 126 900 l 464 900 q 736 814 642 900 q 831 565 831 728 q 767 272 831 400 q 589 72 703 143 q 328 0 475 0 l 4 0 l 13 60 l 111 79 m 243 78 q 342 72 299 72 q 591 190 500 72 q 683 524 682 308 q 619 756 683 688 q 417 825 556 825 q 349 822 368 825 l 303 506 l 496 506 l 485 426 l 292 426 l 243 78 z "},"Ḍ":{"ha":888,"x_min":10,"x_max":836,"o":"m 10 0 m 115 79 l 219 821 l 125 840 l 132 900 l 469 900 q 741 813 646 900 q 836 565 836 726 q 772 272 836 400 q 594 72 708 143 q 332 0 479 0 l 10 0 l 17 60 l 115 79 m 249 78 q 346 72 304 72 q 595 191 506 72 q 688 524 685 310 q 626 755 688 685 q 421 825 564 825 q 353 822 372 825 l 249 78 m 368 -242 q 310 -219 332 -242 q 289 -162 289 -197 q 313 -92 289 -124 q 381 -61 338 -61 q 438 -84 415 -61 q 461 -144 461 -107 q 437 -212 461 -183 q 368 -242 413 -242 z "},"ǲ":{"ha":1438,"x_min":10,"x_max":1475,"o":"m 10 0 m 115 79 l 219 821 l 125 840 l 132 900 l 469 900 q 741 813 646 900 q 836 565 836 726 q 772 272 836 400 q 594 72 708 143 q 332 0 479 0 l 10 0 l 17 60 l 115 79 m 249 78 q 346 72 304 72 q 595 191 506 72 q 688 524 685 310 q 626 755 688 685 q 421 825 564 825 q 353 822 372 825 l 249 78 m 1257 550 l 1065 633 l 1029 504 l 975 504 q 964 522 972 508 q 948 560 956 536 q 940 614 940 585 q 972 688 940 664 q 1056 713 1004 713 q 1206 689 1108 713 l 1353 654 l 1431 710 l 1475 675 l 1071 154 l 1071 139 l 1278 67 l 1315 194 l 1368 194 q 1378 176 1371 190 q 1393 136 1386 161 q 1400 82 1400 111 q 1367 10 1400 33 q 1285 -14 1333 -14 q 1213 -8 1251 -14 q 1133 7 1174 -1 l 972 38 l 904 -10 l 857 32 l 1257 536 l 1257 550 z "},"ǅ":{"ha":1438,"x_min":10,"x_max":1475,"o":"m 10 0 m 115 79 l 219 821 l 125 840 l 132 900 l 469 900 q 741 813 646 900 q 836 565 836 726 q 772 272 836 400 q 594 72 708 143 q 332 0 479 0 l 10 0 l 17 60 l 115 79 m 249 78 q 346 72 304 72 q 595 191 506 72 q 688 524 685 310 q 626 755 688 685 q 421 825 564 825 q 353 822 372 825 l 249 78 m 1257 550 l 1065 633 l 1029 504 l 975 504 q 964 522 972 508 q 948 560 956 536 q 940 614 940 585 q 972 688 940 664 q 1056 713 1004 713 q 1206 689 1108 713 l 1353 654 l 1431 710 l 1475 675 l 1071 154 l 1071 139 l 1278 67 l 1315 194 l 1368 194 q 1378 176 1371 190 q 1393 136 1386 161 q 1400 82 1400 111 q 1367 10 1400 33 q 1285 -14 1333 -14 q 1213 -8 1251 -14 q 1133 7 1174 -1 l 972 38 l 904 -10 l 857 32 l 1257 536 l 1257 550 m 1093 1018 l 1229 908 l 1389 1014 l 1428 971 l 1290 842 q 1238 792 1256 807 q 1210 776 1221 776 q 1190 785 1200 776 q 1170 807 1181 793 q 1154 828 1160 821 l 1044 969 l 1093 1018 z "},"E":{"ha":718,"x_min":10,"x_max":706,"o":"m 117 79 l 221 821 l 125 840 l 133 900 l 706 900 l 674 672 l 599 672 l 599 826 l 456 826 l 354 819 l 308 500 l 483 500 l 513 585 l 572 585 l 542 346 l 482 346 l 478 431 l 299 431 l 250 81 q 372 72 289 75 l 511 72 l 564 222 l 631 222 l 603 0 l 10 0 l 18 60 l 117 79 z "},"É":{"ha":713,"x_min":10,"x_max":706,"o":"m 314 997 l 556 1163 q 592 1131 578 1151 q 606 1088 606 1111 q 590 1048 606 1064 q 538 1018 574 1032 l 346 943 l 314 997 m 117 79 l 221 821 l 125 840 l 133 900 l 706 900 l 674 672 l 599 672 l 599 826 l 456 826 l 354 819 l 308 500 l 483 500 l 513 585 l 572 585 l 542 346 l 482 346 l 478 431 l 299 431 l 250 81 q 372 72 289 75 l 511 72 l 564 222 l 631 222 l 603 0 l 10 0 l 18 60 l 117 79 z "},"Ĕ":{"ha":718,"x_min":10,"x_max":706,"o":"m 10 0 m 117 79 l 221 821 l 125 840 l 133 900 l 706 900 l 674 672 l 599 672 l 599 826 l 456 826 l 354 819 l 308 500 l 483 500 l 513 585 l 572 585 l 542 346 l 482 346 l 478 431 l 299 431 l 250 81 q 372 72 289 75 l 511 72 l 564 222 l 631 222 l 603 0 l 10 0 l 18 60 l 117 79 m 674 1126 q 583 1019 647 1079 q 419 958 519 958 q 331 978 371 958 q 269 1028 292 999 q 247 1088 247 1058 q 269 1122 247 1106 q 322 1151 290 1139 q 366 1088 340 1117 q 440 1060 392 1060 q 640 1156 544 1060 l 674 1126 z "},"Ě":{"ha":713,"x_min":10,"x_max":706,"o":"m 325 1164 l 467 1071 l 618 1165 l 653 1117 l 551 1026 q 449 953 471 953 q 367 1017 431 953 l 274 1107 l 325 1164 m 117 79 l 221 821 l 125 840 l 133 900 l 706 900 l 674 672 l 599 672 l 599 826 l 456 826 l 354 819 l 308 500 l 483 500 l 513 585 l 572 585 l 542 346 l 482 346 l 478 431 l 299 431 l 250 81 q 372 72 289 75 l 511 72 l 564 222 l 631 222 l 603 0 l 10 0 l 18 60 l 117 79 z "},"Ê":{"ha":713,"x_min":10,"x_max":706,"o":"m 369 1088 l 396 1108 q 446 1146 426 1132 q 474 1160 465 1160 q 520 1131 486 1160 q 558 1097 554 1101 l 653 1011 l 604 951 l 454 1042 l 299 957 l 263 1006 l 369 1088 m 117 79 l 221 821 l 125 840 l 133 900 l 706 900 l 674 672 l 599 672 l 599 826 l 456 826 l 354 819 l 308 500 l 483 500 l 513 585 l 572 585 l 542 346 l 482 346 l 478 431 l 299 431 l 250 81 q 372 72 289 75 l 511 72 l 564 222 l 631 222 l 603 0 l 10 0 l 18 60 l 117 79 z "},"Ế":{"ha":718,"x_min":10,"x_max":808,"o":"m 10 0 m 117 79 l 221 821 l 125 840 l 133 900 l 706 900 l 674 672 l 599 672 l 599 826 l 456 826 l 354 819 l 308 500 l 483 500 l 513 585 l 572 585 l 542 346 l 482 346 l 478 431 l 299 431 l 250 81 q 372 72 289 75 l 511 72 l 564 222 l 631 222 l 603 0 l 10 0 l 18 60 l 117 79 m 360 1088 l 386 1108 q 436 1146 417 1132 q 464 1160 456 1160 q 510 1131 476 1160 q 549 1097 544 1101 l 643 1011 l 594 951 l 444 1042 l 288 957 l 253 1006 l 360 1088 m 518 1182 l 760 1347 q 794 1316 781 1336 q 808 1272 808 1296 q 792 1233 808 1249 q 740 1203 776 1218 l 549 1128 l 518 1182 z "},"Ệ":{"ha":718,"x_min":10,"x_max":706,"o":"m 10 0 m 117 79 l 221 821 l 125 840 l 133 900 l 706 900 l 674 672 l 599 672 l 599 826 l 456 826 l 354 819 l 308 500 l 483 500 l 513 585 l 572 585 l 542 346 l 482 346 l 478 431 l 299 431 l 250 81 q 372 72 289 75 l 511 72 l 564 222 l 631 222 l 603 0 l 10 0 l 18 60 l 117 79 m 283 -242 q 226 -219 247 -242 q 204 -162 204 -197 q 228 -92 204 -124 q 296 -61 253 -61 q 353 -84 331 -61 q 376 -144 376 -107 q 352 -212 376 -183 q 283 -242 328 -242 m 371 1088 l 397 1108 q 447 1146 428 1132 q 475 1160 467 1160 q 522 1131 488 1160 q 560 1097 556 1101 l 654 1011 l 606 951 l 456 1042 l 299 957 l 264 1006 l 371 1088 z "},"Ề":{"ha":718,"x_min":10,"x_max":706,"o":"m 10 0 m 117 79 l 221 821 l 125 840 l 133 900 l 706 900 l 674 672 l 599 672 l 599 826 l 456 826 l 354 819 l 308 500 l 483 500 l 513 585 l 572 585 l 542 346 l 482 346 l 478 431 l 299 431 l 250 81 q 372 72 289 75 l 511 72 l 564 222 l 631 222 l 603 0 l 10 0 l 18 60 l 117 79 m 356 1088 l 382 1108 q 432 1146 413 1132 q 460 1160 451 1160 q 506 1131 472 1160 q 544 1097 540 1101 l 639 1011 l 590 951 l 440 1042 l 283 957 l 249 1006 l 356 1088 m 474 1203 q 422 1233 438 1217 q 407 1271 407 1249 q 420 1316 407 1296 q 456 1347 433 1336 l 697 1182 l 665 1128 l 474 1203 z "},"Ể":{"ha":718,"x_min":10,"x_max":772,"o":"m 10 0 m 117 79 l 221 821 l 125 840 l 133 900 l 706 900 l 674 672 l 599 672 l 599 826 l 456 826 l 354 819 l 308 500 l 483 500 l 513 585 l 572 585 l 542 346 l 482 346 l 478 431 l 299 431 l 250 81 q 372 72 289 75 l 511 72 l 564 222 l 631 222 l 603 0 l 10 0 l 18 60 l 117 79 m 333 1088 l 360 1108 q 410 1146 390 1132 q 438 1160 429 1160 q 484 1131 450 1160 q 522 1097 518 1101 l 617 1011 l 568 951 l 418 1042 l 261 957 l 226 1006 l 333 1088 m 556 1107 q 550 1131 550 1124 q 563 1160 550 1147 q 611 1185 576 1172 q 663 1231 663 1206 q 648 1250 663 1243 q 604 1257 633 1257 q 517 1246 564 1257 q 506 1288 506 1268 q 528 1322 506 1308 q 604 1336 551 1336 q 727 1313 682 1336 q 772 1249 772 1290 q 745 1186 772 1213 q 674 1146 718 1160 q 643 1131 650 1138 q 635 1110 636 1124 l 556 1107 z "},"Ễ":{"ha":718,"x_min":10,"x_max":719,"o":"m 282 1304 q 364 1353 322 1353 q 465 1329 403 1353 l 574 1294 l 685 1344 l 719 1307 l 663 1240 q 582 1192 619 1192 q 534 1200 563 1192 q 479 1217 506 1208 l 372 1253 l 260 1203 l 225 1239 l 282 1304 m 360 1088 l 386 1108 q 436 1146 417 1132 q 464 1160 456 1160 q 510 1131 476 1160 q 549 1097 544 1101 l 643 1011 l 594 951 l 444 1042 l 288 957 l 253 1006 l 360 1088 m 117 79 l 221 821 l 125 840 l 133 900 l 706 900 l 674 672 l 599 672 l 599 826 l 456 826 l 354 819 l 308 500 l 483 500 l 513 585 l 572 585 l 542 346 l 482 346 l 478 431 l 299 431 l 250 81 q 372 72 289 75 l 511 72 l 564 222 l 631 222 l 603 0 l 10 0 l 18 60 l 117 79 z "},"Ȅ":{"ha":718,"x_min":10,"x_max":706,"o":"m 10 0 m 117 79 l 221 821 l 125 840 l 133 900 l 706 900 l 674 672 l 599 672 l 599 826 l 456 826 l 354 819 l 308 500 l 483 500 l 513 585 l 572 585 l 542 346 l 482 346 l 478 431 l 299 431 l 250 81 q 372 72 289 75 l 511 72 l 564 222 l 631 222 l 603 0 l 10 0 l 18 60 l 117 79 m 238 1011 q 193 1088 193 1056 q 224 1139 193 1117 q 290 1165 254 1161 l 375 972 l 321 935 l 238 1011 m 465 1011 q 421 1088 421 1056 q 451 1139 421 1117 q 518 1165 482 1161 l 601 972 l 549 935 l 465 1011 z "},"Ë":{"ha":713,"x_min":10,"x_max":706,"o":"m 304 960 q 250 983 271 960 q 229 1042 229 1006 q 252 1106 229 1078 q 313 1133 275 1133 q 368 1111 347 1133 q 389 1053 389 1089 q 367 987 389 1014 q 304 960 344 960 m 603 960 q 547 983 568 960 q 526 1042 526 1006 q 550 1106 526 1078 q 611 1133 574 1133 q 667 1111 646 1133 q 688 1053 688 1089 q 665 987 688 1014 q 603 960 642 960 m 117 79 l 221 821 l 125 840 l 133 900 l 706 900 l 674 672 l 599 672 l 599 826 l 456 826 l 354 819 l 308 500 l 483 500 l 513 585 l 572 585 l 542 346 l 482 346 l 478 431 l 299 431 l 250 81 q 372 72 289 75 l 511 72 l 564 222 l 631 222 l 603 0 l 10 0 l 18 60 l 117 79 z "},"Ė":{"ha":713,"x_min":10,"x_max":706,"o":"m 453 964 q 397 986 418 964 q 375 1042 375 1008 q 399 1110 375 1081 q 465 1140 422 1140 q 522 1119 500 1140 q 544 1060 544 1097 q 520 992 544 1021 q 453 964 496 964 m 117 79 l 221 821 l 125 840 l 133 900 l 706 900 l 674 672 l 599 672 l 599 826 l 456 826 l 354 819 l 308 500 l 483 500 l 513 585 l 572 585 l 542 346 l 482 346 l 478 431 l 299 431 l 250 81 q 372 72 289 75 l 511 72 l 564 222 l 631 222 l 603 0 l 10 0 l 18 60 l 117 79 z "},"Ẹ":{"ha":718,"x_min":10,"x_max":706,"o":"m 10 0 m 117 79 l 221 821 l 125 840 l 133 900 l 706 900 l 674 672 l 599 672 l 599 826 l 456 826 l 354 819 l 308 500 l 483 500 l 513 585 l 572 585 l 542 346 l 482 346 l 478 431 l 299 431 l 250 81 q 372 72 289 75 l 511 72 l 564 222 l 631 222 l 603 0 l 10 0 l 18 60 l 117 79 m 283 -242 q 226 -219 247 -242 q 204 -162 204 -197 q 228 -92 204 -124 q 296 -61 253 -61 q 353 -84 331 -61 q 376 -144 376 -107 q 352 -212 376 -183 q 283 -242 328 -242 z "},"È":{"ha":713,"x_min":10,"x_max":706,"o":"m 344 1018 q 293 1048 308 1032 q 278 1086 278 1064 q 291 1131 278 1111 q 326 1163 304 1151 l 568 997 l 536 943 l 344 1018 m 117 79 l 221 821 l 125 840 l 133 900 l 706 900 l 674 672 l 599 672 l 599 826 l 456 826 l 354 819 l 308 500 l 483 500 l 513 585 l 572 585 l 542 346 l 482 346 l 478 431 l 299 431 l 250 81 q 372 72 289 75 l 511 72 l 564 222 l 631 222 l 603 0 l 10 0 l 18 60 l 117 79 z "},"Ẻ":{"ha":718,"x_min":10,"x_max":706,"o":"m 10 0 m 117 79 l 221 821 l 125 840 l 133 900 l 706 900 l 674 672 l 599 672 l 599 826 l 456 826 l 354 819 l 308 500 l 483 500 l 513 585 l 572 585 l 542 346 l 482 346 l 478 431 l 299 431 l 250 81 q 372 72 289 75 l 511 72 l 564 222 l 631 222 l 603 0 l 10 0 l 18 60 l 117 79 m 407 939 q 401 963 401 956 q 415 992 401 979 q 463 1017 428 1004 q 514 1063 514 1038 q 499 1082 514 1075 q 456 1089 485 1089 q 368 1078 415 1089 q 357 1119 357 1100 q 380 1154 357 1140 q 456 1168 403 1168 q 578 1145 533 1168 q 624 1081 624 1122 q 597 1018 624 1044 q 525 978 569 992 q 494 963 501 969 q 486 942 488 956 l 407 939 z "},"Ȇ":{"ha":718,"x_min":10,"x_max":706,"o":"m 10 0 m 117 79 l 221 821 l 125 840 l 133 900 l 706 900 l 674 672 l 599 672 l 599 826 l 456 826 l 354 819 l 308 500 l 483 500 l 513 585 l 572 585 l 542 346 l 482 346 l 478 431 l 299 431 l 250 81 q 372 72 289 75 l 511 72 l 564 222 l 631 222 l 603 0 l 10 0 l 18 60 l 117 79 m 247 988 q 340 1097 278 1039 q 503 1156 403 1156 q 590 1135 551 1156 q 651 1085 629 1115 q 674 1026 674 1056 q 652 992 674 1010 q 600 963 631 975 q 556 1026 582 997 q 482 1054 531 1054 q 362 1022 413 1054 q 282 958 311 990 l 247 988 z "},"Ē":{"ha":713,"x_min":10,"x_max":706,"o":"m 256 1093 l 676 1093 l 664 997 l 244 997 l 256 1093 m 117 79 l 221 821 l 125 840 l 133 900 l 706 900 l 674 672 l 599 672 l 599 826 l 456 826 l 354 819 l 308 500 l 483 500 l 513 585 l 572 585 l 542 346 l 482 346 l 478 431 l 299 431 l 250 81 q 372 72 289 75 l 511 72 l 564 222 l 631 222 l 603 0 l 10 0 l 18 60 l 117 79 z "},"Ę":{"ha":713,"x_min":10,"x_max":706,"o":"m 599 672 l 599 826 l 456 826 l 354 819 l 308 500 l 483 500 l 513 585 l 572 585 l 542 346 l 482 346 l 478 431 l 299 431 l 250 81 q 372 72 289 75 l 511 72 l 564 222 l 631 222 l 603 0 l 561 0 q 490 -118 490 -54 q 544 -172 490 -172 q 621 -144 575 -172 l 647 -182 q 626 -201 647 -183 q 572 -235 604 -219 q 500 -250 539 -250 q 386 -160 386 -250 q 415 -70 386 -111 q 493 0 444 -29 l 10 0 l 18 60 l 117 79 l 221 821 l 125 840 l 133 900 l 706 900 l 674 672 l 599 672 z "},"Ẽ":{"ha":718,"x_min":10,"x_max":706,"o":"m 10 0 m 117 79 l 221 821 l 125 840 l 133 900 l 706 900 l 674 672 l 599 672 l 599 826 l 456 826 l 354 819 l 308 500 l 483 500 l 513 585 l 572 585 l 542 346 l 482 346 l 478 431 l 299 431 l 250 81 q 372 72 289 75 l 511 72 l 564 222 l 631 222 l 603 0 l 10 0 l 18 60 l 117 79 m 268 1088 q 350 1139 308 1139 q 451 1114 385 1139 l 560 1076 l 671 1129 l 706 1090 l 649 1019 q 568 968 607 968 q 465 994 536 968 l 358 1032 l 246 979 l 211 1018 l 268 1088 z "},"F":{"ha":679,"x_min":10,"x_max":715,"o":"m 18 60 l 117 79 l 221 821 l 125 840 l 133 900 l 715 900 l 681 679 l 604 679 l 604 822 l 460 822 l 353 813 l 304 474 l 497 474 l 524 558 l 583 558 l 547 308 l 490 308 l 486 396 l 294 396 l 249 79 l 383 60 l 378 0 l 10 0 l 18 60 z "},"G":{"ha":797,"x_min":60,"x_max":753,"o":"m 556 36 q 527 18 551 33 q 462 -6 503 3 q 368 -15 421 -15 q 140 73 221 -15 q 60 335 60 161 q 113 622 60 489 q 269 836 165 756 q 514 917 372 917 q 688 902 625 917 q 753 888 750 888 l 722 671 l 653 671 l 644 800 q 583 826 624 813 q 485 840 542 840 q 284 721 360 840 q 208 356 208 601 q 256 131 208 200 q 406 61 303 61 q 485 72 453 61 q 556 103 517 83 l 592 361 l 444 386 l 451 451 l 724 451 l 664 0 l 594 0 l 567 36 l 556 36 z "},"Ǵ":{"ha":797,"x_min":60,"x_max":754,"o":"m 60 0 m 556 36 q 527 18 551 33 q 462 -6 503 3 q 368 -15 421 -15 q 140 73 221 -15 q 60 335 60 161 q 113 622 60 489 q 269 836 165 756 q 514 917 372 917 q 688 902 625 917 q 753 888 750 888 l 722 671 l 653 671 l 644 800 q 583 826 624 813 q 485 840 542 840 q 284 721 360 840 q 208 356 208 601 q 256 131 208 200 q 406 61 303 61 q 485 72 453 61 q 556 103 517 83 l 592 361 l 444 386 l 451 451 l 724 451 l 664 0 l 594 0 l 567 36 l 556 36 m 464 997 l 706 1163 q 740 1131 726 1151 q 754 1088 754 1111 q 738 1049 754 1064 q 686 1018 722 1033 l 494 943 l 464 997 z "},"Ğ":{"ha":789,"x_min":51,"x_max":744,"o":"m 738 1126 q 688 1059 713 1089 q 608 994 664 1029 q 482 958 553 958 q 394 978 433 958 q 333 1028 356 999 q 311 1088 311 1058 q 333 1122 311 1104 q 385 1151 354 1139 q 428 1088 403 1117 q 503 1060 454 1060 q 623 1092 572 1060 q 703 1156 674 1124 l 738 1126 m 549 36 q 471 -2 508 11 q 360 -15 433 -15 q 132 73 213 -15 q 51 335 51 161 q 104 622 51 489 q 260 836 157 756 q 506 917 364 917 q 639 908 585 917 q 744 888 693 899 l 714 671 l 644 671 l 636 800 q 574 826 615 813 q 476 840 533 840 q 276 721 351 840 q 201 356 201 601 q 249 131 201 200 q 399 61 296 61 q 478 72 446 61 q 547 103 511 83 l 585 361 l 436 386 l 443 451 l 715 451 l 656 0 l 588 0 l 558 36 l 549 36 z "},"Ǧ":{"ha":797,"x_min":60,"x_max":753,"o":"m 60 0 m 556 36 q 527 18 551 33 q 462 -6 503 3 q 368 -15 421 -15 q 140 73 221 -15 q 60 335 60 161 q 113 622 60 489 q 269 836 165 756 q 514 917 372 917 q 688 902 625 917 q 753 888 750 888 l 722 671 l 653 671 l 644 800 q 583 826 624 813 q 485 840 542 840 q 284 721 360 840 q 208 356 208 601 q 256 131 208 200 q 406 61 303 61 q 485 72 453 61 q 556 103 517 83 l 592 361 l 444 386 l 451 451 l 724 451 l 664 0 l 594 0 l 567 36 l 556 36 m 533 951 q 453 1014 515 951 l 360 1104 l 410 1161 l 553 1069 l 703 1164 l 739 1115 l 638 1025 q 533 951 557 951 z "},"Ĝ":{"ha":797,"x_min":60,"x_max":753,"o":"m 60 0 m 556 36 q 527 18 551 33 q 462 -6 503 3 q 368 -15 421 -15 q 140 73 221 -15 q 60 335 60 161 q 113 622 60 489 q 269 836 165 756 q 514 917 372 917 q 688 902 625 917 q 753 888 750 888 l 722 671 l 653 671 l 644 800 q 583 826 624 813 q 485 840 542 840 q 284 721 360 840 q 208 356 208 601 q 256 131 208 200 q 406 61 303 61 q 485 72 453 61 q 556 103 517 83 l 592 361 l 444 386 l 451 451 l 724 451 l 664 0 l 594 0 l 567 36 l 556 36 m 461 1088 l 488 1108 q 538 1146 518 1132 q 565 1160 557 1160 q 612 1131 578 1160 q 650 1097 646 1101 l 744 1011 l 696 951 l 546 1042 l 389 957 l 354 1006 l 461 1088 z "},"Ģ":{"ha":789,"x_min":51,"x_max":744,"o":"m 549 36 q 471 -2 508 11 q 360 -15 433 -15 q 132 73 213 -15 q 51 335 51 161 q 104 622 51 489 q 260 836 157 756 q 506 917 364 917 q 639 908 585 917 q 744 888 693 899 l 714 671 l 644 671 l 636 800 q 574 826 615 813 q 476 840 533 840 q 276 721 351 840 q 201 356 201 601 q 249 131 201 200 q 399 61 296 61 q 478 72 446 61 q 547 103 511 83 l 585 361 l 436 386 l 443 451 l 715 451 l 656 0 l 588 0 l 558 36 l 549 36 m 285 -257 q 301 -239 289 -253 q 325 -202 314 -225 q 336 -154 336 -179 q 304 -78 336 -110 q 371 -42 329 -42 q 426 -62 406 -42 q 446 -124 446 -83 q 397 -226 446 -183 q 311 -285 349 -268 l 285 -257 z "},"Ġ":{"ha":797,"x_min":60,"x_max":753,"o":"m 60 0 m 556 36 q 527 18 551 33 q 462 -6 503 3 q 368 -15 421 -15 q 140 73 221 -15 q 60 335 60 161 q 113 622 60 489 q 269 836 165 756 q 514 917 372 917 q 688 902 625 917 q 753 888 750 888 l 722 671 l 653 671 l 644 800 q 583 826 624 813 q 485 840 542 840 q 284 721 360 840 q 208 356 208 601 q 256 131 208 200 q 406 61 303 61 q 485 72 453 61 q 556 103 517 83 l 592 361 l 444 386 l 451 451 l 724 451 l 664 0 l 594 0 l 567 36 l 556 36 m 542 964 q 486 986 507 964 q 465 1042 465 1008 q 489 1110 465 1081 q 556 1140 513 1140 q 612 1119 590 1140 q 633 1060 633 1097 q 609 992 633 1021 q 542 964 585 964 z "},"H":{"ha":929,"x_min":10,"x_max":931,"o":"m 17 60 l 115 79 l 219 821 l 124 840 l 132 900 l 458 900 l 450 840 l 351 821 l 307 501 l 647 501 l 692 821 l 596 840 l 604 900 l 931 900 l 922 840 l 824 821 l 719 79 l 815 60 l 808 0 l 481 0 l 489 60 l 588 79 l 635 419 l 296 419 l 247 79 l 343 60 l 336 0 l 10 0 l 17 60 z "},"Ħ":{"ha":929,"x_min":10,"x_max":931,"o":"m 922 840 l 824 821 l 804 676 l 897 676 l 885 599 l 793 599 l 719 79 l 815 60 l 808 0 l 481 0 l 489 60 l 588 79 l 628 369 l 288 369 l 247 79 l 343 60 l 336 0 l 10 0 l 17 60 l 115 79 l 189 599 l 96 599 l 107 676 l 199 676 l 219 821 l 124 840 l 132 900 l 458 900 l 450 840 l 351 821 l 332 676 l 671 676 l 692 821 l 596 840 l 604 900 l 931 900 l 922 840 m 639 451 l 661 599 l 321 599 l 300 451 l 639 451 z "},"Ĥ":{"ha":929,"x_min":10,"x_max":931,"o":"m 10 0 m 17 60 l 115 79 l 219 821 l 124 840 l 132 900 l 458 900 l 450 840 l 351 821 l 307 501 l 647 501 l 692 821 l 596 840 l 604 900 l 931 900 l 922 840 l 824 821 l 719 79 l 815 60 l 808 0 l 481 0 l 489 60 l 588 79 l 635 419 l 296 419 l 247 79 l 343 60 l 336 0 l 10 0 l 17 60 m 464 1088 l 490 1108 q 540 1146 521 1132 q 568 1160 560 1160 q 615 1131 581 1160 q 653 1097 649 1101 l 747 1011 l 699 951 l 549 1042 l 392 957 l 357 1006 l 464 1088 z "},"Ḥ":{"ha":929,"x_min":10,"x_max":931,"o":"m 10 0 m 17 60 l 115 79 l 219 821 l 124 840 l 132 900 l 458 900 l 450 840 l 351 821 l 307 501 l 647 501 l 692 821 l 596 840 l 604 900 l 931 900 l 922 840 l 824 821 l 719 79 l 815 60 l 808 0 l 481 0 l 489 60 l 588 79 l 635 419 l 296 419 l 247 79 l 343 60 l 336 0 l 10 0 l 17 60 m 382 -242 q 324 -219 346 -242 q 303 -162 303 -197 q 327 -92 303 -124 q 394 -61 351 -61 q 452 -84 429 -61 q 475 -144 475 -107 q 451 -212 475 -183 q 382 -242 426 -242 z "},"I":{"ha":457,"x_min":10,"x_max":460,"o":"m 18 60 l 117 79 l 221 821 l 125 840 l 133 900 l 460 900 l 451 840 l 353 821 l 249 79 l 344 60 l 338 0 l 10 0 l 18 60 z "},"Ĳ":{"ha":1019,"x_min":10,"x_max":1049,"o":"m 10 0 m 18 60 l 117 79 l 221 821 l 125 840 l 133 900 l 460 900 l 451 840 l 353 821 l 249 79 l 344 60 l 338 0 l 10 0 l 18 60 m 547 233 l 564 74 q 586 65 564 72 q 632 58 608 58 q 694 75 676 58 q 721 146 713 92 l 811 818 l 697 840 l 704 900 l 1049 900 l 1042 840 l 943 821 l 854 161 q 787 22 840 64 q 621 -19 733 -19 q 517 -6 564 -19 q 443 18 469 7 l 469 233 l 547 233 z "},"Í":{"ha":457,"x_min":10,"x_max":472,"o":"m 182 997 l 424 1163 q 458 1131 444 1151 q 472 1088 472 1111 q 456 1048 472 1064 q 404 1018 440 1032 l 213 943 l 182 997 m 17 60 l 115 79 l 219 821 l 125 840 l 132 900 l 458 900 l 451 840 l 353 821 l 249 79 l 343 60 l 336 0 l 10 0 l 17 60 z "},"Ĭ":{"ha":457,"x_min":10,"x_max":539,"o":"m 10 0 m 18 60 l 117 79 l 221 821 l 125 840 l 133 900 l 460 900 l 451 840 l 353 821 l 249 79 l 344 60 l 338 0 l 10 0 l 18 60 m 539 1126 q 449 1019 513 1079 q 285 958 385 958 q 197 978 236 958 q 135 1028 157 999 q 113 1088 113 1058 q 134 1122 113 1106 q 188 1151 156 1139 q 231 1088 206 1117 q 306 1060 257 1060 q 506 1156 410 1060 l 539 1126 z "},"Ǐ":{"ha":457,"x_min":10,"x_max":514,"o":"m 10 0 m 18 60 l 117 79 l 221 821 l 125 840 l 133 900 l 460 900 l 451 840 l 353 821 l 249 79 l 344 60 l 338 0 l 10 0 l 18 60 m 308 951 q 228 1014 290 951 l 135 1104 l 185 1161 l 328 1069 l 478 1164 l 514 1115 l 413 1025 q 308 951 332 951 z "},"Î":{"ha":443,"x_min":-4,"x_max":490,"o":"m 207 1088 l 243 1115 q 288 1151 275 1142 q 310 1160 301 1160 q 355 1132 322 1160 q 396 1097 388 1104 l 490 1011 l 442 951 l 292 1042 l 135 957 l 100 1006 l 207 1088 m 3 60 l 101 79 l 207 821 l 111 840 l 118 900 l 444 900 l 438 840 l 339 821 l 235 79 l 329 60 l 324 0 l -4 0 l 3 60 z "},"Ȉ":{"ha":457,"x_min":10,"x_max":467,"o":"m 10 0 m 18 60 l 117 79 l 221 821 l 125 840 l 133 900 l 460 900 l 451 840 l 353 821 l 249 79 l 344 60 l 338 0 l 10 0 l 18 60 m 103 1011 q 58 1088 58 1056 q 89 1139 58 1117 q 156 1165 119 1161 l 240 972 l 186 935 l 103 1011 m 331 1011 q 286 1088 286 1056 q 317 1139 286 1117 q 383 1165 347 1161 l 467 972 l 414 935 l 331 1011 z "},"Ï":{"ha":457,"x_min":10,"x_max":535,"o":"m 171 960 q 117 983 138 960 q 96 1042 96 1006 q 119 1106 96 1078 q 181 1133 143 1133 q 235 1111 214 1133 q 256 1053 256 1089 q 233 987 256 1014 q 171 960 211 960 m 450 960 q 396 983 417 960 q 375 1042 375 1006 q 398 1106 375 1078 q 458 1133 421 1133 q 514 1111 493 1133 q 535 1053 535 1089 q 512 987 535 1014 q 450 960 489 960 m 17 60 l 115 79 l 219 821 l 125 840 l 132 900 l 458 900 l 451 840 l 353 821 l 249 79 l 343 60 l 336 0 l 10 0 l 17 60 z "},"İ":{"ha":453,"x_min":4,"x_max":453,"o":"m 310 964 q 255 986 276 964 q 233 1042 233 1008 q 257 1110 233 1081 q 324 1140 281 1140 q 380 1119 358 1140 q 401 1060 401 1097 q 378 992 401 1021 q 310 964 354 964 m 13 60 l 111 79 l 215 821 l 119 840 l 126 900 l 453 900 l 446 840 l 347 821 l 243 79 l 339 60 l 332 0 l 4 0 l 13 60 z "},"Ị":{"ha":457,"x_min":10,"x_max":460,"o":"m 10 0 m 18 60 l 117 79 l 221 821 l 125 840 l 133 900 l 460 900 l 451 840 l 353 821 l 249 79 l 344 60 l 338 0 l 10 0 l 18 60 m 150 -242 q 92 -219 114 -242 q 71 -162 71 -197 q 95 -92 71 -124 q 163 -61 119 -61 q 220 -84 197 -61 q 243 -144 243 -107 q 219 -212 243 -183 q 150 -242 194 -242 z "},"Ì":{"ha":457,"x_min":10,"x_max":458,"o":"m 217 1018 q 165 1048 181 1032 q 149 1086 149 1064 q 162 1131 149 1111 q 197 1163 175 1151 l 439 997 l 408 943 l 217 1018 m 17 60 l 115 79 l 219 821 l 125 840 l 132 900 l 458 900 l 451 840 l 353 821 l 249 79 l 343 60 l 336 0 l 10 0 l 17 60 z "},"Ỉ":{"ha":457,"x_min":10,"x_max":489,"o":"m 10 0 m 18 60 l 117 79 l 221 821 l 125 840 l 133 900 l 460 900 l 451 840 l 353 821 l 249 79 l 344 60 l 338 0 l 10 0 l 18 60 m 272 939 q 267 963 267 956 q 280 992 267 979 q 328 1017 293 1004 q 379 1063 379 1038 q 365 1082 379 1075 q 321 1089 350 1089 q 233 1078 281 1089 q 222 1119 222 1100 q 245 1154 222 1140 q 321 1168 268 1168 q 444 1145 399 1168 q 489 1081 489 1122 q 462 1018 489 1044 q 390 978 435 992 q 360 963 367 969 q 351 942 353 956 l 272 939 z "},"Ȋ":{"ha":457,"x_min":10,"x_max":539,"o":"m 10 0 m 18 60 l 117 79 l 221 821 l 125 840 l 133 900 l 460 900 l 451 840 l 353 821 l 249 79 l 344 60 l 338 0 l 10 0 l 18 60 m 113 988 q 206 1097 143 1039 q 368 1156 268 1156 q 456 1135 417 1156 q 517 1085 494 1115 q 539 1026 539 1056 q 517 992 539 1010 q 465 963 496 975 q 422 1026 447 997 q 347 1054 396 1054 q 227 1022 278 1054 q 147 958 176 990 l 113 988 z "},"Ī":{"ha":457,"x_min":10,"x_max":504,"o":"m 133 1093 l 504 1093 l 490 997 l 119 997 l 133 1093 m 17 60 l 115 79 l 219 821 l 125 840 l 132 900 l 458 900 l 451 840 l 353 821 l 249 79 l 343 60 l 336 0 l 10 0 l 17 60 z "},"Į":{"ha":457,"x_min":10,"x_max":458,"o":"m 115 79 l 219 821 l 125 840 l 132 900 l 458 900 l 451 840 l 353 821 l 249 79 l 343 60 l 336 0 l 213 0 q 160 -51 182 -21 q 139 -118 139 -81 q 194 -172 139 -172 q 271 -144 225 -172 l 296 -182 q 274 -201 296 -183 q 220 -235 253 -219 q 149 -250 188 -250 q 36 -160 36 -250 q 65 -72 36 -112 q 143 0 94 -31 l 10 0 l 17 60 l 115 79 z "},"Ĩ":{"ha":457,"x_min":10,"x_max":571,"o":"m 10 0 m 18 60 l 117 79 l 221 821 l 125 840 l 133 900 l 460 900 l 451 840 l 353 821 l 249 79 l 344 60 l 338 0 l 10 0 l 18 60 m 133 1088 q 215 1139 174 1139 q 317 1114 250 1139 l 425 1076 l 536 1129 l 571 1090 l 514 1019 q 433 968 472 968 q 331 994 401 968 l 224 1032 l 111 979 l 76 1018 l 133 1088 z "},"J":{"ha":563,"x_min":-14,"x_max":592,"o":"m 90 233 l 107 74 q 129 65 107 72 q 175 58 151 58 q 238 75 219 58 q 264 146 256 92 l 354 818 l 240 840 l 247 900 l 592 900 l 585 840 l 486 821 l 397 161 q 330 22 383 64 q 164 -19 276 -19 q 60 -6 107 -19 q -14 18 13 7 l 13 233 l 90 233 z "},"Ĵ":{"ha":563,"x_min":-14,"x_max":649,"o":"m 0 0 m 90 233 l 107 74 q 129 65 107 72 q 175 58 151 58 q 238 75 219 58 q 264 146 256 92 l 354 818 l 240 840 l 247 900 l 592 900 l 585 840 l 486 821 l 397 161 q 330 22 383 64 q 164 -19 276 -19 q 60 -6 107 -19 q -14 18 13 7 l 13 233 l 90 233 m 365 1088 l 392 1108 q 442 1146 422 1132 q 469 1160 461 1160 q 516 1131 482 1160 q 554 1097 550 1101 l 649 1011 l 600 951 l 450 1042 l 293 957 l 258 1006 l 365 1088 z "},"K":{"ha":740,"x_min":10,"x_max":817,"o":"m 117 79 l 221 821 l 125 840 l 133 900 l 460 900 l 451 840 l 353 821 l 307 497 l 347 497 l 619 811 l 619 822 l 546 840 l 554 900 l 817 900 l 808 840 l 731 821 l 447 496 l 660 82 l 749 60 l 742 0 l 600 0 q 557 10 572 0 q 528 47 542 21 l 342 426 l 299 426 l 249 79 l 344 60 l 338 0 l 10 0 l 18 60 l 117 79 z "},"Ķ":{"ha":740,"x_min":4,"x_max":810,"o":"m 111 79 l 215 821 l 119 840 l 126 900 l 453 900 l 446 840 l 347 821 l 301 497 l 342 497 l 614 811 l 614 822 l 540 840 l 547 900 l 810 900 l 803 840 l 725 821 l 442 496 l 651 82 l 742 60 l 736 0 l 590 0 q 547 10 563 0 q 518 47 532 21 l 328 426 l 293 426 l 243 79 l 339 60 l 332 0 l 4 0 l 13 60 l 111 79 m 274 -257 q 290 -239 278 -253 q 313 -202 301 -225 q 324 -154 324 -179 q 293 -78 324 -108 q 319 -53 301 -64 q 360 -42 336 -42 q 415 -62 394 -42 q 435 -124 435 -83 q 386 -226 435 -183 q 300 -285 338 -268 l 274 -257 z "},"L":{"ha":619,"x_min":10,"x_max":593,"o":"m 17 60 l 115 79 l 219 821 l 125 840 l 132 900 l 458 900 l 451 840 l 353 821 l 249 79 l 307 72 l 469 72 l 526 222 l 593 222 l 561 0 l 10 0 l 17 60 z "},"Ǉ":{"ha":1190,"x_min":10,"x_max":1219,"o":"m 10 0 m 17 60 l 115 79 l 219 821 l 125 840 l 132 900 l 458 900 l 451 840 l 353 821 l 249 79 l 307 72 l 469 72 l 526 222 l 593 222 l 561 0 l 10 0 l 17 60 m 718 233 l 735 74 q 757 65 735 72 q 803 58 779 58 q 865 75 847 58 q 892 146 883 92 l 982 818 l 868 840 l 875 900 l 1219 900 l 1213 840 l 1114 821 l 1025 161 q 958 22 1011 64 q 792 -19 904 -19 q 688 -6 735 -19 q 614 18 640 7 l 640 233 l 718 233 z "},"Ĺ":{"ha":619,"x_min":4,"x_max":588,"o":"m 176 997 l 418 1163 q 454 1131 440 1151 q 468 1088 468 1111 q 452 1048 468 1064 q 400 1018 436 1032 l 208 943 l 176 997 m 13 60 l 111 79 l 215 821 l 119 840 l 126 900 l 453 900 l 446 840 l 347 821 l 243 79 l 301 72 l 464 72 l 521 222 l 588 222 l 557 0 l 4 0 l 13 60 z "},"Ľ":{"ha":619,"x_min":4,"x_max":661,"o":"m 515 789 q 527 808 518 793 q 544 849 536 822 q 553 906 553 875 q 533 968 553 940 q 597 1004 558 1004 q 645 986 629 1004 q 661 938 661 968 q 637 851 661 889 q 584 792 613 814 q 540 763 556 769 l 515 789 m 13 60 l 111 79 l 215 821 l 119 840 l 126 900 l 453 900 l 446 840 l 347 821 l 243 79 l 301 72 l 464 72 l 521 222 l 588 222 l 557 0 l 4 0 l 13 60 z "},"Ļ":{"ha":619,"x_min":4,"x_max":588,"o":"m 13 60 l 111 79 l 215 821 l 119 840 l 126 900 l 453 900 l 446 840 l 347 821 l 243 79 l 301 72 l 464 72 l 521 222 l 588 222 l 557 0 l 4 0 l 13 60 m 203 -257 q 219 -239 207 -253 q 243 -202 232 -225 q 254 -154 254 -179 q 222 -78 254 -110 q 289 -42 247 -42 q 344 -62 324 -42 q 364 -124 364 -83 q 315 -226 364 -183 q 229 -285 267 -268 l 203 -257 z "},"Ŀ":{"ha":619,"x_min":10,"x_max":601,"o":"m 10 0 m 17 60 l 115 79 l 219 821 l 125 840 l 132 900 l 458 900 l 451 840 l 353 821 l 249 79 l 307 72 l 469 72 l 526 222 l 593 222 l 561 0 l 10 0 l 17 60 m 500 417 q 448 437 468 417 q 428 490 428 457 q 455 567 428 533 q 526 600 482 600 q 581 579 560 600 q 601 526 601 558 q 574 449 601 482 q 500 417 546 417 z "},"ǈ":{"ha":1000,"x_min":10,"x_max":965,"o":"m 10 0 m 17 60 l 115 79 l 219 821 l 125 840 l 132 900 l 458 900 l 451 840 l 353 821 l 249 79 l 307 72 l 469 72 l 526 222 l 593 222 l 561 0 l 10 0 l 17 60 m 872 803 q 816 826 838 803 q 794 882 794 849 q 818 953 794 922 q 886 983 842 983 q 943 960 921 983 q 965 900 965 938 q 941 832 965 861 q 872 803 917 803 m 547 -233 q 497 -221 513 -233 q 481 -176 481 -208 q 490 -132 481 -146 q 499 -118 499 -118 l 600 -118 q 650 -113 628 -118 q 676 -103 672 -108 q 724 21 711 -56 l 813 597 l 706 621 l 706 683 l 933 710 l 933 599 l 853 53 q 749 -158 833 -82 q 547 -233 664 -233 z "},"Ł":{"ha":618,"x_min":4,"x_max":588,"o":"m 13 60 l 111 79 l 151 369 l 32 324 l 32 401 l 164 453 l 215 821 l 119 840 l 126 900 l 453 900 l 446 840 l 347 821 l 304 510 l 443 565 l 443 483 l 292 424 l 243 79 l 301 72 l 464 72 l 521 222 l 588 222 l 557 0 l 4 0 l 13 60 z "},"M":{"ha":1063,"x_min":10,"x_max":1061,"o":"m 18 60 l 117 79 l 221 821 l 125 840 l 133 900 l 397 900 l 489 272 l 492 208 l 494 213 l 517 272 l 796 900 l 1061 900 l 1056 840 l 957 821 l 851 79 l 947 60 l 940 0 l 613 0 l 621 60 l 719 79 l 804 679 l 813 725 l 806 725 l 485 0 l 413 0 l 299 722 l 293 722 l 290 689 l 204 79 l 300 60 l 294 0 l 10 0 l 18 60 z "},"N":{"ha":903,"x_min":8,"x_max":919,"o":"m 15 60 l 114 79 l 218 821 l 124 840 l 131 900 l 351 900 l 629 217 l 633 200 l 640 200 l 642 215 l 728 821 l 632 840 l 638 900 l 919 900 l 913 840 l 814 821 l 700 0 l 578 0 l 300 681 l 296 697 l 289 697 l 201 79 l 297 60 l 292 0 l 8 0 l 15 60 z "},"Ǌ":{"ha":1465,"x_min":8,"x_max":1494,"o":"m 8 0 m 15 60 l 114 79 l 218 821 l 124 840 l 131 900 l 351 900 l 629 217 l 633 200 l 640 200 l 642 215 l 728 821 l 632 840 l 638 900 l 919 900 l 913 840 l 814 821 l 700 0 l 578 0 l 300 681 l 296 697 l 289 697 l 201 79 l 297 60 l 292 0 l 8 0 l 15 60 m 993 233 l 1010 74 q 1032 65 1010 72 q 1078 58 1054 58 q 1140 75 1122 58 q 1167 146 1158 92 l 1257 818 l 1143 840 l 1150 900 l 1494 900 l 1488 840 l 1389 821 l 1300 161 q 1233 22 1286 64 q 1067 -19 1179 -19 q 963 -6 1010 -19 q 889 18 915 7 l 915 233 l 993 233 z "},"Ń":{"ha":903,"x_min":8,"x_max":919,"o":"m 425 1000 l 642 1165 q 697 1137 679 1157 q 715 1090 715 1117 q 700 1051 715 1067 q 649 1021 685 1035 l 457 946 l 425 1000 m 15 60 l 114 79 l 218 821 l 124 840 l 131 900 l 351 900 l 629 217 l 633 200 l 640 200 l 642 215 l 728 821 l 632 840 l 638 900 l 919 900 l 913 840 l 814 821 l 700 0 l 578 0 l 300 681 l 296 697 l 289 697 l 201 79 l 297 60 l 292 0 l 8 0 l 15 60 z "},"Ň":{"ha":903,"x_min":8,"x_max":919,"o":"m 411 1161 l 554 1069 l 704 1164 l 739 1115 l 639 1025 q 535 951 558 951 q 454 1014 517 951 l 361 1104 l 411 1161 m 15 60 l 114 79 l 218 821 l 124 840 l 131 900 l 351 900 l 629 217 l 633 200 l 640 200 l 642 215 l 728 821 l 632 840 l 638 900 l 919 900 l 913 840 l 814 821 l 700 0 l 578 0 l 300 681 l 296 697 l 289 697 l 201 79 l 297 60 l 292 0 l 8 0 l 15 60 z "},"Ņ":{"ha":903,"x_min":8,"x_max":919,"o":"m 15 60 l 114 79 l 218 821 l 124 840 l 131 900 l 351 900 l 629 217 l 633 200 l 640 200 l 642 215 l 728 821 l 632 840 l 638 900 l 919 900 l 913 840 l 814 821 l 700 0 l 578 0 l 300 681 l 296 697 l 289 697 l 201 79 l 297 60 l 292 0 l 8 0 l 15 60 m 313 -257 q 328 -239 317 -253 q 351 -202 340 -225 q 363 -154 363 -179 q 332 -78 363 -108 q 358 -53 340 -64 q 399 -42 375 -42 q 453 -62 433 -42 q 474 -124 474 -83 q 425 -226 474 -183 q 339 -285 376 -268 l 313 -257 z "},"Ṅ":{"ha":903,"x_min":8,"x_max":919,"o":"m 8 0 m 15 60 l 114 79 l 218 821 l 124 840 l 131 900 l 351 900 l 629 217 l 633 200 l 640 200 l 642 215 l 728 821 l 632 840 l 638 900 l 919 900 l 913 840 l 814 821 l 700 0 l 578 0 l 300 681 l 296 697 l 289 697 l 201 79 l 297 60 l 292 0 l 8 0 l 15 60 m 543 964 q 488 986 508 964 q 467 1042 467 1008 q 490 1110 467 1081 q 557 1140 514 1140 q 613 1119 592 1140 q 635 1060 635 1097 q 610 992 635 1021 q 543 964 586 964 z "},"Ŋ":{"ha":903,"x_min":8,"x_max":919,"o":"m 919 900 l 913 840 l 814 821 l 707 54 q 651 -101 694 -36 q 542 -199 607 -165 q 401 -233 478 -233 q 349 -221 365 -233 q 333 -176 333 -208 q 343 -132 333 -144 q 353 -118 353 -119 l 454 -118 q 503 -113 482 -118 q 531 -103 525 -108 q 576 10 564 -65 l 303 675 l 296 697 l 289 697 l 201 79 l 297 60 l 292 0 l 8 0 l 15 60 l 114 79 l 218 821 l 124 840 l 131 900 l 351 900 l 622 232 l 633 200 l 640 200 l 644 232 l 728 821 l 632 840 l 638 900 l 919 900 z "},"Ɲ":{"ha":903,"x_min":-139,"x_max":919,"o":"m 919 900 l 913 840 l 814 821 l 700 0 l 578 0 l 303 675 l 296 697 l 289 697 l 200 53 q 149 -102 188 -37 q 53 -200 110 -167 q -68 -233 -3 -233 q -122 -222 -106 -233 q -139 -178 -139 -210 q -129 -133 -139 -147 q -119 -118 -119 -119 l -18 -118 q 28 -112 8 -118 q 58 -100 49 -107 q 86 -58 75 -86 q 106 21 97 -31 l 218 821 l 124 840 l 131 900 l 351 900 l 624 232 l 633 200 l 640 200 l 643 229 l 728 821 l 632 840 l 638 900 l 919 900 z "},"ǋ":{"ha":1283,"x_min":8,"x_max":1249,"o":"m 8 0 m 15 60 l 114 79 l 218 821 l 124 840 l 131 900 l 351 900 l 629 217 l 633 200 l 640 200 l 642 215 l 728 821 l 632 840 l 638 900 l 919 900 l 913 840 l 814 821 l 700 0 l 578 0 l 300 681 l 296 697 l 289 697 l 201 79 l 297 60 l 292 0 l 8 0 l 15 60 m 1156 803 q 1099 826 1121 803 q 1078 882 1078 849 q 1101 953 1078 922 q 1169 983 1125 983 q 1226 960 1204 983 q 1249 900 1249 938 q 1224 832 1249 861 q 1156 803 1200 803 m 831 -233 q 780 -221 796 -233 q 764 -176 764 -208 q 773 -132 764 -146 q 782 -118 782 -118 l 883 -118 q 933 -113 911 -118 q 960 -103 956 -108 q 1007 21 994 -56 l 1096 597 l 989 621 l 989 683 l 1217 710 l 1217 599 l 1136 53 q 1032 -158 1117 -82 q 831 -233 947 -233 z "},"Ñ":{"ha":903,"x_min":8,"x_max":919,"o":"m 371 1088 q 453 1139 411 1139 q 554 1114 488 1139 l 663 1076 l 774 1129 l 808 1090 l 751 1019 q 671 968 710 968 q 568 994 639 968 l 461 1032 l 349 979 l 314 1018 l 371 1088 m 15 60 l 114 79 l 218 821 l 124 840 l 131 900 l 351 900 l 629 217 l 633 200 l 640 200 l 642 215 l 728 821 l 632 840 l 638 900 l 919 900 l 913 840 l 814 821 l 700 0 l 578 0 l 300 681 l 296 697 l 289 697 l 201 79 l 297 60 l 292 0 l 8 0 l 15 60 z "},"O":{"ha":904,"x_min":56,"x_max":850,"o":"m 385 -15 q 144 79 232 -15 q 56 344 56 174 q 112 636 56 506 q 271 842 168 767 q 508 917 374 917 q 764 820 678 917 q 850 558 850 724 q 798 269 850 400 q 641 62 746 139 q 385 -15 536 -15 m 421 61 q 634 186 569 61 q 699 553 699 311 q 647 774 699 708 q 482 840 596 840 q 272 719 339 840 q 206 365 206 597 q 255 131 206 201 q 421 61 304 61 z "},"Ó":{"ha":904,"x_min":56,"x_max":850,"o":"m 639 1181 q 674 1149 660 1169 q 688 1104 688 1129 q 672 1065 688 1081 q 619 1036 656 1050 l 428 961 l 397 1014 l 639 1181 m 385 -15 q 144 79 232 -15 q 56 344 56 174 q 112 636 56 506 q 271 842 168 767 q 508 917 374 917 q 764 820 678 917 q 850 558 850 724 q 798 269 850 400 q 641 62 746 139 q 385 -15 536 -15 m 421 61 q 634 186 569 61 q 699 553 699 311 q 647 774 699 708 q 482 840 596 840 q 272 719 339 840 q 206 365 206 597 q 255 131 206 201 q 421 61 304 61 z "},"Ŏ":{"ha":904,"x_min":56,"x_max":850,"o":"m 56 0 m 385 -15 q 144 79 232 -15 q 56 344 56 174 q 112 636 56 506 q 271 842 168 767 q 508 917 374 917 q 764 820 678 917 q 850 558 850 724 q 798 269 850 400 q 641 62 746 139 q 385 -15 536 -15 m 421 61 q 634 186 569 61 q 699 553 699 311 q 647 774 699 708 q 482 840 596 840 q 272 719 339 840 q 206 365 206 597 q 255 131 206 201 q 421 61 304 61 m 746 1126 q 656 1019 719 1079 q 492 958 592 958 q 403 978 443 958 q 342 1028 364 999 q 319 1088 319 1058 q 341 1122 319 1106 q 394 1151 363 1139 q 438 1088 413 1117 q 513 1060 464 1060 q 713 1156 617 1060 l 746 1126 z "},"Ǒ":{"ha":904,"x_min":56,"x_max":850,"o":"m 56 0 m 385 -15 q 144 79 232 -15 q 56 344 56 174 q 112 636 56 506 q 271 842 168 767 q 508 917 374 917 q 764 820 678 917 q 850 558 850 724 q 798 269 850 400 q 641 62 746 139 q 385 -15 536 -15 m 421 61 q 634 186 569 61 q 699 553 699 311 q 647 774 699 708 q 482 840 596 840 q 272 719 339 840 q 206 365 206 597 q 255 131 206 201 q 421 61 304 61 m 515 951 q 435 1014 497 951 l 342 1104 l 392 1161 l 535 1069 l 685 1164 l 721 1115 l 619 1025 q 515 951 539 951 z "},"Ô":{"ha":904,"x_min":56,"x_max":850,"o":"m 450 1106 q 526 1165 507 1151 q 554 1178 544 1178 q 639 1114 571 1176 l 733 1028 l 685 968 l 535 1058 l 379 975 l 343 1024 l 450 1106 m 385 -15 q 144 79 232 -15 q 56 344 56 174 q 112 636 56 506 q 271 842 168 767 q 508 917 374 917 q 764 820 678 917 q 850 558 850 724 q 798 269 850 400 q 641 62 746 139 q 385 -15 536 -15 m 421 61 q 634 186 569 61 q 699 553 699 311 q 647 774 699 708 q 482 840 596 840 q 272 719 339 840 q 206 365 206 597 q 255 131 206 201 q 421 61 304 61 z "},"Ố":{"ha":904,"x_min":56,"x_max":881,"o":"m 56 0 m 385 -15 q 144 79 232 -15 q 56 344 56 174 q 112 636 56 506 q 271 842 168 767 q 508 917 374 917 q 764 820 678 917 q 850 558 850 724 q 798 269 850 400 q 641 62 746 139 q 385 -15 536 -15 m 421 61 q 634 186 569 61 q 699 553 699 311 q 647 774 699 708 q 482 840 596 840 q 272 719 339 840 q 206 365 206 597 q 255 131 206 201 q 421 61 304 61 m 432 1088 l 458 1108 q 508 1146 489 1132 q 536 1160 528 1160 q 583 1131 549 1160 q 621 1097 617 1101 l 715 1011 l 667 951 l 517 1042 l 360 957 l 325 1006 l 432 1088 m 590 1182 l 832 1347 q 867 1316 853 1336 q 881 1272 881 1296 q 865 1233 881 1249 q 813 1203 849 1218 l 621 1128 l 590 1182 z "},"Ộ":{"ha":904,"x_min":56,"x_max":850,"o":"m 56 0 m 385 -15 q 144 79 232 -15 q 56 344 56 174 q 112 636 56 506 q 271 842 168 767 q 508 917 374 917 q 764 820 678 917 q 850 558 850 724 q 798 269 850 400 q 641 62 746 139 q 385 -15 536 -15 m 421 61 q 634 186 569 61 q 699 553 699 311 q 647 774 699 708 q 482 840 596 840 q 272 719 339 840 q 206 365 206 597 q 255 131 206 201 q 421 61 304 61 m 376 -242 q 319 -219 340 -242 q 297 -162 297 -197 q 322 -92 297 -124 q 389 -61 346 -61 q 447 -84 424 -61 q 469 -144 469 -107 q 445 -212 469 -183 q 376 -242 421 -242 m 443 1088 l 469 1108 q 519 1146 500 1132 q 547 1160 539 1160 q 594 1131 560 1160 q 632 1097 628 1101 l 726 1011 l 678 951 l 528 1042 l 371 957 l 336 1006 l 443 1088 z "},"Ồ":{"ha":904,"x_min":56,"x_max":850,"o":"m 56 0 m 385 -15 q 144 79 232 -15 q 56 344 56 174 q 112 636 56 506 q 271 842 168 767 q 508 917 374 917 q 764 820 678 917 q 850 558 850 724 q 798 269 850 400 q 641 62 746 139 q 385 -15 536 -15 m 421 61 q 634 186 569 61 q 699 553 699 311 q 647 774 699 708 q 482 840 596 840 q 272 719 339 840 q 206 365 206 597 q 255 131 206 201 q 421 61 304 61 m 428 1088 l 454 1108 q 504 1146 485 1132 q 532 1160 524 1160 q 578 1131 544 1160 q 617 1097 613 1101 l 711 1011 l 663 951 l 513 1042 l 356 957 l 321 1006 l 428 1088 m 546 1203 q 494 1233 510 1217 q 479 1271 479 1249 q 492 1316 479 1296 q 528 1347 506 1336 l 769 1182 l 738 1128 l 546 1203 z "},"Ổ":{"ha":904,"x_min":56,"x_max":850,"o":"m 56 0 m 385 -15 q 144 79 232 -15 q 56 344 56 174 q 112 636 56 506 q 271 842 168 767 q 508 917 374 917 q 764 820 678 917 q 850 558 850 724 q 798 269 850 400 q 641 62 746 139 q 385 -15 536 -15 m 421 61 q 634 186 569 61 q 699 553 699 311 q 647 774 699 708 q 482 840 596 840 q 272 719 339 840 q 206 365 206 597 q 255 131 206 201 q 421 61 304 61 m 406 1088 l 432 1108 q 482 1146 463 1132 q 510 1160 501 1160 q 556 1131 522 1160 q 594 1097 590 1101 l 689 1011 l 640 951 l 490 1042 l 333 957 l 299 1006 l 406 1088 m 628 1107 q 622 1131 622 1124 q 635 1160 622 1147 q 683 1185 649 1172 q 735 1231 735 1206 q 720 1250 735 1243 q 676 1257 706 1257 q 589 1246 636 1257 q 578 1288 578 1268 q 601 1322 578 1308 q 676 1336 624 1336 q 799 1313 754 1336 q 844 1249 844 1290 q 817 1186 844 1213 q 746 1146 790 1160 q 715 1131 722 1138 q 707 1110 708 1124 l 628 1107 z "},"Ỗ":{"ha":904,"x_min":56,"x_max":850,"o":"m 354 1304 q 436 1353 394 1353 q 538 1329 475 1353 l 646 1294 l 757 1344 l 792 1307 l 735 1240 q 654 1192 692 1192 q 606 1200 635 1192 q 551 1217 578 1208 l 444 1253 l 332 1203 l 297 1239 l 354 1304 m 432 1088 l 458 1108 q 508 1146 489 1132 q 536 1160 528 1160 q 583 1131 549 1160 q 621 1097 617 1101 l 715 1011 l 667 951 l 517 1042 l 360 957 l 325 1006 l 432 1088 m 385 -15 q 144 79 232 -15 q 56 344 56 174 q 112 636 56 506 q 271 842 168 767 q 508 917 374 917 q 764 820 678 917 q 850 558 850 724 q 798 269 850 400 q 641 62 746 139 q 385 -15 536 -15 m 421 61 q 634 186 569 61 q 699 553 699 311 q 647 774 699 708 q 482 840 596 840 q 272 719 339 840 q 206 365 206 597 q 255 131 206 201 q 421 61 304 61 z "},"Ȍ":{"ha":904,"x_min":56,"x_max":850,"o":"m 56 0 m 385 -15 q 144 79 232 -15 q 56 344 56 174 q 112 636 56 506 q 271 842 168 767 q 508 917 374 917 q 764 820 678 917 q 850 558 850 724 q 798 269 850 400 q 641 62 746 139 q 385 -15 536 -15 m 421 61 q 634 186 569 61 q 699 553 699 311 q 647 774 699 708 q 482 840 596 840 q 272 719 339 840 q 206 365 206 597 q 255 131 206 201 q 421 61 304 61 m 310 1011 q 265 1088 265 1056 q 296 1139 265 1117 q 363 1165 326 1161 l 447 972 l 393 935 l 310 1011 m 538 1011 q 493 1088 493 1056 q 524 1139 493 1117 q 590 1165 554 1161 l 674 972 l 621 935 l 538 1011 z "},"Ö":{"ha":904,"x_min":56,"x_max":850,"o":"m 390 978 q 336 1001 357 978 q 315 1058 315 1024 q 338 1123 315 1096 q 399 1150 361 1150 q 454 1128 433 1150 q 475 1071 475 1107 q 452 1005 475 1032 q 390 978 429 978 m 689 978 q 634 1001 656 978 q 613 1058 613 1024 q 636 1123 613 1096 q 697 1150 660 1150 q 752 1128 731 1150 q 774 1071 774 1107 q 751 1005 774 1032 q 689 978 728 978 m 385 -15 q 144 79 232 -15 q 56 344 56 174 q 112 636 56 506 q 271 842 168 767 q 508 917 374 917 q 764 820 678 917 q 850 558 850 724 q 798 269 850 400 q 641 62 746 139 q 385 -15 536 -15 m 421 61 q 634 186 569 61 q 699 553 699 311 q 647 774 699 708 q 482 840 596 840 q 272 719 339 840 q 206 365 206 597 q 255 131 206 201 q 421 61 304 61 z "},"Ọ":{"ha":904,"x_min":56,"x_max":850,"o":"m 56 0 m 385 -15 q 144 79 232 -15 q 56 344 56 174 q 112 636 56 506 q 271 842 168 767 q 508 917 374 917 q 764 820 678 917 q 850 558 850 724 q 798 269 850 400 q 641 62 746 139 q 385 -15 536 -15 m 421 61 q 634 186 569 61 q 699 553 699 311 q 647 774 699 708 q 482 840 596 840 q 272 719 339 840 q 206 365 206 597 q 255 131 206 201 q 421 61 304 61 m 376 -242 q 319 -219 340 -242 q 297 -162 297 -197 q 322 -92 297 -124 q 389 -61 346 -61 q 447 -84 424 -61 q 469 -144 469 -107 q 445 -212 469 -183 q 376 -242 421 -242 z "},"Ò":{"ha":904,"x_min":56,"x_max":850,"o":"m 436 1036 q 385 1065 400 1050 q 369 1104 369 1081 q 383 1149 369 1129 q 418 1181 396 1169 l 660 1014 l 628 961 l 436 1036 m 385 -15 q 144 79 232 -15 q 56 344 56 174 q 112 636 56 506 q 271 842 168 767 q 508 917 374 917 q 764 820 678 917 q 850 558 850 724 q 798 269 850 400 q 641 62 746 139 q 385 -15 536 -15 m 421 61 q 634 186 569 61 q 699 553 699 311 q 647 774 699 708 q 482 840 596 840 q 272 719 339 840 q 206 365 206 597 q 255 131 206 201 q 421 61 304 61 z "},"Ỏ":{"ha":904,"x_min":56,"x_max":850,"o":"m 56 0 m 385 -15 q 144 79 232 -15 q 56 344 56 174 q 112 636 56 506 q 271 842 168 767 q 508 917 374 917 q 764 820 678 917 q 850 558 850 724 q 798 269 850 400 q 641 62 746 139 q 385 -15 536 -15 m 421 61 q 634 186 569 61 q 699 553 699 311 q 647 774 699 708 q 482 840 596 840 q 272 719 339 840 q 206 365 206 597 q 255 131 206 201 q 421 61 304 61 m 479 939 q 474 963 474 956 q 487 992 474 979 q 535 1017 500 1004 q 586 1063 586 1038 q 572 1082 586 1075 q 528 1089 557 1089 q 440 1078 488 1089 q 429 1119 429 1100 q 452 1154 429 1140 q 528 1168 475 1168 q 651 1145 606 1168 q 696 1081 696 1122 q 669 1018 696 1044 q 597 978 642 992 q 567 963 574 969 q 558 942 560 956 l 479 939 z "},"Ơ":{"ha":904,"x_min":56,"x_max":1060,"o":"m 1060 914 q 1008 802 1060 864 q 838 671 957 740 q 850 558 850 619 q 798 269 850 400 q 641 62 746 139 q 385 -15 536 -15 q 144 79 232 -15 q 56 344 56 174 q 112 636 56 506 q 271 842 168 767 q 508 917 374 917 q 712 864 632 917 q 826 714 792 811 q 957 876 957 801 q 951 901 957 892 q 931 921 944 911 l 931 942 l 1015 1000 q 1048 967 1036 983 q 1060 914 1060 950 m 421 61 q 634 186 569 61 q 699 553 699 311 q 647 774 699 708 q 482 840 596 840 q 272 719 339 840 q 206 365 206 597 q 255 131 206 201 q 421 61 304 61 z "},"Ớ":{"ha":904,"x_min":56,"x_max":1060,"o":"m 56 0 m 1060 914 q 1008 802 1060 864 q 838 671 957 740 q 850 558 850 619 q 798 269 850 400 q 641 62 746 139 q 385 -15 536 -15 q 144 79 232 -15 q 56 344 56 174 q 112 636 56 506 q 271 842 168 767 q 508 917 374 917 q 712 864 632 917 q 826 714 792 811 q 957 876 957 801 q 951 901 957 892 q 931 921 944 911 l 931 942 l 1015 1000 q 1048 967 1036 983 q 1060 914 1060 950 m 421 61 q 634 186 569 61 q 699 553 699 311 q 647 774 699 708 q 482 840 596 840 q 272 719 339 840 q 206 365 206 597 q 255 131 206 201 q 421 61 304 61 m 446 997 l 688 1163 q 722 1131 708 1151 q 736 1088 736 1111 q 720 1049 736 1064 q 668 1018 704 1033 l 476 943 l 446 997 z "},"Ợ":{"ha":904,"x_min":56,"x_max":1060,"o":"m 56 0 m 1060 914 q 1008 802 1060 864 q 838 671 957 740 q 850 558 850 619 q 798 269 850 400 q 641 62 746 139 q 385 -15 536 -15 q 144 79 232 -15 q 56 344 56 174 q 112 636 56 506 q 271 842 168 767 q 508 917 374 917 q 712 864 632 917 q 826 714 792 811 q 957 876 957 801 q 951 901 957 892 q 931 921 944 911 l 931 942 l 1015 1000 q 1048 967 1036 983 q 1060 914 1060 950 m 421 61 q 634 186 569 61 q 699 553 699 311 q 647 774 699 708 q 482 840 596 840 q 272 719 339 840 q 206 365 206 597 q 255 131 206 201 q 421 61 304 61 m 376 -242 q 319 -219 340 -242 q 297 -162 297 -197 q 322 -92 297 -124 q 389 -61 346 -61 q 447 -84 424 -61 q 469 -144 469 -107 q 445 -212 469 -183 q 376 -242 421 -242 z "},"Ờ":{"ha":904,"x_min":56,"x_max":1060,"o":"m 56 0 m 1060 914 q 1008 802 1060 864 q 838 671 957 740 q 850 558 850 619 q 798 269 850 400 q 641 62 746 139 q 385 -15 536 -15 q 144 79 232 -15 q 56 344 56 174 q 112 636 56 506 q 271 842 168 767 q 508 917 374 917 q 712 864 632 917 q 826 714 792 811 q 957 876 957 801 q 951 901 957 892 q 931 921 944 911 l 931 942 l 1015 1000 q 1048 967 1036 983 q 1060 914 1060 950 m 421 61 q 634 186 569 61 q 699 553 699 311 q 647 774 699 708 q 482 840 596 840 q 272 719 339 840 q 206 365 206 597 q 255 131 206 201 q 421 61 304 61 m 393 1018 q 342 1048 357 1032 q 326 1086 326 1064 q 340 1131 326 1111 q 375 1163 353 1151 l 617 997 l 585 943 l 393 1018 z "},"Ở":{"ha":904,"x_min":56,"x_max":1060,"o":"m 56 0 m 1060 914 q 1008 802 1060 864 q 838 671 957 740 q 850 558 850 619 q 798 269 850 400 q 641 62 746 139 q 385 -15 536 -15 q 144 79 232 -15 q 56 344 56 174 q 112 636 56 506 q 271 842 168 767 q 508 917 374 917 q 712 864 632 917 q 826 714 792 811 q 957 876 957 801 q 951 901 957 892 q 931 921 944 911 l 931 942 l 1015 1000 q 1048 967 1036 983 q 1060 914 1060 950 m 421 61 q 634 186 569 61 q 699 553 699 311 q 647 774 699 708 q 482 840 596 840 q 272 719 339 840 q 206 365 206 597 q 255 131 206 201 q 421 61 304 61 m 479 939 q 474 963 474 956 q 487 992 474 979 q 535 1017 500 1004 q 586 1063 586 1038 q 572 1082 586 1075 q 528 1089 557 1089 q 440 1078 488 1089 q 429 1119 429 1100 q 452 1154 429 1140 q 528 1168 475 1168 q 651 1145 606 1168 q 696 1081 696 1122 q 669 1018 696 1044 q 597 978 642 992 q 567 963 574 969 q 558 942 560 956 l 479 939 z "},"Ỡ":{"ha":904,"x_min":56,"x_max":1060,"o":"m 56 0 m 1060 914 q 1008 802 1060 864 q 838 671 957 740 q 850 558 850 619 q 798 269 850 400 q 641 62 746 139 q 385 -15 536 -15 q 144 79 232 -15 q 56 344 56 174 q 112 636 56 506 q 271 842 168 767 q 508 917 374 917 q 712 864 632 917 q 826 714 792 811 q 957 876 957 801 q 951 901 957 892 q 931 921 944 911 l 931 942 l 1015 1000 q 1048 967 1036 983 q 1060 914 1060 950 m 421 61 q 634 186 569 61 q 699 553 699 311 q 647 774 699 708 q 482 840 596 840 q 272 719 339 840 q 206 365 206 597 q 255 131 206 201 q 421 61 304 61 m 340 1088 q 422 1139 381 1139 q 524 1114 457 1139 l 632 1076 l 743 1129 l 778 1090 l 721 1019 q 640 968 679 968 q 538 994 608 968 l 431 1032 l 318 979 l 283 1018 l 340 1088 z "},"Ő":{"ha":904,"x_min":56,"x_max":850,"o":"m 319 972 l 457 1165 q 513 1141 493 1160 q 533 1099 533 1122 q 512 1055 532 1079 q 467 1011 492 1031 l 363 935 l 319 972 m 546 972 l 683 1165 q 740 1141 719 1160 q 761 1099 761 1122 q 740 1055 760 1079 q 694 1011 719 1031 l 589 935 l 546 972 m 385 -15 q 144 79 232 -15 q 56 344 56 174 q 112 636 56 506 q 271 842 168 767 q 508 917 374 917 q 764 820 678 917 q 850 558 850 724 q 798 269 850 400 q 641 62 746 139 q 385 -15 536 -15 m 421 61 q 634 186 569 61 q 699 553 699 311 q 647 774 699 708 q 482 840 596 840 q 272 719 339 840 q 206 365 206 597 q 255 131 206 201 q 421 61 304 61 z "},"Ȏ":{"ha":904,"x_min":56,"x_max":850,"o":"m 56 0 m 385 -15 q 144 79 232 -15 q 56 344 56 174 q 112 636 56 506 q 271 842 168 767 q 508 917 374 917 q 764 820 678 917 q 850 558 850 724 q 798 269 850 400 q 641 62 746 139 q 385 -15 536 -15 m 421 61 q 634 186 569 61 q 699 553 699 311 q 647 774 699 708 q 482 840 596 840 q 272 719 339 840 q 206 365 206 597 q 255 131 206 201 q 421 61 304 61 m 319 988 q 413 1097 350 1039 q 575 1156 475 1156 q 663 1135 624 1156 q 724 1085 701 1115 q 746 1026 746 1056 q 724 992 746 1010 q 672 963 703 975 q 628 1026 654 997 q 554 1054 603 1054 q 434 1022 485 1054 q 354 958 383 990 l 319 988 z "},"Ō":{"ha":904,"x_min":56,"x_max":850,"o":"m 329 1093 l 749 1093 l 738 997 l 318 997 l 329 1093 m 385 -15 q 144 79 232 -15 q 56 344 56 174 q 112 636 56 506 q 271 842 168 767 q 508 917 374 917 q 764 820 678 917 q 850 558 850 724 q 798 269 850 400 q 641 62 746 139 q 385 -15 536 -15 m 421 61 q 634 186 569 61 q 699 553 699 311 q 647 774 699 708 q 482 840 596 840 q 272 719 339 840 q 206 365 206 597 q 255 131 206 201 q 421 61 304 61 z "},"Ǫ":{"ha":904,"x_min":56,"x_max":850,"o":"m 567 19 q 501 -31 539 7 q 463 -118 463 -68 q 518 -172 463 -172 q 594 -144 549 -172 l 619 -182 q 598 -201 619 -183 q 544 -235 576 -219 q 472 -250 511 -250 q 360 -160 360 -250 q 384 -78 360 -117 q 449 -11 408 -40 q 385 -15 419 -15 q 144 79 232 -15 q 56 344 56 174 q 112 636 56 506 q 271 842 168 767 q 508 917 374 917 q 764 820 678 917 q 850 558 850 724 q 778 224 850 369 q 567 19 706 79 m 206 365 q 255 131 206 201 q 421 61 304 61 q 634 186 569 61 q 699 553 699 311 q 647 774 699 708 q 482 840 596 840 q 272 719 339 840 q 206 365 206 597 z "},"Ø":{"ha":904,"x_min":56,"x_max":850,"o":"m 160 -93 l 214 25 q 97 147 138 65 q 56 344 56 229 q 112 636 56 506 q 271 842 168 767 q 508 917 374 917 q 618 903 571 917 l 671 1019 l 743 983 l 693 875 q 810 749 771 831 q 850 558 850 668 q 798 269 850 400 q 641 62 746 139 q 385 -15 536 -15 q 292 -4 339 -15 l 236 -129 l 160 -93 m 581 824 q 482 840 533 840 q 274 719 340 840 q 206 365 208 599 q 219 222 206 279 q 261 129 232 164 l 581 824 m 421 61 q 634 186 569 61 q 699 553 699 311 q 646 772 699 710 l 328 76 q 421 61 371 61 z "},"Ǿ":{"ha":904,"x_min":56,"x_max":850,"o":"m 56 0 m 160 -93 l 214 25 q 97 147 138 65 q 56 344 56 229 q 112 636 56 506 q 271 842 168 767 q 508 917 374 917 q 618 903 571 917 l 671 1019 l 743 983 l 693 875 q 810 749 771 831 q 850 558 850 668 q 798 269 850 400 q 641 62 746 139 q 385 -15 536 -15 q 292 -4 339 -15 l 236 -129 l 160 -93 m 581 824 q 482 840 533 840 q 274 719 340 840 q 206 365 208 599 q 219 222 206 279 q 261 129 232 164 l 581 824 m 421 61 q 634 186 569 61 q 699 553 699 311 q 646 772 699 710 l 328 76 q 421 61 371 61 m 353 997 l 594 1163 q 629 1131 615 1151 q 643 1088 643 1111 q 627 1049 643 1064 q 575 1018 611 1033 l 383 943 l 353 997 z "},"Õ":{"ha":904,"x_min":56,"x_max":850,"o":"m 351 1106 q 432 1157 393 1157 q 494 1145 458 1157 q 535 1132 529 1133 l 642 1094 l 754 1146 l 789 1107 l 732 1038 q 690 999 710 1013 q 650 986 671 986 q 603 994 631 986 q 549 1011 575 1003 l 440 1049 l 329 997 l 294 1036 l 351 1106 m 385 -15 q 144 79 232 -15 q 56 344 56 174 q 112 636 56 506 q 271 842 168 767 q 508 917 374 917 q 764 820 678 917 q 850 558 850 724 q 798 269 850 400 q 641 62 746 139 q 385 -15 536 -15 m 421 61 q 634 186 569 61 q 699 553 699 311 q 647 774 699 708 q 482 840 596 840 q 272 719 339 840 q 206 365 206 597 q 255 131 206 201 q 421 61 304 61 z "},"Œ":{"ha":1093,"x_min":43,"x_max":1089,"o":"m 369 0 q 129 88 215 0 q 43 344 43 175 q 100 624 43 497 q 262 826 157 751 q 504 900 367 900 l 1089 900 l 1057 672 l 982 672 l 982 826 l 839 826 l 738 819 l 692 500 l 867 500 l 896 585 l 956 585 l 925 346 l 865 346 l 860 431 l 682 431 l 632 81 q 756 72 699 74 l 893 72 l 947 222 l 1014 222 l 986 0 l 369 0 m 411 74 q 500 79 465 74 l 603 818 q 482 831 550 831 q 268 712 340 831 q 193 365 196 593 q 240 147 193 219 q 411 74 288 74 z "},"P":{"ha":713,"x_min":10,"x_max":721,"o":"m 18 60 l 117 79 l 221 821 l 126 840 l 133 900 l 432 900 q 721 675 721 900 q 628 453 721 536 q 357 369 535 371 l 338 369 l 338 422 q 523 491 469 426 q 576 664 576 556 q 537 789 576 753 q 414 825 497 825 q 354 819 376 825 l 250 79 l 365 60 l 360 0 l 10 0 l 18 60 z "},"Þ":{"ha":688,"x_min":8,"x_max":676,"o":"m 17 60 l 115 79 l 219 821 l 124 840 l 131 900 l 457 900 l 450 840 l 351 821 l 335 706 l 410 706 q 607 655 538 706 q 676 497 676 604 q 588 288 676 361 q 349 214 499 214 q 267 219 293 214 l 247 79 l 343 60 l 336 0 l 8 0 l 17 60 m 328 276 q 485 328 438 276 q 533 482 533 381 q 496 599 533 568 q 386 631 458 631 q 324 625 347 631 l 275 283 q 328 276 300 276 z "},"Q":{"ha":904,"x_min":56,"x_max":850,"o":"m 364 -15 q 138 85 219 -8 q 56 344 56 179 q 112 636 56 506 q 271 842 168 767 q 508 917 374 917 q 764 820 678 917 q 850 558 850 724 q 803 285 850 410 q 664 80 757 160 q 436 -12 571 0 l 386 -67 q 456 -81 410 -69 l 697 -136 l 778 -96 l 810 -129 l 749 -208 q 679 -237 726 -237 q 628 -230 661 -237 q 583 -219 596 -222 l 340 -165 l 264 -200 l 229 -156 l 364 -15 m 421 61 q 634 186 569 61 q 699 553 699 311 q 647 774 699 708 q 482 840 596 840 q 272 719 339 840 q 206 365 206 597 q 255 131 206 201 q 421 61 304 61 z "},"R":{"ha":742,"x_min":10,"x_max":726,"o":"m 18 60 l 117 79 l 221 821 l 126 840 l 133 900 l 461 900 q 639 849 575 900 q 703 699 703 799 q 633 519 701 594 q 446 414 564 444 q 497 366 476 396 q 539 286 518 336 l 625 93 l 726 57 l 721 0 l 569 0 q 528 11 546 0 q 501 44 510 22 l 418 243 q 360 354 383 322 q 293 390 336 386 l 249 76 l 340 57 l 335 0 l 10 0 l 18 60 m 301 458 q 495 517 429 458 q 561 676 561 576 q 532 787 561 749 q 429 825 503 825 q 378 823 399 825 q 354 819 358 821 l 301 458 z "},"Ŕ":{"ha":739,"x_min":8,"x_max":725,"o":"m 319 997 l 561 1163 q 597 1131 583 1151 q 610 1088 610 1111 q 594 1048 610 1064 q 543 1018 579 1032 l 351 943 l 319 997 m 17 60 l 115 79 l 219 821 l 125 840 l 132 900 l 460 900 q 638 849 574 900 q 701 699 701 799 q 631 519 700 594 q 444 414 563 444 q 496 366 475 396 q 539 286 517 336 l 624 93 l 725 57 l 719 0 l 568 0 q 526 11 544 0 q 500 44 508 22 l 417 243 q 378 327 392 300 q 343 371 364 354 q 292 390 322 388 l 247 76 l 339 57 l 333 0 l 8 0 l 17 60 m 300 458 q 494 517 428 458 q 560 676 560 576 q 531 787 560 749 q 428 825 501 825 q 376 823 396 825 q 353 819 357 821 l 300 458 z "},"Ř":{"ha":739,"x_min":8,"x_max":725,"o":"m 429 951 q 383 981 414 951 q 347 1014 351 1010 l 254 1104 l 306 1161 l 447 1069 l 599 1164 l 633 1115 l 532 1025 q 429 951 453 951 m 17 60 l 115 79 l 219 821 l 125 840 l 132 900 l 460 900 q 638 849 574 900 q 701 699 701 799 q 631 519 700 594 q 444 414 563 444 q 496 366 475 396 q 539 286 517 336 l 624 93 l 725 57 l 719 0 l 568 0 q 526 11 544 0 q 500 44 508 22 l 417 243 q 378 327 392 300 q 343 371 364 354 q 292 390 322 388 l 247 76 l 339 57 l 333 0 l 8 0 l 17 60 m 300 458 q 494 517 428 458 q 560 676 560 576 q 531 787 560 749 q 428 825 501 825 q 376 823 396 825 q 353 819 357 821 l 300 458 z "},"Ŗ":{"ha":739,"x_min":8,"x_max":725,"o":"m 17 60 l 115 79 l 219 821 l 125 840 l 132 900 l 460 900 q 638 849 574 900 q 701 699 701 799 q 631 519 700 594 q 444 414 563 444 q 496 366 475 396 q 539 286 517 336 l 624 93 l 725 57 l 719 0 l 568 0 q 526 11 544 0 q 500 44 508 22 l 417 243 q 378 327 392 300 q 343 371 364 354 q 292 390 322 388 l 247 76 l 339 57 l 333 0 l 8 0 l 17 60 m 300 458 q 494 517 428 458 q 560 676 560 576 q 531 787 560 749 q 428 825 501 825 q 376 823 396 825 q 353 819 357 821 l 300 458 m 283 -257 q 300 -239 288 -253 q 324 -202 313 -225 q 335 -154 335 -179 q 303 -78 335 -110 q 369 -42 328 -42 q 425 -62 404 -42 q 446 -124 446 -83 q 397 -225 446 -183 q 310 -285 349 -267 l 283 -257 z "},"Ȑ":{"ha":742,"x_min":10,"x_max":726,"o":"m 10 0 m 18 60 l 117 79 l 221 821 l 126 840 l 133 900 l 461 900 q 639 849 575 900 q 703 699 703 799 q 633 519 701 594 q 446 414 564 444 q 497 366 476 396 q 539 286 518 336 l 625 93 l 726 57 l 721 0 l 569 0 q 528 11 546 0 q 501 44 510 22 l 418 243 q 360 354 383 322 q 293 390 336 386 l 249 76 l 340 57 l 335 0 l 10 0 l 18 60 m 301 458 q 495 517 429 458 q 561 676 561 576 q 532 787 561 749 q 429 825 503 825 q 378 823 399 825 q 354 819 358 821 l 301 458 m 249 1011 q 204 1088 204 1056 q 235 1139 204 1117 q 301 1165 265 1161 l 386 972 l 332 935 l 249 1011 m 476 1011 q 432 1088 432 1056 q 463 1139 432 1117 q 529 1165 493 1161 l 613 972 l 560 935 l 476 1011 z "},"Ṛ":{"ha":742,"x_min":10,"x_max":726,"o":"m 10 0 m 18 60 l 117 79 l 221 821 l 126 840 l 133 900 l 461 900 q 639 849 575 900 q 703 699 703 799 q 633 519 701 594 q 446 414 564 444 q 497 366 476 396 q 539 286 518 336 l 625 93 l 726 57 l 721 0 l 569 0 q 528 11 546 0 q 501 44 510 22 l 418 243 q 360 354 383 322 q 293 390 336 386 l 249 76 l 340 57 l 335 0 l 10 0 l 18 60 m 301 458 q 495 517 429 458 q 561 676 561 576 q 532 787 561 749 q 429 825 503 825 q 378 823 399 825 q 354 819 358 821 l 301 458 m 347 -242 q 290 -219 311 -242 q 268 -162 268 -197 q 292 -92 268 -124 q 360 -61 317 -61 q 417 -84 394 -61 q 440 -144 440 -107 q 416 -212 440 -183 q 347 -242 392 -242 z "},"Ȓ":{"ha":742,"x_min":10,"x_max":726,"o":"m 10 0 m 18 60 l 117 79 l 221 821 l 126 840 l 133 900 l 461 900 q 639 849 575 900 q 703 699 703 799 q 633 519 701 594 q 446 414 564 444 q 497 366 476 396 q 539 286 518 336 l 625 93 l 726 57 l 721 0 l 569 0 q 528 11 546 0 q 501 44 510 22 l 418 243 q 360 354 383 322 q 293 390 336 386 l 249 76 l 340 57 l 335 0 l 10 0 l 18 60 m 301 458 q 495 517 429 458 q 561 676 561 576 q 532 787 561 749 q 429 825 503 825 q 378 823 399 825 q 354 819 358 821 l 301 458 m 258 988 q 351 1097 289 1039 q 514 1156 414 1156 q 601 1135 563 1156 q 663 1085 640 1115 q 685 1026 685 1056 q 663 992 685 1010 q 611 963 642 975 q 567 1026 593 997 q 493 1054 542 1054 q 373 1022 424 1054 q 293 958 322 990 l 258 988 z "},"S":{"ha":624,"x_min":7,"x_max":606,"o":"m 238 -15 q 99 6 165 -15 q 7 50 32 28 l 31 261 l 107 261 l 122 103 q 178 74 140 85 q 257 63 215 63 q 388 100 346 63 q 429 203 429 138 q 397 297 429 254 q 290 403 365 340 q 180 501 217 465 q 118 581 143 538 q 93 676 93 625 q 172 854 93 792 q 386 917 250 917 q 509 907 449 917 q 606 885 569 897 l 582 664 l 511 664 l 499 810 q 433 832 474 824 q 357 840 393 840 q 215 728 215 840 q 252 639 215 682 q 372 525 289 596 q 506 392 460 450 q 551 263 551 333 q 467 59 551 133 q 238 -15 382 -15 z "},"Ś":{"ha":624,"x_min":7,"x_max":606,"o":"m 275 996 l 517 1161 q 551 1131 538 1151 q 565 1086 565 1110 q 550 1047 565 1063 q 497 1018 535 1032 l 306 942 l 275 996 m 238 -15 q 99 6 165 -15 q 7 50 32 28 l 31 261 l 107 261 l 122 103 q 139 91 122 101 q 185 72 156 81 q 257 63 215 63 q 388 100 346 63 q 429 203 429 138 q 397 297 429 254 q 289 406 365 340 q 179 503 217 467 q 117 582 142 539 q 93 676 93 625 q 172 854 93 792 q 386 917 250 917 q 509 907 449 917 q 606 885 569 897 l 582 664 l 511 664 l 499 810 q 446 829 486 818 q 357 840 406 840 q 215 728 215 840 q 251 639 215 681 q 376 521 288 597 q 507 389 463 446 q 551 263 551 332 q 467 59 551 133 q 238 -15 382 -15 z "},"Ꞌ":{"ha":182,"x_min":43,"x_max":229,"o":"m 43 492 m 100 896 q 178 915 147 915 q 229 876 229 915 q 188 721 229 839 l 106 492 l 43 492 l 100 896 z "},"Š":{"ha":624,"x_min":7,"x_max":606,"o":"m 399 951 q 318 1015 382 951 l 225 1106 l 275 1163 l 418 1069 l 568 1164 l 603 1117 l 503 1026 q 399 951 421 951 m 238 -15 q 99 6 165 -15 q 7 50 32 28 l 31 261 l 107 261 l 122 103 q 178 74 140 85 q 257 63 215 63 q 388 100 346 63 q 429 203 429 138 q 395 300 429 256 q 281 411 361 344 q 176 506 213 469 q 117 584 140 542 q 93 676 93 626 q 172 854 93 792 q 386 917 250 917 q 509 907 449 917 q 606 885 569 897 l 582 664 l 511 664 l 499 810 q 433 832 474 824 q 357 840 393 840 q 215 728 215 840 q 251 640 215 683 q 361 535 286 597 q 462 442 425 479 q 525 360 499 406 q 551 263 551 314 q 467 59 551 133 q 238 -15 382 -15 z "},"Ş":{"ha":624,"x_min":7,"x_max":606,"o":"m 225 -262 q 94 -224 150 -262 l 125 -175 q 163 -192 143 -186 q 215 -197 182 -197 q 265 -169 265 -197 q 233 -135 265 -151 l 163 -99 l 163 -69 l 201 -14 q 84 10 139 -10 q 7 50 29 31 l 31 261 l 107 261 l 122 103 q 139 91 122 101 q 185 72 156 81 q 257 63 215 63 q 388 100 346 63 q 429 203 429 138 q 399 294 429 251 q 297 397 368 336 q 181 500 218 465 q 119 579 144 535 q 93 676 93 624 q 172 854 93 792 q 386 917 250 917 q 509 907 449 917 q 606 885 569 897 l 582 664 l 511 664 l 499 810 q 446 829 486 818 q 357 840 406 840 q 215 728 215 840 q 237 662 215 694 q 288 601 258 629 q 386 514 318 572 q 509 388 467 444 q 551 263 551 331 q 476 69 551 142 q 271 -14 401 -4 l 271 -40 l 318 -68 q 371 -142 371 -99 q 328 -235 371 -208 q 225 -262 286 -262 z "},"Ŝ":{"ha":624,"x_min":7,"x_max":606,"o":"m 7 0 m 238 -15 q 99 6 165 -15 q 7 50 32 28 l 31 261 l 107 261 l 122 103 q 178 74 140 85 q 257 63 215 63 q 388 100 346 63 q 429 203 429 138 q 397 297 429 254 q 290 403 365 340 q 180 501 217 465 q 118 581 143 538 q 93 676 93 625 q 172 854 93 792 q 386 917 250 917 q 509 907 449 917 q 606 885 569 897 l 582 664 l 511 664 l 499 810 q 433 832 474 824 q 357 840 393 840 q 215 728 215 840 q 252 639 215 682 q 372 525 289 596 q 506 392 460 450 q 551 263 551 333 q 467 59 551 133 q 238 -15 382 -15 m 322 1088 l 349 1108 q 399 1146 379 1132 q 426 1160 418 1160 q 473 1131 439 1160 q 511 1097 507 1101 l 606 1011 l 557 951 l 407 1042 l 250 957 l 215 1006 l 322 1088 z "},"Ș":{"ha":624,"x_min":7,"x_max":606,"o":"m 238 -15 q 99 6 165 -15 q 7 50 32 28 l 31 261 l 107 261 l 122 103 q 139 91 122 101 q 185 72 156 81 q 257 63 215 63 q 388 100 346 63 q 429 203 429 138 q 398 296 429 254 q 293 400 367 338 l 271 419 q 173 509 208 474 q 115 586 138 544 q 93 676 93 628 q 172 854 93 792 q 386 917 250 917 q 509 907 449 917 q 606 885 569 897 l 582 664 l 511 664 l 499 810 q 446 829 486 818 q 357 840 406 840 q 215 728 215 840 q 253 638 215 681 q 379 519 290 596 q 508 388 464 444 q 551 263 551 331 q 467 59 551 133 q 238 -15 382 -15 m 144 -257 q 160 -239 149 -253 q 183 -202 172 -225 q 194 -154 194 -179 q 164 -78 194 -108 q 190 -53 172 -64 q 231 -42 207 -42 q 285 -62 265 -42 q 306 -124 306 -83 q 257 -226 306 -183 q 171 -285 208 -268 l 144 -257 z "},"Ṣ":{"ha":624,"x_min":7,"x_max":606,"o":"m 7 0 m 238 -15 q 99 6 165 -15 q 7 50 32 28 l 31 261 l 107 261 l 122 103 q 178 74 140 85 q 257 63 215 63 q 388 100 346 63 q 429 203 429 138 q 397 297 429 254 q 290 403 365 340 q 180 501 217 465 q 118 581 143 538 q 93 676 93 625 q 172 854 93 792 q 386 917 250 917 q 509 907 449 917 q 606 885 569 897 l 582 664 l 511 664 l 499 810 q 433 832 474 824 q 357 840 393 840 q 215 728 215 840 q 252 639 215 682 q 372 525 289 596 q 506 392 460 450 q 551 263 551 333 q 467 59 551 133 q 238 -15 382 -15 m 243 -242 q 185 -219 207 -242 q 164 -162 164 -197 q 188 -92 164 -124 q 256 -61 213 -61 q 313 -84 290 -61 q 336 -144 336 -107 q 312 -212 336 -183 q 243 -242 288 -242 z "},"ẞ":{"ha":946,"x_min":-40,"x_max":893,"o":"m 564 -15 q 433 6 497 -15 q 344 50 368 28 l 367 261 l 444 261 l 460 103 q 510 74 475 86 q 583 63 544 63 q 750 204 750 63 q 685 333 750 283 q 499 392 619 383 l 469 463 l 717 792 l 704 814 q 553 831 625 831 q 392 794 453 831 q 301 688 332 757 q 257 514 271 619 l 197 79 l 263 60 l 257 0 l -40 0 l -33 60 l 65 79 l 119 475 q 268 799 147 679 q 586 919 389 919 q 719 911 642 919 q 849 893 796 903 l 893 821 l 639 478 l 643 468 q 811 394 750 450 q 872 244 872 338 q 790 56 872 128 q 564 -15 707 -15 z "},"Ə":{"ha":860,"x_min":56,"x_max":804,"o":"m 363 -15 q 138 79 221 -15 q 56 344 56 174 q 71 501 56 422 l 653 501 q 654 546 654 517 q 630 717 653 653 q 556 810 607 781 q 415 839 504 839 q 315 825 356 839 q 258 799 275 811 l 215 653 l 146 653 l 165 860 q 291 900 219 883 q 442 917 363 917 q 713 822 621 917 q 804 553 804 728 q 755 269 804 399 q 606 63 706 140 q 363 -15 507 -15 m 399 61 q 574 153 514 61 q 649 419 635 244 l 204 419 q 203 365 203 403 q 248 131 203 201 q 399 61 293 61 z "},"T":{"ha":671,"x_min":44,"x_max":735,"o":"m 129 60 l 228 79 l 333 822 l 167 822 l 115 664 l 44 664 l 71 900 l 735 900 l 696 664 l 618 664 l 624 822 l 464 822 l 361 79 l 456 60 l 450 0 l 122 0 l 129 60 z "},"Ŧ":{"ha":671,"x_min":44,"x_max":735,"o":"m 696 664 l 618 664 l 624 822 l 464 822 l 419 506 l 661 506 l 650 426 l 410 426 l 361 79 l 456 60 l 450 0 l 122 0 l 129 60 l 228 79 l 278 426 l 46 426 l 57 506 l 289 506 l 333 822 l 167 822 l 115 664 l 44 664 l 71 900 l 735 900 l 696 664 z "},"Ť":{"ha":671,"x_min":42,"x_max":733,"o":"m 413 951 q 365 981 397 951 q 331 1014 333 1011 l 239 1104 l 289 1161 l 431 1069 l 582 1164 l 617 1115 l 517 1025 q 413 951 436 951 m 121 0 l 128 60 l 226 79 l 331 822 l 165 822 l 114 664 l 42 664 l 69 900 l 733 900 l 694 664 l 615 664 l 622 822 l 463 822 l 358 79 l 454 60 l 447 0 l 121 0 z "},"Ţ":{"ha":671,"x_min":42,"x_max":733,"o":"m 161 -175 q 199 -192 179 -186 q 251 -197 218 -197 q 301 -169 301 -197 q 269 -135 301 -151 l 199 -99 l 199 -69 l 247 0 l 121 0 l 128 60 l 226 79 l 331 822 l 165 822 l 114 664 l 42 664 l 69 900 l 733 900 l 694 664 l 615 664 l 622 822 l 463 822 l 358 79 l 454 60 l 447 0 l 308 0 l 308 -40 l 356 -68 q 408 -142 408 -99 q 365 -235 408 -208 q 261 -262 322 -262 q 131 -224 186 -262 l 161 -175 z "},"Ț":{"ha":671,"x_min":42,"x_max":733,"o":"m 128 60 l 226 79 l 331 822 l 165 822 l 114 664 l 42 664 l 69 900 l 733 900 l 694 664 l 615 664 l 622 822 l 463 822 l 358 79 l 454 60 l 447 0 l 121 0 l 128 60 m 179 -257 q 196 -239 183 -253 q 219 -202 208 -225 q 231 -154 231 -179 q 199 -78 231 -110 q 265 -42 224 -42 q 320 -62 300 -42 q 340 -124 340 -83 q 292 -226 340 -183 q 206 -285 243 -268 l 179 -257 z "},"Ṭ":{"ha":671,"x_min":44,"x_max":735,"o":"m 44 0 m 129 60 l 228 79 l 333 822 l 167 822 l 115 664 l 44 664 l 71 900 l 735 900 l 696 664 l 618 664 l 624 822 l 464 822 l 361 79 l 456 60 l 450 0 l 122 0 l 129 60 m 260 -242 q 202 -219 224 -242 q 181 -162 181 -197 q 205 -92 181 -124 q 272 -61 229 -61 q 330 -84 307 -61 q 353 -144 353 -107 q 328 -212 353 -183 q 260 -242 304 -242 z "},"U":{"ha":868,"x_min":78,"x_max":910,"o":"m 78 840 l 85 900 l 413 900 l 404 840 l 304 821 l 243 386 q 231 246 231 303 q 269 110 231 153 q 411 67 307 67 q 572 142 519 67 q 647 386 624 217 l 707 819 l 614 840 l 619 900 l 910 900 l 903 840 l 803 819 l 743 388 q 683 158 724 244 q 566 28 643 71 q 363 -15 489 -15 q 163 50 226 -15 q 99 229 99 115 q 111 386 99 299 l 172 821 l 78 840 z "},"Ú":{"ha":860,"x_min":78,"x_max":910,"o":"m 403 1007 l 644 1172 q 679 1142 665 1163 q 693 1097 693 1121 q 677 1058 693 1074 q 625 1028 661 1042 l 433 953 l 403 1007 m 363 -15 q 163 50 226 -15 q 99 229 99 115 q 111 386 99 299 l 172 821 l 78 840 l 85 900 l 413 900 l 404 840 l 304 821 l 243 386 q 231 246 231 303 q 269 110 231 153 q 411 67 307 67 q 572 142 519 67 q 647 386 624 217 l 707 819 l 614 840 l 619 900 l 910 900 l 903 840 l 803 819 l 743 388 q 683 158 724 244 q 566 28 643 71 q 363 -15 489 -15 z "},"Ŭ":{"ha":868,"x_min":78,"x_max":910,"o":"m 78 0 m 78 840 l 85 900 l 413 900 l 404 840 l 304 821 l 243 386 q 231 246 231 303 q 269 110 231 153 q 411 67 307 67 q 572 142 519 67 q 647 386 624 217 l 707 819 l 614 840 l 619 900 l 910 900 l 903 840 l 803 819 l 743 388 q 683 158 724 244 q 566 28 643 71 q 363 -15 489 -15 q 163 50 226 -15 q 99 229 99 115 q 111 386 99 299 l 172 821 l 78 840 m 747 1126 q 657 1019 721 1079 q 493 958 593 958 q 405 978 444 958 q 343 1028 365 999 q 321 1088 321 1058 q 342 1122 321 1106 q 396 1151 364 1139 q 440 1088 414 1117 q 514 1060 465 1060 q 714 1156 618 1060 l 747 1126 z "},"Ǔ":{"ha":868,"x_min":78,"x_max":910,"o":"m 78 0 m 78 840 l 85 900 l 413 900 l 404 840 l 304 821 l 243 386 q 231 246 231 303 q 269 110 231 153 q 411 67 307 67 q 572 142 519 67 q 647 386 624 217 l 707 819 l 614 840 l 619 900 l 910 900 l 903 840 l 803 819 l 743 388 q 683 158 724 244 q 566 28 643 71 q 363 -15 489 -15 q 163 50 226 -15 q 99 229 99 115 q 111 386 99 299 l 172 821 l 78 840 m 517 951 q 436 1014 499 951 l 343 1104 l 393 1161 l 536 1069 l 686 1164 l 722 1115 l 621 1025 q 517 951 540 951 z "},"Û":{"ha":860,"x_min":78,"x_max":910,"o":"m 431 1097 l 478 1135 q 513 1161 499 1151 q 535 1171 528 1171 q 580 1142 547 1169 q 621 1107 613 1114 l 715 1021 l 667 961 l 517 1051 l 360 967 l 325 1015 l 431 1097 m 78 840 l 85 900 l 413 900 l 404 840 l 304 821 l 243 386 q 231 246 231 303 q 269 110 231 153 q 411 67 307 67 q 572 142 519 67 q 647 386 624 217 l 707 819 l 614 840 l 619 900 l 910 900 l 903 840 l 803 819 l 743 388 q 683 158 724 244 q 566 28 643 71 q 363 -15 489 -15 q 163 50 226 -15 q 99 229 99 115 q 111 386 99 299 l 172 821 l 78 840 z "},"Ȕ":{"ha":868,"x_min":78,"x_max":910,"o":"m 78 0 m 78 840 l 85 900 l 413 900 l 404 840 l 304 821 l 243 386 q 231 246 231 303 q 269 110 231 153 q 411 67 307 67 q 572 142 519 67 q 647 386 624 217 l 707 819 l 614 840 l 619 900 l 910 900 l 903 840 l 803 819 l 743 388 q 683 158 724 244 q 566 28 643 71 q 363 -15 489 -15 q 163 50 226 -15 q 99 229 99 115 q 111 386 99 299 l 172 821 l 78 840 m 311 1011 q 267 1088 267 1056 q 297 1139 267 1117 q 364 1165 328 1161 l 449 972 l 394 935 l 311 1011 m 539 1011 q 494 1088 494 1056 q 525 1139 494 1117 q 592 1165 556 1161 l 675 972 l 622 935 l 539 1011 z "},"Ü":{"ha":860,"x_min":78,"x_max":910,"o":"m 375 969 q 321 992 342 969 q 300 1051 300 1015 q 324 1115 300 1088 q 385 1143 347 1143 q 439 1121 418 1143 q 460 1063 460 1099 q 437 997 460 1025 q 375 969 414 969 m 674 969 q 619 992 640 969 q 599 1051 599 1015 q 622 1115 599 1088 q 682 1143 644 1143 q 738 1121 717 1143 q 758 1063 758 1099 q 735 997 758 1025 q 674 969 713 969 m 78 840 l 85 900 l 413 900 l 404 840 l 304 821 l 243 386 q 231 246 231 303 q 269 110 231 153 q 411 67 307 67 q 572 142 519 67 q 647 386 624 217 l 707 819 l 614 840 l 619 900 l 910 900 l 903 840 l 803 819 l 743 388 q 683 158 724 244 q 566 28 643 71 q 363 -15 489 -15 q 163 50 226 -15 q 99 229 99 115 q 111 386 99 299 l 172 821 l 78 840 z "},"Ǘ":{"ha":868,"x_min":78,"x_max":910,"o":"m 78 0 m 78 840 l 85 900 l 413 900 l 404 840 l 304 821 l 243 386 q 231 246 231 303 q 269 110 231 153 q 411 67 307 67 q 572 142 519 67 q 647 386 624 217 l 707 819 l 614 840 l 619 900 l 910 900 l 903 840 l 803 819 l 743 388 q 683 158 724 244 q 566 28 643 71 q 363 -15 489 -15 q 163 50 226 -15 q 99 229 99 115 q 111 386 99 299 l 172 821 l 78 840 m 379 969 q 325 992 346 969 q 304 1051 304 1015 q 328 1115 304 1088 q 389 1143 351 1143 q 443 1121 422 1143 q 464 1063 464 1099 q 441 997 464 1025 q 379 969 418 969 m 678 969 q 624 992 644 969 q 603 1051 603 1015 q 626 1115 603 1088 q 686 1143 649 1143 q 742 1121 721 1143 q 763 1063 763 1099 q 740 997 763 1025 q 678 969 717 969 m 472 1240 l 714 1406 q 749 1374 735 1394 q 763 1331 763 1354 q 747 1292 763 1307 q 694 1261 731 1276 l 503 1186 l 472 1240 z "},"Ǚ":{"ha":868,"x_min":78,"x_max":910,"o":"m 78 0 m 78 840 l 85 900 l 413 900 l 404 840 l 304 821 l 243 386 q 231 246 231 303 q 269 110 231 153 q 411 67 307 67 q 572 142 519 67 q 647 386 624 217 l 707 819 l 614 840 l 619 900 l 910 900 l 903 840 l 803 819 l 743 388 q 683 158 724 244 q 566 28 643 71 q 363 -15 489 -15 q 163 50 226 -15 q 99 229 99 115 q 111 386 99 299 l 172 821 l 78 840 m 379 969 q 325 992 346 969 q 304 1051 304 1015 q 328 1115 304 1088 q 389 1143 351 1143 q 443 1121 422 1143 q 464 1063 464 1099 q 441 997 464 1025 q 379 969 418 969 m 678 969 q 624 992 644 969 q 603 1051 603 1015 q 626 1115 603 1088 q 686 1143 649 1143 q 742 1121 721 1143 q 763 1063 763 1099 q 740 997 763 1025 q 678 969 717 969 m 542 1194 q 461 1257 524 1194 l 368 1347 l 418 1404 l 561 1313 l 711 1407 l 747 1358 l 646 1268 q 542 1194 565 1194 z "},"Ǜ":{"ha":868,"x_min":78,"x_max":910,"o":"m 78 0 m 78 840 l 85 900 l 413 900 l 404 840 l 304 821 l 243 386 q 231 246 231 303 q 269 110 231 153 q 411 67 307 67 q 572 142 519 67 q 647 386 624 217 l 707 819 l 614 840 l 619 900 l 910 900 l 903 840 l 803 819 l 743 388 q 683 158 724 244 q 566 28 643 71 q 363 -15 489 -15 q 163 50 226 -15 q 99 229 99 115 q 111 386 99 299 l 172 821 l 78 840 m 379 969 q 325 992 346 969 q 304 1051 304 1015 q 328 1115 304 1088 q 389 1143 351 1143 q 443 1121 422 1143 q 464 1063 464 1099 q 441 997 464 1025 q 379 969 418 969 m 678 969 q 624 992 644 969 q 603 1051 603 1015 q 626 1115 603 1088 q 686 1143 649 1143 q 742 1121 721 1143 q 763 1063 763 1099 q 740 997 763 1025 q 678 969 717 969 m 419 1261 q 368 1291 383 1275 q 353 1329 353 1307 q 366 1374 353 1354 q 401 1406 379 1394 l 643 1240 l 611 1186 l 419 1261 z "},"Ǖ":{"ha":868,"x_min":78,"x_max":910,"o":"m 78 0 m 78 840 l 85 900 l 413 900 l 404 840 l 304 821 l 243 386 q 231 246 231 303 q 269 110 231 153 q 411 67 307 67 q 572 142 519 67 q 647 386 624 217 l 707 819 l 614 840 l 619 900 l 910 900 l 903 840 l 803 819 l 743 388 q 683 158 724 244 q 566 28 643 71 q 363 -15 489 -15 q 163 50 226 -15 q 99 229 99 115 q 111 386 99 299 l 172 821 l 78 840 m 379 969 q 325 992 346 969 q 304 1051 304 1015 q 328 1115 304 1088 q 389 1143 351 1143 q 443 1121 422 1143 q 464 1063 464 1099 q 441 997 464 1025 q 379 969 418 969 m 678 969 q 624 992 644 969 q 603 1051 603 1015 q 626 1115 603 1088 q 686 1143 649 1143 q 742 1121 721 1143 q 763 1063 763 1099 q 740 997 763 1025 q 678 969 717 969 m 351 1336 l 772 1336 l 760 1240 l 340 1240 l 351 1336 z "},"Ụ":{"ha":868,"x_min":78,"x_max":910,"o":"m 78 0 m 78 840 l 85 900 l 413 900 l 404 840 l 304 821 l 243 386 q 231 246 231 303 q 269 110 231 153 q 411 67 307 67 q 572 142 519 67 q 647 386 624 217 l 707 819 l 614 840 l 619 900 l 910 900 l 903 840 l 803 819 l 743 388 q 683 158 724 244 q 566 28 643 71 q 363 -15 489 -15 q 163 50 226 -15 q 99 229 99 115 q 111 386 99 299 l 172 821 l 78 840 m 357 -242 q 299 -219 321 -242 q 278 -162 278 -197 q 302 -92 278 -124 q 369 -61 326 -61 q 427 -84 404 -61 q 450 -144 450 -107 q 426 -212 450 -183 q 357 -242 401 -242 z "},"Ù":{"ha":860,"x_min":78,"x_max":910,"o":"m 408 1028 q 357 1058 372 1042 q 342 1096 342 1074 q 355 1141 342 1121 q 390 1172 368 1161 l 632 1007 l 600 953 l 408 1028 m 78 840 l 85 900 l 413 900 l 404 840 l 304 821 l 243 386 q 231 246 231 303 q 269 110 231 153 q 411 67 307 67 q 572 142 519 67 q 647 386 624 217 l 707 819 l 614 840 l 619 900 l 910 900 l 903 840 l 803 819 l 743 388 q 683 158 724 244 q 566 28 643 71 q 363 -15 489 -15 q 163 50 226 -15 q 99 229 99 115 q 111 386 99 299 l 172 821 l 78 840 z "},"Ủ":{"ha":868,"x_min":78,"x_max":910,"o":"m 78 0 m 78 840 l 85 900 l 413 900 l 404 840 l 304 821 l 243 386 q 231 246 231 303 q 269 110 231 153 q 411 67 307 67 q 572 142 519 67 q 647 386 624 217 l 707 819 l 614 840 l 619 900 l 910 900 l 903 840 l 803 819 l 743 388 q 683 158 724 244 q 566 28 643 71 q 363 -15 489 -15 q 163 50 226 -15 q 99 229 99 115 q 111 386 99 299 l 172 821 l 78 840 m 481 939 q 475 963 475 956 q 488 992 475 979 q 536 1017 501 1004 q 588 1063 588 1038 q 573 1082 588 1075 q 529 1089 558 1089 q 442 1078 489 1089 q 431 1119 431 1100 q 453 1154 431 1140 q 529 1168 476 1168 q 652 1145 607 1168 q 697 1081 697 1122 q 670 1018 697 1044 q 599 978 643 992 q 568 963 575 969 q 560 942 561 956 l 481 939 z "},"Ư":{"ha":868,"x_min":78,"x_max":992,"o":"m 992 993 q 949 894 992 946 q 801 810 906 842 l 743 388 q 683 158 724 244 q 566 28 643 71 q 363 -15 489 -15 q 163 50 226 -15 q 99 229 99 115 q 111 386 99 299 l 172 821 l 78 840 l 85 900 l 413 900 l 404 840 l 304 821 l 243 386 q 231 246 231 303 q 269 110 231 153 q 411 67 307 67 q 572 142 519 67 q 647 386 624 217 l 707 819 l 614 840 l 619 900 l 799 900 q 867 912 846 900 q 889 956 889 924 q 883 981 889 971 q 863 1000 876 990 l 863 1021 l 947 1079 q 980 1046 968 1063 q 992 993 992 1029 z "},"Ứ":{"ha":868,"x_min":78,"x_max":992,"o":"m 78 0 m 992 993 q 949 894 992 946 q 801 810 906 842 l 743 388 q 683 158 724 244 q 566 28 643 71 q 363 -15 489 -15 q 163 50 226 -15 q 99 229 99 115 q 111 386 99 299 l 172 821 l 78 840 l 85 900 l 413 900 l 404 840 l 304 821 l 243 386 q 231 246 231 303 q 269 110 231 153 q 411 67 307 67 q 572 142 519 67 q 647 386 624 217 l 707 819 l 614 840 l 619 900 l 799 900 q 867 912 846 900 q 889 956 889 924 q 883 981 889 971 q 863 1000 876 990 l 863 1021 l 947 1079 q 980 1046 968 1063 q 992 993 992 1029 m 447 997 l 689 1163 q 724 1131 710 1151 q 738 1088 738 1111 q 722 1049 738 1064 q 669 1018 706 1033 l 478 943 l 447 997 z "},"Ự":{"ha":868,"x_min":78,"x_max":992,"o":"m 78 0 m 992 993 q 949 894 992 946 q 801 810 906 842 l 743 388 q 683 158 724 244 q 566 28 643 71 q 363 -15 489 -15 q 163 50 226 -15 q 99 229 99 115 q 111 386 99 299 l 172 821 l 78 840 l 85 900 l 413 900 l 404 840 l 304 821 l 243 386 q 231 246 231 303 q 269 110 231 153 q 411 67 307 67 q 572 142 519 67 q 647 386 624 217 l 707 819 l 614 840 l 619 900 l 799 900 q 867 912 846 900 q 889 956 889 924 q 883 981 889 971 q 863 1000 876 990 l 863 1021 l 947 1079 q 980 1046 968 1063 q 992 993 992 1029 m 357 -242 q 299 -219 321 -242 q 278 -162 278 -197 q 302 -92 278 -124 q 369 -61 326 -61 q 427 -84 404 -61 q 450 -144 450 -107 q 426 -212 450 -183 q 357 -242 401 -242 z "},"Ừ":{"ha":868,"x_min":78,"x_max":992,"o":"m 78 0 m 992 993 q 949 894 992 946 q 801 810 906 842 l 743 388 q 683 158 724 244 q 566 28 643 71 q 363 -15 489 -15 q 163 50 226 -15 q 99 229 99 115 q 111 386 99 299 l 172 821 l 78 840 l 85 900 l 413 900 l 404 840 l 304 821 l 243 386 q 231 246 231 303 q 269 110 231 153 q 411 67 307 67 q 572 142 519 67 q 647 386 624 217 l 707 819 l 614 840 l 619 900 l 799 900 q 867 912 846 900 q 889 956 889 924 q 883 981 889 971 q 863 1000 876 990 l 863 1021 l 947 1079 q 980 1046 968 1063 q 992 993 992 1029 m 394 1018 q 343 1048 358 1032 q 328 1086 328 1064 q 341 1131 328 1111 q 376 1163 354 1151 l 618 997 l 586 943 l 394 1018 z "},"Ử":{"ha":868,"x_min":78,"x_max":992,"o":"m 78 0 m 992 993 q 949 894 992 946 q 801 810 906 842 l 743 388 q 683 158 724 244 q 566 28 643 71 q 363 -15 489 -15 q 163 50 226 -15 q 99 229 99 115 q 111 386 99 299 l 172 821 l 78 840 l 85 900 l 413 900 l 404 840 l 304 821 l 243 386 q 231 246 231 303 q 269 110 231 153 q 411 67 307 67 q 572 142 519 67 q 647 386 624 217 l 707 819 l 614 840 l 619 900 l 799 900 q 867 912 846 900 q 889 956 889 924 q 883 981 889 971 q 863 1000 876 990 l 863 1021 l 947 1079 q 980 1046 968 1063 q 992 993 992 1029 m 481 939 q 475 963 475 956 q 488 992 475 979 q 536 1017 501 1004 q 588 1063 588 1038 q 573 1082 588 1075 q 529 1089 558 1089 q 442 1078 489 1089 q 431 1119 431 1100 q 453 1154 431 1140 q 529 1168 476 1168 q 652 1145 607 1168 q 697 1081 697 1122 q 670 1018 697 1044 q 599 978 643 992 q 568 963 575 969 q 560 942 561 956 l 481 939 z "},"Ữ":{"ha":868,"x_min":78,"x_max":992,"o":"m 78 0 m 992 993 q 949 894 992 946 q 801 810 906 842 l 743 388 q 683 158 724 244 q 566 28 643 71 q 363 -15 489 -15 q 163 50 226 -15 q 99 229 99 115 q 111 386 99 299 l 172 821 l 78 840 l 85 900 l 413 900 l 404 840 l 304 821 l 243 386 q 231 246 231 303 q 269 110 231 153 q 411 67 307 67 q 572 142 519 67 q 647 386 624 217 l 707 819 l 614 840 l 619 900 l 799 900 q 867 912 846 900 q 889 956 889 924 q 883 981 889 971 q 863 1000 876 990 l 863 1021 l 947 1079 q 980 1046 968 1063 q 992 993 992 1029 m 342 1088 q 424 1139 382 1139 q 525 1114 458 1139 l 633 1076 l 744 1129 l 779 1090 l 722 1019 q 642 968 681 968 q 539 994 610 968 l 432 1032 l 319 979 l 285 1018 l 342 1088 z "},"Ű":{"ha":860,"x_min":78,"x_max":910,"o":"m 325 972 l 463 1165 q 520 1141 500 1160 q 540 1099 540 1122 q 519 1055 539 1079 q 474 1011 499 1031 l 368 935 l 325 972 m 553 972 l 690 1165 q 747 1141 726 1160 q 767 1099 767 1122 q 747 1055 767 1079 q 701 1011 726 1031 l 596 935 l 553 972 m 363 -15 q 163 50 226 -15 q 99 229 99 115 q 111 386 99 299 l 172 821 l 78 840 l 85 900 l 413 900 l 404 840 l 304 821 l 243 386 q 231 246 231 303 q 269 110 231 153 q 411 67 307 67 q 572 142 519 67 q 647 386 624 217 l 707 819 l 614 840 l 619 900 l 910 900 l 903 840 l 803 819 l 743 388 q 683 158 724 244 q 566 28 643 71 q 363 -15 489 -15 z "},"Ȗ":{"ha":868,"x_min":78,"x_max":910,"o":"m 78 0 m 78 840 l 85 900 l 413 900 l 404 840 l 304 821 l 243 386 q 231 246 231 303 q 269 110 231 153 q 411 67 307 67 q 572 142 519 67 q 647 386 624 217 l 707 819 l 614 840 l 619 900 l 910 900 l 903 840 l 803 819 l 743 388 q 683 158 724 244 q 566 28 643 71 q 363 -15 489 -15 q 163 50 226 -15 q 99 229 99 115 q 111 386 99 299 l 172 821 l 78 840 m 321 988 q 414 1097 351 1039 q 576 1156 476 1156 q 664 1135 625 1156 q 725 1085 703 1115 q 747 1026 747 1056 q 726 992 747 1010 q 674 963 704 975 q 630 1026 656 997 q 556 1054 604 1054 q 435 1022 486 1054 q 356 958 385 990 l 321 988 z "},"Ū":{"ha":860,"x_min":78,"x_max":910,"o":"m 322 1093 l 742 1093 l 729 997 l 310 997 l 322 1093 m 78 840 l 85 900 l 413 900 l 404 840 l 304 821 l 243 386 q 231 246 231 303 q 269 110 231 153 q 411 67 307 67 q 572 142 519 67 q 647 386 624 217 l 707 819 l 614 840 l 619 900 l 910 900 l 903 840 l 803 819 l 743 388 q 683 158 724 244 q 566 28 643 71 q 363 -15 489 -15 q 163 50 226 -15 q 99 229 99 115 q 111 386 99 299 l 172 821 l 78 840 z "},"Ų":{"ha":860,"x_min":78,"x_max":910,"o":"m 440 -250 q 328 -160 328 -250 q 350 -81 328 -118 q 411 -15 372 -44 l 410 -11 q 363 -15 368 -15 q 163 50 226 -15 q 99 229 99 115 q 111 386 99 299 l 172 821 l 78 840 l 85 900 l 413 900 l 404 840 l 304 821 l 243 386 q 231 246 231 303 q 269 110 231 153 q 411 67 307 67 q 572 142 519 67 q 647 386 624 217 l 707 819 l 614 840 l 619 900 l 910 900 l 903 840 l 803 819 l 743 388 q 667 130 721 222 q 510 4 614 38 q 455 -48 479 -17 q 431 -118 431 -79 q 486 -172 431 -172 q 563 -144 517 -172 l 588 -182 q 566 -201 588 -183 q 512 -235 544 -219 q 440 -250 479 -250 z "},"Ů":{"ha":860,"x_min":78,"x_max":910,"o":"m 521 919 q 431 945 461 919 q 400 1018 400 971 q 440 1115 400 1074 q 544 1157 479 1157 q 633 1132 603 1157 q 664 1060 664 1107 q 626 961 664 1003 q 521 919 588 919 m 532 982 q 569 999 558 982 q 581 1053 581 1015 q 569 1085 581 1076 q 532 1094 557 1094 q 493 1078 504 1094 q 482 1026 482 1063 q 493 992 482 1003 q 532 982 504 982 m 363 -15 q 163 50 226 -15 q 99 229 99 115 q 111 386 99 299 l 172 821 l 78 840 l 85 900 l 413 900 l 404 840 l 304 821 l 243 386 q 231 246 231 303 q 269 110 231 153 q 411 67 307 67 q 572 142 519 67 q 647 386 624 217 l 707 819 l 614 840 l 619 900 l 910 900 l 903 840 l 803 819 l 743 388 q 683 158 724 244 q 566 28 643 71 q 363 -15 489 -15 z "},"Ũ":{"ha":868,"x_min":78,"x_max":910,"o":"m 78 0 m 78 840 l 85 900 l 413 900 l 404 840 l 304 821 l 243 386 q 231 246 231 303 q 269 110 231 153 q 411 67 307 67 q 572 142 519 67 q 647 386 624 217 l 707 819 l 614 840 l 619 900 l 910 900 l 903 840 l 803 819 l 743 388 q 683 158 724 244 q 566 28 643 71 q 363 -15 489 -15 q 163 50 226 -15 q 99 229 99 115 q 111 386 99 299 l 172 821 l 78 840 m 342 1088 q 424 1139 382 1139 q 525 1114 458 1139 l 633 1076 l 744 1129 l 779 1090 l 722 1019 q 642 968 681 968 q 539 994 610 968 l 432 1032 l 319 979 l 285 1018 l 342 1088 z "},"V":{"ha":707,"x_min":26,"x_max":796,"o":"m 260 -12 l 106 822 l 26 840 l 32 900 l 349 900 l 343 840 l 246 821 l 246 796 l 344 233 l 350 190 l 353 193 l 367 231 l 618 801 l 618 821 l 515 840 l 522 900 l 796 900 l 788 840 l 714 819 l 339 -12 l 260 -12 z "},"W":{"ha":1074,"x_min":13,"x_max":1179,"o":"m 203 -11 l 92 826 l 13 843 l 19 900 l 340 900 l 333 843 l 233 822 l 233 792 l 293 213 l 297 168 l 300 172 l 317 213 l 540 718 l 521 826 l 443 843 l 449 900 l 771 900 l 764 843 l 664 822 l 664 794 l 740 222 l 746 168 l 750 174 l 767 219 l 996 799 l 999 822 l 899 843 l 907 900 l 1179 900 l 1171 843 l 1099 824 l 742 -11 l 653 -11 l 564 575 l 292 -11 l 203 -11 z "},"Ẃ":{"ha":1074,"x_min":13,"x_max":1179,"o":"m 13 0 m 203 -11 l 92 826 l 13 843 l 19 900 l 340 900 l 333 843 l 233 822 l 233 792 l 293 213 l 297 168 l 300 172 l 317 213 l 540 718 l 521 826 l 443 843 l 449 900 l 771 900 l 764 843 l 664 822 l 664 794 l 740 222 l 746 168 l 750 174 l 767 219 l 996 799 l 999 822 l 899 843 l 907 900 l 1179 900 l 1171 843 l 1099 824 l 742 -11 l 653 -11 l 564 575 l 292 -11 l 203 -11 m 551 997 l 793 1163 q 828 1131 814 1151 q 842 1088 842 1111 q 826 1049 842 1064 q 774 1018 810 1033 l 582 943 l 551 997 z "},"Ŵ":{"ha":1074,"x_min":13,"x_max":1179,"o":"m 13 0 m 203 -11 l 92 826 l 13 843 l 19 900 l 340 900 l 333 843 l 233 822 l 233 792 l 293 213 l 297 168 l 300 172 l 317 213 l 540 718 l 521 826 l 443 843 l 449 900 l 771 900 l 764 843 l 664 822 l 664 794 l 740 222 l 746 168 l 750 174 l 767 219 l 996 799 l 999 822 l 899 843 l 907 900 l 1179 900 l 1171 843 l 1099 824 l 742 -11 l 653 -11 l 564 575 l 292 -11 l 203 -11 m 549 1088 l 575 1108 q 625 1146 606 1132 q 653 1160 644 1160 q 699 1131 665 1160 q 738 1097 733 1101 l 832 1011 l 783 951 l 633 1042 l 476 957 l 442 1006 l 549 1088 z "},"Ẅ":{"ha":1074,"x_min":13,"x_max":1179,"o":"m 13 0 m 203 -11 l 92 826 l 13 843 l 19 900 l 340 900 l 333 843 l 233 822 l 233 792 l 293 213 l 297 168 l 300 172 l 317 213 l 540 718 l 521 826 l 443 843 l 449 900 l 771 900 l 764 843 l 664 822 l 664 794 l 740 222 l 746 168 l 750 174 l 767 219 l 996 799 l 999 822 l 899 843 l 907 900 l 1179 900 l 1171 843 l 1099 824 l 742 -11 l 653 -11 l 564 575 l 292 -11 l 203 -11 m 483 969 q 429 992 450 969 q 408 1051 408 1015 q 432 1115 408 1088 q 493 1143 456 1143 q 547 1121 526 1143 q 568 1063 568 1099 q 545 997 568 1025 q 483 969 522 969 m 782 969 q 728 992 749 969 q 707 1051 707 1015 q 730 1115 707 1088 q 790 1143 753 1143 q 846 1121 825 1143 q 867 1063 867 1099 q 844 997 867 1025 q 782 969 821 969 z "},"Ẁ":{"ha":1074,"x_min":13,"x_max":1179,"o":"m 13 0 m 203 -11 l 92 826 l 13 843 l 19 900 l 340 900 l 333 843 l 233 822 l 233 792 l 293 213 l 297 168 l 300 172 l 317 213 l 540 718 l 521 826 l 443 843 l 449 900 l 771 900 l 764 843 l 664 822 l 664 794 l 740 222 l 746 168 l 750 174 l 767 219 l 996 799 l 999 822 l 899 843 l 907 900 l 1179 900 l 1171 843 l 1099 824 l 742 -11 l 653 -11 l 564 575 l 292 -11 l 203 -11 m 499 1018 q 447 1048 463 1032 q 432 1086 432 1064 q 445 1131 432 1111 q 481 1163 458 1151 l 722 997 l 690 943 l 499 1018 z "},"X":{"ha":743,"x_min":-72,"x_max":789,"o":"m -65 57 l 22 78 l 310 449 l 139 826 l 64 843 l 69 900 l 403 900 l 397 843 l 300 822 l 300 799 l 406 558 l 596 804 l 596 824 l 511 842 l 519 900 l 789 900 l 782 842 l 710 822 l 442 478 l 621 75 l 701 57 l 697 0 l 372 0 l 378 57 l 465 78 l 465 108 l 347 365 l 139 96 l 138 76 l 222 57 l 215 0 l -72 0 l -65 57 z "},"Y":{"ha":675,"x_min":29,"x_max":751,"o":"m 143 57 l 243 76 l 279 338 l 104 826 l 29 843 l 35 900 l 351 900 l 344 843 l 247 822 l 247 792 l 371 429 l 383 429 l 572 803 l 572 824 l 476 843 l 483 900 l 751 900 l 744 843 l 672 824 l 411 340 l 375 76 l 471 57 l 465 0 l 138 0 l 143 57 z "},"Ý":{"ha":675,"x_min":24,"x_max":747,"o":"m 300 1007 l 542 1172 q 576 1142 563 1163 q 590 1097 590 1122 q 575 1058 590 1074 q 524 1028 560 1042 l 332 953 l 300 1007 m 133 0 l 138 57 l 239 76 l 275 338 l 99 826 l 24 843 l 31 900 l 344 900 l 338 843 l 240 822 l 240 792 l 361 429 l 374 429 l 568 803 l 568 824 l 471 843 l 478 900 l 747 900 l 739 843 l 668 824 l 408 350 l 371 76 l 465 57 l 461 0 l 133 0 z "},"Ŷ":{"ha":675,"x_min":29,"x_max":751,"o":"m 29 0 m 143 57 l 243 76 l 279 338 l 104 826 l 29 843 l 35 900 l 351 900 l 344 843 l 247 822 l 247 792 l 371 429 l 383 429 l 572 803 l 572 824 l 476 843 l 483 900 l 751 900 l 744 843 l 672 824 l 411 340 l 375 76 l 471 57 l 465 0 l 138 0 l 143 57 m 350 1088 l 376 1108 q 426 1146 407 1132 q 454 1160 446 1160 q 501 1131 467 1160 q 539 1097 535 1101 l 633 1011 l 585 951 l 435 1042 l 278 957 l 243 1006 l 350 1088 z "},"Ÿ":{"ha":675,"x_min":24,"x_max":747,"o":"m 275 969 q 219 992 240 969 q 199 1051 199 1015 q 222 1115 199 1088 q 283 1143 246 1143 q 339 1121 318 1143 q 360 1063 360 1099 q 337 997 360 1025 q 275 969 314 969 m 572 969 q 518 992 539 969 q 497 1051 497 1015 q 521 1115 497 1088 q 582 1143 544 1143 q 636 1121 615 1143 q 657 1063 657 1099 q 634 997 657 1025 q 572 969 611 969 m 138 57 l 239 76 l 275 338 l 99 826 l 24 843 l 31 900 l 344 900 l 338 843 l 240 822 l 240 792 l 361 429 l 374 429 l 568 803 l 568 824 l 471 843 l 478 900 l 747 900 l 739 843 l 668 824 l 408 350 l 371 76 l 465 57 l 461 0 l 133 0 l 138 57 z "},"Ỵ":{"ha":675,"x_min":29,"x_max":751,"o":"m 29 0 m 143 57 l 243 76 l 279 338 l 104 826 l 29 843 l 35 900 l 351 900 l 344 843 l 247 822 l 247 792 l 371 429 l 383 429 l 572 803 l 572 824 l 476 843 l 483 900 l 751 900 l 744 843 l 672 824 l 411 340 l 375 76 l 471 57 l 465 0 l 138 0 l 143 57 m 271 -242 q 213 -219 235 -242 q 192 -162 192 -197 q 216 -92 192 -124 q 283 -61 240 -61 q 341 -84 318 -61 q 364 -144 364 -107 q 340 -212 364 -183 q 271 -242 315 -242 z "},"Ỳ":{"ha":675,"x_min":29,"x_max":751,"o":"m 29 0 m 143 57 l 243 76 l 279 338 l 104 826 l 29 843 l 35 900 l 351 900 l 344 843 l 247 822 l 247 792 l 371 429 l 383 429 l 572 803 l 572 824 l 476 843 l 483 900 l 751 900 l 744 843 l 672 824 l 411 340 l 375 76 l 471 57 l 465 0 l 138 0 l 143 57 m 300 1018 q 249 1048 264 1032 q 233 1086 233 1064 q 247 1131 233 1111 q 282 1163 260 1151 l 524 997 l 492 943 l 300 1018 z "},"Ỷ":{"ha":675,"x_min":29,"x_max":751,"o":"m 29 0 m 143 57 l 243 76 l 279 338 l 104 826 l 29 843 l 35 900 l 351 900 l 344 843 l 247 822 l 247 792 l 371 429 l 383 429 l 572 803 l 572 824 l 476 843 l 483 900 l 751 900 l 744 843 l 672 824 l 411 340 l 375 76 l 471 57 l 465 0 l 138 0 l 143 57 m 386 939 q 381 963 381 956 q 394 992 381 979 q 442 1017 407 1004 q 493 1063 493 1038 q 478 1082 493 1075 q 435 1089 464 1089 q 347 1078 394 1089 q 336 1119 336 1100 q 359 1154 336 1140 q 435 1168 382 1168 q 558 1145 513 1168 q 603 1081 603 1122 q 576 1018 603 1044 q 504 978 549 992 q 474 963 481 969 q 465 942 467 956 l 386 939 z "},"Ȳ":{"ha":675,"x_min":29,"x_max":751,"o":"m 29 0 m 143 57 l 243 76 l 279 338 l 104 826 l 29 843 l 35 900 l 351 900 l 344 843 l 247 822 l 247 792 l 371 429 l 383 429 l 572 803 l 572 824 l 476 843 l 483 900 l 751 900 l 744 843 l 672 824 l 411 340 l 375 76 l 471 57 l 465 0 l 138 0 l 143 57 m 232 1093 l 653 1093 l 640 997 l 221 997 l 232 1093 z "},"Ỹ":{"ha":675,"x_min":29,"x_max":751,"o":"m 29 0 m 143 57 l 243 76 l 279 338 l 104 826 l 29 843 l 35 900 l 351 900 l 344 843 l 247 822 l 247 792 l 371 429 l 383 429 l 572 803 l 572 824 l 476 843 l 483 900 l 751 900 l 744 843 l 672 824 l 411 340 l 375 76 l 471 57 l 465 0 l 138 0 l 143 57 m 247 1088 q 329 1139 288 1139 q 431 1114 364 1139 l 539 1076 l 650 1129 l 685 1090 l 628 1019 q 547 968 586 968 q 444 994 515 968 l 338 1032 l 225 979 l 190 1018 l 247 1088 z "},"Z":{"ha":697,"x_min":-12,"x_max":707,"o":"m -12 71 l 531 797 l 515 825 l 206 825 l 147 678 l 79 678 l 111 900 l 663 900 l 707 828 l 157 88 l 163 72 l 507 72 l 563 219 l 631 219 l 601 0 l 17 0 l -12 71 z "},"Ź":{"ha":697,"x_min":-17,"x_max":703,"o":"m 292 997 l 532 1163 q 568 1131 554 1151 q 582 1088 582 1111 q 566 1048 582 1064 q 514 1018 550 1032 l 322 943 l 292 997 m 13 0 l -17 71 l 526 797 l 511 825 l 201 825 l 143 678 l 75 678 l 108 900 l 658 900 l 703 828 l 153 88 l 158 72 l 503 72 l 558 219 l 628 219 l 599 0 l 13 0 z "},"Ž":{"ha":697,"x_min":-17,"x_max":703,"o":"m 414 951 q 333 1014 396 951 l 240 1104 l 290 1161 l 433 1069 l 583 1164 l 619 1115 l 518 1025 q 414 951 438 951 m 13 0 l -17 71 l 526 797 l 511 825 l 201 825 l 143 678 l 75 678 l 108 900 l 658 900 l 703 828 l 153 88 l 158 72 l 503 72 l 558 219 l 628 219 l 599 0 l 13 0 z "},"Ż":{"ha":697,"x_min":-17,"x_max":703,"o":"m 399 964 q 343 986 364 964 q 322 1042 322 1008 q 346 1110 322 1081 q 413 1140 369 1140 q 469 1119 447 1140 q 490 1060 490 1097 q 466 992 490 1021 q 399 964 442 964 m -17 71 l 526 797 l 511 825 l 201 825 l 143 678 l 75 678 l 108 900 l 658 900 l 703 828 l 153 88 l 158 72 l 503 72 l 558 219 l 628 219 l 599 0 l 13 0 l -17 71 z "},"Ẓ":{"ha":697,"x_min":-12,"x_max":707,"o":"m 0 0 m -12 71 l 531 797 l 515 825 l 206 825 l 147 678 l 79 678 l 111 900 l 663 900 l 707 828 l 157 88 l 163 72 l 507 72 l 563 219 l 631 219 l 601 0 l 17 0 l -12 71 m 272 -242 q 215 -219 236 -242 q 193 -162 193 -197 q 217 -92 193 -124 q 285 -61 242 -61 q 342 -84 319 -61 q 365 -144 365 -107 q 341 -212 365 -183 q 272 -242 317 -242 z "},"a":{"ha":697,"x_min":50,"x_max":633,"o":"m 421 146 q 325 33 379 79 q 213 -14 271 -14 q 50 208 50 -14 q 85 415 50 294 q 191 624 121 535 q 360 713 261 713 q 448 698 404 713 q 522 668 492 683 l 561 718 l 631 718 l 532 101 l 633 101 l 633 38 q 607 23 628 33 q 553 3 586 13 q 485 -7 521 -7 q 399 64 399 -7 q 425 143 399 96 l 421 146 m 481 553 q 314 621 396 621 q 272 608 282 621 q 209 447 233 547 q 185 238 185 346 q 199 123 185 161 q 253 85 214 85 q 341 127 294 85 q 425 224 388 169 l 481 553 z "},"á":{"ha":704,"x_min":50,"x_max":633,"o":"m 331 821 l 528 1022 q 594 946 594 1004 q 506 857 594 908 l 368 774 l 331 821 m 213 -14 q 50 208 50 -14 q 85 415 50 294 q 191 624 121 535 q 360 713 261 713 q 449 698 404 713 q 522 668 493 683 l 561 718 l 631 718 l 532 101 l 633 101 l 633 38 q 607 23 628 33 q 553 3 586 13 q 485 -7 521 -7 q 399 64 399 -7 q 425 143 399 96 l 421 146 q 325 33 379 79 q 213 -14 271 -14 m 253 85 q 341 127 294 85 q 425 224 388 169 l 481 553 q 314 621 396 621 q 272 608 282 621 q 209 447 233 547 q 185 238 185 346 q 199 123 185 161 q 253 85 214 85 z "},"ă":{"ha":703,"x_min":50,"x_max":636,"o":"m 400 785 q 306 808 344 785 q 247 867 267 832 q 226 935 226 903 q 240 969 226 958 q 278 989 251 981 q 321 997 304 997 q 349 913 326 946 q 431 881 372 881 q 514 906 476 881 q 575 963 551 932 q 599 997 599 993 l 636 974 q 612 916 636 964 q 535 826 588 868 q 400 785 483 785 m 213 -14 q 50 208 50 -14 q 85 415 50 294 q 191 624 121 535 q 360 713 261 713 q 449 698 404 713 q 522 668 493 683 l 561 718 l 631 718 l 532 101 l 633 101 l 633 38 q 607 23 628 33 q 553 3 586 13 q 485 -7 521 -7 q 399 64 399 -7 q 425 143 399 96 l 421 146 q 325 33 379 79 q 213 -14 271 -14 m 253 85 q 341 127 294 85 q 425 224 388 169 l 481 553 q 314 621 396 621 q 272 608 282 621 q 209 447 233 547 q 185 238 185 346 q 199 123 185 161 q 253 85 214 85 z "},"ắ":{"ha":697,"x_min":50,"x_max":654,"o":"m 50 0 m 421 146 q 325 33 379 79 q 213 -14 271 -14 q 50 208 50 -14 q 85 415 50 294 q 191 624 121 535 q 360 713 261 713 q 448 698 404 713 q 522 668 492 683 l 561 718 l 631 718 l 532 101 l 633 101 l 633 38 q 607 23 628 33 q 553 3 586 13 q 485 -7 521 -7 q 399 64 399 -7 q 425 143 399 96 l 421 146 m 481 553 q 314 621 396 621 q 272 608 282 621 q 209 447 233 547 q 185 238 185 346 q 199 123 185 161 q 253 85 214 85 q 341 127 294 85 q 425 224 388 169 l 481 553 m 403 785 q 308 808 347 785 q 249 867 269 832 q 229 935 229 903 q 242 968 229 956 q 280 988 253 979 q 324 997 307 997 q 352 913 329 946 q 433 881 375 881 q 517 906 479 881 q 578 963 554 932 q 601 997 601 993 l 639 974 q 615 916 639 964 q 538 826 590 868 q 403 785 486 785 m 392 1036 l 589 1238 q 654 1161 654 1219 q 630 1116 654 1138 q 567 1072 606 1094 l 429 989 l 392 1036 z "},"ặ":{"ha":697,"x_min":50,"x_max":633,"o":"m 50 0 m 421 146 q 325 33 379 79 q 213 -14 271 -14 q 50 208 50 -14 q 85 415 50 294 q 191 624 121 535 q 360 713 261 713 q 448 698 404 713 q 522 668 492 683 l 561 718 l 631 718 l 532 101 l 633 101 l 633 38 q 607 23 628 33 q 553 3 586 13 q 485 -7 521 -7 q 399 64 399 -7 q 425 143 399 96 l 421 146 m 481 553 q 314 621 396 621 q 272 608 282 621 q 209 447 233 547 q 185 238 185 346 q 199 123 185 161 q 253 85 214 85 q 341 127 294 85 q 425 224 388 169 l 481 553 m 272 -242 q 215 -219 236 -242 q 193 -162 193 -197 q 217 -92 193 -124 q 285 -61 242 -61 q 342 -84 319 -61 q 365 -144 365 -107 q 341 -212 365 -183 q 272 -242 317 -242 m 394 785 q 300 808 339 785 q 241 867 261 832 q 221 935 221 903 q 233 968 221 956 q 272 988 244 979 q 315 997 299 997 q 344 913 321 946 q 425 881 367 881 q 508 906 471 881 q 569 963 546 932 q 593 997 593 993 l 631 974 q 606 916 631 964 q 530 826 582 868 q 394 785 478 785 z "},"ằ":{"ha":697,"x_min":50,"x_max":647,"o":"m 50 0 m 421 146 q 325 33 379 79 q 213 -14 271 -14 q 50 208 50 -14 q 85 415 50 294 q 191 624 121 535 q 360 713 261 713 q 448 698 404 713 q 522 668 492 683 l 561 718 l 631 718 l 532 101 l 633 101 l 633 38 q 607 23 628 33 q 553 3 586 13 q 485 -7 521 -7 q 399 64 399 -7 q 425 143 399 96 l 421 146 m 481 553 q 314 621 396 621 q 272 608 282 621 q 209 447 233 547 q 185 238 185 346 q 199 123 185 161 q 253 85 214 85 q 341 127 294 85 q 425 224 388 169 l 481 553 m 411 785 q 317 808 356 785 q 258 867 278 832 q 238 935 238 903 q 250 968 238 956 q 288 988 261 979 q 332 997 315 997 q 360 913 338 946 q 442 881 383 881 q 525 906 488 881 q 586 963 563 932 q 610 997 610 993 l 647 974 q 623 916 647 964 q 547 826 599 868 q 411 785 494 785 m 378 1072 q 313 1116 338 1094 q 289 1161 289 1138 q 356 1238 289 1219 l 553 1036 l 514 989 l 378 1072 z "},"ẳ":{"ha":697,"x_min":50,"x_max":646,"o":"m 50 0 m 421 146 q 325 33 379 79 q 213 -14 271 -14 q 50 208 50 -14 q 85 415 50 294 q 191 624 121 535 q 360 713 261 713 q 448 698 404 713 q 522 668 492 683 l 561 718 l 631 718 l 532 101 l 633 101 l 633 38 q 607 23 628 33 q 553 3 586 13 q 485 -7 521 -7 q 399 64 399 -7 q 425 143 399 96 l 421 146 m 481 553 q 314 621 396 621 q 272 608 282 621 q 209 447 233 547 q 185 238 185 346 q 199 123 185 161 q 253 85 214 85 q 341 127 294 85 q 425 224 388 169 l 481 553 m 410 785 q 315 808 354 785 q 256 867 276 832 q 236 935 236 903 q 249 968 236 956 q 287 988 260 979 q 331 997 314 997 q 359 913 336 946 q 440 881 382 881 q 524 906 486 881 q 585 963 561 932 q 608 997 608 993 l 646 974 q 622 916 646 964 q 545 826 597 868 q 410 785 493 785 m 414 960 q 406 997 406 990 q 419 1031 406 1017 q 468 1061 433 1046 q 508 1086 496 1075 q 519 1114 519 1097 q 506 1138 519 1131 q 461 1146 492 1146 q 375 1135 422 1146 q 365 1172 365 1153 q 387 1214 365 1201 q 463 1226 408 1226 q 585 1201 542 1226 q 628 1126 628 1176 q 603 1065 628 1089 q 532 1018 579 1040 q 497 997 504 1006 q 489 968 489 989 l 414 960 z "},"ẵ":{"ha":697,"x_min":50,"x_max":674,"o":"m 540 1053 q 447 1076 510 1053 l 347 1108 l 247 1061 l 217 1092 l 271 1154 q 308 1193 290 1181 q 349 1206 326 1206 q 389 1199 365 1206 q 436 1185 413 1192 l 543 1150 l 644 1199 l 674 1168 l 619 1107 q 578 1067 597 1081 q 540 1053 560 1053 m 381 785 q 286 808 325 785 q 227 867 247 832 q 207 935 207 903 q 219 968 207 956 q 258 988 231 979 q 301 997 285 997 q 330 913 307 946 q 411 881 353 881 q 494 906 457 881 q 556 963 532 932 q 579 997 579 993 l 617 974 q 592 916 617 964 q 516 826 568 868 q 381 785 464 785 m 421 146 q 325 33 379 79 q 213 -14 271 -14 q 50 208 50 -14 q 85 415 50 294 q 191 624 121 535 q 360 713 261 713 q 448 698 404 713 q 522 668 492 683 l 561 718 l 631 718 l 532 101 l 633 101 l 633 38 q 607 23 628 33 q 553 3 586 13 q 485 -7 521 -7 q 399 64 399 -7 q 425 143 399 96 l 421 146 m 481 553 q 314 621 396 621 q 272 608 282 621 q 209 447 233 547 q 185 238 185 346 q 199 123 185 161 q 253 85 214 85 q 341 127 294 85 q 425 224 388 169 l 481 553 z "},"ǎ":{"ha":697,"x_min":50,"x_max":633,"o":"m 50 0 m 421 146 q 325 33 379 79 q 213 -14 271 -14 q 50 208 50 -14 q 85 415 50 294 q 191 624 121 535 q 360 713 261 713 q 448 698 404 713 q 522 668 492 683 l 561 718 l 631 718 l 532 101 l 633 101 l 633 38 q 607 23 628 33 q 553 3 586 13 q 485 -7 521 -7 q 399 64 399 -7 q 425 143 399 96 l 421 146 m 481 553 q 314 621 396 621 q 272 608 282 621 q 209 447 233 547 q 185 238 185 346 q 199 123 185 161 q 253 85 214 85 q 341 127 294 85 q 425 224 388 169 l 481 553 m 285 1018 l 421 908 l 581 1014 l 619 971 l 482 842 q 430 792 447 807 q 401 776 413 776 q 382 785 392 776 q 362 807 372 793 q 346 828 351 821 l 236 969 l 285 1018 z "},"â":{"ha":703,"x_min":50,"x_max":633,"o":"m 419 882 l 260 782 l 218 822 l 357 956 q 383 981 364 963 q 415 1010 401 1000 q 438 1019 429 1019 q 456 1011 447 1019 q 476 990 465 1003 q 493 969 488 976 l 603 826 l 557 776 l 419 882 m 213 -14 q 50 208 50 -14 q 85 415 50 294 q 191 624 121 535 q 360 713 261 713 q 449 698 404 713 q 522 668 493 683 l 561 718 l 631 718 l 532 101 l 633 101 l 633 38 q 607 23 628 33 q 553 3 586 13 q 485 -7 521 -7 q 399 64 399 -7 q 425 143 399 96 l 421 146 q 325 33 379 79 q 213 -14 271 -14 m 253 85 q 341 127 294 85 q 425 224 388 169 l 481 553 q 314 621 396 621 q 272 608 282 621 q 209 447 233 547 q 185 238 185 346 q 199 123 185 161 q 253 85 214 85 z "},"ấ":{"ha":697,"x_min":50,"x_max":740,"o":"m 50 0 m 421 146 q 325 33 379 79 q 213 -14 271 -14 q 50 208 50 -14 q 85 415 50 294 q 191 624 121 535 q 360 713 261 713 q 448 698 404 713 q 522 668 492 683 l 561 718 l 631 718 l 532 101 l 633 101 l 633 38 q 607 23 628 33 q 553 3 586 13 q 485 -7 521 -7 q 399 64 399 -7 q 425 143 399 96 l 421 146 m 481 553 q 314 621 396 621 q 272 608 282 621 q 209 447 233 547 q 185 238 185 346 q 199 123 185 161 q 253 85 214 85 q 341 127 294 85 q 425 224 388 169 l 481 553 m 374 882 l 215 782 l 174 822 l 313 956 q 340 981 321 963 q 372 1010 358 1000 q 392 1019 385 1019 q 413 1010 403 1019 q 433 987 422 1000 q 447 969 443 974 l 557 826 l 513 776 l 374 882 m 478 1001 l 675 1203 q 740 1126 740 1185 q 716 1081 740 1103 q 653 1038 692 1060 l 515 954 l 478 1001 z "},"ậ":{"ha":697,"x_min":50,"x_max":633,"o":"m 50 0 m 421 146 q 325 33 379 79 q 213 -14 271 -14 q 50 208 50 -14 q 85 415 50 294 q 191 624 121 535 q 360 713 261 713 q 448 698 404 713 q 522 668 492 683 l 561 718 l 631 718 l 532 101 l 633 101 l 633 38 q 607 23 628 33 q 553 3 586 13 q 485 -7 521 -7 q 399 64 399 -7 q 425 143 399 96 l 421 146 m 481 553 q 314 621 396 621 q 272 608 282 621 q 209 447 233 547 q 185 238 185 346 q 199 123 185 161 q 253 85 214 85 q 341 127 294 85 q 425 224 388 169 l 481 553 m 272 -242 q 215 -219 236 -242 q 193 -162 193 -197 q 217 -92 193 -124 q 285 -61 242 -61 q 342 -84 319 -61 q 365 -144 365 -107 q 341 -212 365 -183 q 272 -242 317 -242 m 422 882 l 264 782 l 222 822 l 361 956 q 388 981 369 963 q 420 1010 407 1000 q 440 1019 433 1019 q 461 1010 451 1019 q 481 987 471 1000 q 496 969 492 974 l 606 826 l 561 776 l 422 882 z "},"ầ":{"ha":697,"x_min":50,"x_max":669,"o":"m 50 0 m 421 146 q 325 33 379 79 q 213 -14 271 -14 q 50 208 50 -14 q 85 415 50 294 q 191 624 121 535 q 360 713 261 713 q 448 698 404 713 q 522 668 492 683 l 561 718 l 631 718 l 532 101 l 633 101 l 633 38 q 607 23 628 33 q 553 3 586 13 q 485 -7 521 -7 q 399 64 399 -7 q 425 143 399 96 l 421 146 m 481 553 q 314 621 396 621 q 272 608 282 621 q 209 447 233 547 q 185 238 185 346 q 199 123 185 161 q 253 85 214 85 q 341 127 294 85 q 425 224 388 169 l 481 553 m 413 882 l 254 782 l 213 822 l 351 956 q 378 981 360 963 q 410 1010 397 1000 q 431 1019 424 1019 q 451 1010 442 1019 q 472 987 461 1000 q 486 969 482 974 l 596 826 l 551 776 l 413 882 m 494 1038 q 430 1081 454 1060 q 406 1126 406 1103 q 472 1203 406 1185 l 669 1001 l 631 954 l 494 1038 z "},"ẩ":{"ha":697,"x_min":50,"x_max":749,"o":"m 50 0 m 421 146 q 325 33 379 79 q 213 -14 271 -14 q 50 208 50 -14 q 85 415 50 294 q 191 624 121 535 q 360 713 261 713 q 448 698 404 713 q 522 668 492 683 l 561 718 l 631 718 l 532 101 l 633 101 l 633 38 q 607 23 628 33 q 553 3 586 13 q 485 -7 521 -7 q 399 64 399 -7 q 425 143 399 96 l 421 146 m 481 553 q 314 621 396 621 q 272 608 282 621 q 209 447 233 547 q 185 238 185 346 q 199 123 185 161 q 253 85 214 85 q 341 127 294 85 q 425 224 388 169 l 481 553 m 385 882 l 226 782 l 185 822 l 324 956 q 351 981 332 963 q 383 1010 369 1000 q 403 1019 396 1019 q 424 1010 414 1019 q 444 987 433 1000 q 458 969 454 974 l 568 826 l 524 776 l 385 882 m 535 925 q 526 963 526 956 q 540 997 526 982 q 589 1026 554 1011 q 628 1051 617 1040 q 640 1079 640 1063 q 626 1103 640 1096 q 582 1111 613 1111 q 496 1100 543 1111 q 486 1138 486 1118 q 508 1179 486 1167 q 583 1192 529 1192 q 706 1167 663 1192 q 749 1092 749 1142 q 724 1030 749 1054 q 653 983 700 1006 q 617 963 625 971 q 610 933 610 954 l 535 925 z "},"ẫ":{"ha":697,"x_min":50,"x_max":675,"o":"m 542 1072 q 449 1096 511 1072 l 349 1128 l 249 1081 l 218 1111 l 272 1174 q 310 1213 292 1200 q 350 1225 328 1225 q 390 1218 367 1225 q 438 1204 414 1211 l 544 1169 l 646 1218 l 675 1188 l 621 1126 q 580 1086 599 1100 q 542 1072 561 1072 m 408 882 l 250 782 l 208 822 l 347 956 q 374 981 356 963 q 406 1010 393 1000 q 426 1019 419 1019 q 447 1010 438 1019 q 467 987 457 1000 q 482 969 478 974 l 592 826 l 547 776 l 408 882 m 421 146 q 325 33 379 79 q 213 -14 271 -14 q 50 208 50 -14 q 85 415 50 294 q 191 624 121 535 q 360 713 261 713 q 448 698 404 713 q 522 668 492 683 l 561 718 l 631 718 l 532 101 l 633 101 l 633 38 q 607 23 628 33 q 553 3 586 13 q 485 -7 521 -7 q 399 64 399 -7 q 425 143 399 96 l 421 146 m 481 553 q 314 621 396 621 q 272 608 282 621 q 209 447 233 547 q 185 238 185 346 q 199 123 185 161 q 253 85 214 85 q 341 127 294 85 q 425 224 388 169 l 481 553 z "},"ȁ":{"ha":697,"x_min":50,"x_max":633,"o":"m 50 0 m 421 146 q 325 33 379 79 q 213 -14 271 -14 q 50 208 50 -14 q 85 415 50 294 q 191 624 121 535 q 360 713 261 713 q 448 698 404 713 q 522 668 492 683 l 561 718 l 631 718 l 532 101 l 633 101 l 633 38 q 607 23 628 33 q 553 3 586 13 q 485 -7 521 -7 q 399 64 399 -7 q 425 143 399 96 l 421 146 m 481 553 q 314 621 396 621 q 272 608 282 621 q 209 447 233 547 q 185 238 185 346 q 199 123 185 161 q 253 85 214 85 q 341 127 294 85 q 425 224 388 169 l 481 553 m 225 872 q 188 956 188 926 q 215 1006 188 985 q 294 1035 243 1028 l 356 806 l 300 772 l 225 872 m 447 872 q 417 922 426 903 q 408 956 408 940 q 434 1005 408 983 q 515 1035 460 1026 l 578 806 l 521 772 l 447 872 z "},"ä":{"ha":703,"x_min":50,"x_max":635,"o":"m 275 818 q 224 838 243 818 q 204 886 204 857 q 229 957 204 925 q 297 989 254 989 q 349 969 329 989 q 369 914 369 949 q 344 847 369 876 q 275 818 318 818 m 542 818 q 490 838 510 818 q 471 886 471 857 q 496 957 471 925 q 564 989 521 989 q 615 969 596 989 q 635 914 635 949 q 609 847 635 876 q 542 818 583 818 m 213 -14 q 50 208 50 -14 q 85 415 50 294 q 191 624 121 535 q 360 713 261 713 q 449 698 404 713 q 522 668 493 683 l 561 718 l 631 718 l 532 101 l 633 101 l 633 38 q 607 23 628 33 q 553 3 586 13 q 485 -7 521 -7 q 399 64 399 -7 q 425 143 399 96 l 421 146 q 325 33 379 79 q 213 -14 271 -14 m 253 85 q 341 127 294 85 q 425 224 388 169 l 481 553 q 314 621 396 621 q 272 608 282 621 q 209 447 233 547 q 185 238 185 346 q 199 123 185 161 q 253 85 214 85 z "},"ạ":{"ha":697,"x_min":50,"x_max":633,"o":"m 50 0 m 421 146 q 325 33 379 79 q 213 -14 271 -14 q 50 208 50 -14 q 85 415 50 294 q 191 624 121 535 q 360 713 261 713 q 448 698 404 713 q 522 668 492 683 l 561 718 l 631 718 l 532 101 l 633 101 l 633 38 q 607 23 628 33 q 553 3 586 13 q 485 -7 521 -7 q 399 64 399 -7 q 425 143 399 96 l 421 146 m 481 553 q 314 621 396 621 q 272 608 282 621 q 209 447 233 547 q 185 238 185 346 q 199 123 185 161 q 253 85 214 85 q 341 127 294 85 q 425 224 388 169 l 481 553 m 272 -242 q 215 -219 236 -242 q 193 -162 193 -197 q 217 -92 193 -124 q 285 -61 242 -61 q 342 -84 319 -61 q 365 -144 365 -107 q 341 -212 365 -183 q 272 -242 317 -242 z "},"à":{"ha":703,"x_min":50,"x_max":633,"o":"m 365 857 q 276 946 276 908 q 343 1022 276 1004 l 540 821 l 501 774 l 365 857 m 421 146 q 325 33 379 79 q 213 -14 271 -14 q 50 208 50 -14 q 85 415 50 294 q 191 624 121 535 q 360 713 261 713 q 449 698 404 713 q 522 668 493 683 l 561 718 l 631 718 l 532 101 l 633 101 l 633 38 q 607 23 628 33 q 553 3 586 13 q 485 -7 521 -7 q 399 64 399 -7 q 425 143 399 96 l 421 146 m 481 553 q 314 621 396 621 q 272 608 282 621 q 209 447 233 547 q 185 238 185 346 q 199 123 185 161 q 253 85 214 85 q 341 127 294 85 q 425 224 388 169 l 481 553 z "},"ả":{"ha":697,"x_min":50,"x_max":633,"o":"m 50 0 m 421 146 q 325 33 379 79 q 213 -14 271 -14 q 50 208 50 -14 q 85 415 50 294 q 191 624 121 535 q 360 713 261 713 q 448 698 404 713 q 522 668 492 683 l 561 718 l 631 718 l 532 101 l 633 101 l 633 38 q 607 23 628 33 q 553 3 586 13 q 485 -7 521 -7 q 399 64 399 -7 q 425 143 399 96 l 421 146 m 481 553 q 314 621 396 621 q 272 608 282 621 q 209 447 233 547 q 185 238 185 346 q 199 123 185 161 q 253 85 214 85 q 341 127 294 85 q 425 224 388 169 l 481 553 m 367 744 q 358 782 358 775 q 372 816 358 801 q 421 846 386 831 q 460 871 449 860 q 472 899 472 882 q 458 923 472 915 q 414 931 444 931 q 328 919 375 931 q 318 957 318 938 q 340 999 318 986 q 415 1011 361 1011 q 538 986 494 1011 q 581 911 581 961 q 556 849 581 874 q 485 803 532 825 q 449 782 457 790 q 442 753 442 774 l 367 744 z "},"ȃ":{"ha":697,"x_min":50,"x_max":633,"o":"m 50 0 m 421 146 q 325 33 379 79 q 213 -14 271 -14 q 50 208 50 -14 q 85 415 50 294 q 191 624 121 535 q 360 713 261 713 q 448 698 404 713 q 522 668 492 683 l 561 718 l 631 718 l 532 101 l 633 101 l 633 38 q 607 23 628 33 q 553 3 586 13 q 485 -7 521 -7 q 399 64 399 -7 q 425 143 399 96 l 421 146 m 481 553 q 314 621 396 621 q 272 608 282 621 q 209 447 233 547 q 185 238 185 346 q 199 123 185 161 q 253 85 214 85 q 341 127 294 85 q 425 224 388 169 l 481 553 m 221 811 q 245 868 221 821 q 322 957 269 915 q 457 999 374 999 q 551 975 513 999 q 610 916 590 951 q 631 849 631 881 q 621 818 631 833 q 582 795 610 804 q 536 786 554 786 q 508 871 531 838 q 426 904 485 904 q 343 878 381 904 q 282 821 306 851 q 258 786 258 790 l 221 811 z "},"ā":{"ha":703,"x_min":50,"x_max":638,"o":"m 225 946 l 638 946 l 625 850 l 214 850 l 225 946 m 421 146 q 325 33 379 79 q 213 -14 271 -14 q 50 208 50 -14 q 85 415 50 294 q 191 624 121 535 q 360 713 261 713 q 449 698 404 713 q 522 668 493 683 l 561 718 l 631 718 l 532 101 l 633 101 l 633 38 q 607 23 628 33 q 553 3 586 13 q 485 -7 521 -7 q 399 64 399 -7 q 425 143 399 96 l 421 146 m 481 553 q 314 621 396 621 q 272 608 282 621 q 209 447 233 547 q 185 238 185 346 q 199 123 185 161 q 253 85 214 85 q 341 127 294 85 q 425 224 388 169 l 481 553 z "},"ą":{"ha":699,"x_min":50,"x_max":653,"o":"m 653 -182 q 631 -201 653 -183 q 577 -235 610 -219 q 506 -250 544 -250 q 392 -160 392 -250 q 418 -74 392 -114 q 489 -7 444 -35 l 488 -7 q 419 11 439 -7 q 399 64 399 29 q 425 143 399 96 l 421 146 q 325 33 379 79 q 213 -14 271 -14 q 50 208 50 -14 q 85 415 50 294 q 191 624 121 535 q 360 713 261 713 q 449 698 404 713 q 522 668 493 683 l 561 718 l 631 718 l 532 101 l 633 101 l 633 38 q 593 15 633 36 q 528 -35 563 0 q 494 -118 494 -71 q 509 -158 494 -144 q 550 -172 524 -172 q 601 -159 578 -172 q 628 -144 625 -146 l 653 -182 m 481 553 q 314 621 396 621 q 272 608 282 621 q 209 447 233 547 q 185 238 185 346 q 199 123 185 161 q 253 85 214 85 q 341 127 294 85 q 425 224 388 169 l 481 553 z "},"å":{"ha":699,"x_min":50,"x_max":633,"o":"m 429 781 q 338 807 368 781 q 308 883 308 833 q 348 990 308 944 q 454 1035 388 1035 q 542 1008 511 1035 q 574 931 574 982 q 535 825 574 869 q 429 781 496 781 m 440 843 q 479 863 468 843 q 490 922 490 882 q 478 958 490 947 q 440 969 465 969 q 401 951 413 969 q 390 893 390 933 q 402 856 390 868 q 440 843 414 843 m 213 -14 q 50 208 50 -14 q 85 415 50 294 q 191 624 121 535 q 360 713 261 713 q 449 698 404 713 q 522 668 493 683 l 561 718 l 631 718 l 532 101 l 633 101 l 633 38 q 607 23 628 33 q 553 3 586 13 q 485 -7 521 -7 q 399 64 399 -7 q 425 143 399 96 l 421 146 q 325 33 379 79 q 213 -14 271 -14 m 253 85 q 341 127 294 85 q 425 224 388 169 l 481 553 q 314 621 396 621 q 272 608 282 621 q 209 447 233 547 q 185 238 185 346 q 199 123 185 161 q 253 85 214 85 z "},"ǻ":{"ha":697,"x_min":50,"x_max":647,"o":"m 50 0 m 421 146 q 325 33 379 79 q 213 -14 271 -14 q 50 208 50 -14 q 85 415 50 294 q 191 624 121 535 q 360 713 261 713 q 448 698 404 713 q 522 668 492 683 l 561 718 l 631 718 l 532 101 l 633 101 l 633 38 q 607 23 628 33 q 553 3 586 13 q 485 -7 521 -7 q 399 64 399 -7 q 425 143 399 96 l 421 146 m 481 553 q 314 621 396 621 q 272 608 282 621 q 209 447 233 547 q 185 238 185 346 q 199 123 185 161 q 253 85 214 85 q 341 127 294 85 q 425 224 388 169 l 481 553 m 417 781 q 325 807 356 781 q 294 883 294 833 q 334 990 294 944 q 440 1035 374 1035 q 530 1008 499 1035 q 561 931 561 981 q 522 825 561 869 q 417 781 483 781 m 428 843 q 467 863 456 843 q 478 922 478 882 q 465 958 478 947 q 428 969 453 969 q 388 951 400 969 q 376 893 376 933 q 388 856 376 868 q 428 843 400 843 m 385 1169 l 582 1371 q 647 1294 647 1353 q 623 1249 647 1271 q 560 1206 599 1228 l 422 1122 l 385 1169 z "},"ã":{"ha":703,"x_min":50,"x_max":668,"o":"m 535 818 q 442 842 504 818 l 342 875 l 240 826 l 211 858 l 265 924 q 303 964 285 951 q 343 976 321 976 q 383 969 360 976 q 431 956 407 963 l 536 919 l 638 969 l 668 938 l 614 874 q 573 833 592 847 q 535 818 554 818 m 213 -14 q 50 208 50 -14 q 85 415 50 294 q 191 624 121 535 q 360 713 261 713 q 449 698 404 713 q 522 668 493 683 l 561 718 l 631 718 l 532 101 l 633 101 l 633 38 q 607 23 628 33 q 553 3 586 13 q 485 -7 521 -7 q 399 64 399 -7 q 425 143 399 96 l 421 146 q 325 33 379 79 q 213 -14 271 -14 m 253 85 q 341 127 294 85 q 425 224 388 169 l 481 553 q 314 621 396 621 q 272 608 282 621 q 209 447 233 547 q 185 238 185 346 q 199 123 185 161 q 253 85 214 85 z "},"æ":{"ha":906,"x_min":49,"x_max":890,"o":"m 665 79 q 738 95 696 79 q 817 136 781 111 l 844 92 q 735 17 803 46 q 604 -12 667 -12 q 465 19 511 -12 q 407 124 419 51 q 318 22 369 58 q 213 -14 267 -14 q 49 208 49 -14 q 94 448 49 331 q 213 639 140 565 q 360 713 285 713 q 453 694 397 713 q 563 644 510 675 q 726 713 632 713 q 844 674 799 713 q 890 574 890 635 q 795 386 890 461 q 535 292 700 311 l 535 281 q 547 160 535 203 q 587 98 558 117 q 665 79 615 79 m 615 607 q 569 501 589 568 q 540 356 549 433 q 710 422 654 375 q 765 546 765 469 q 686 624 765 624 q 641 619 660 624 q 615 607 622 614 m 403 231 q 428 399 406 315 q 488 547 451 483 q 394 601 440 582 q 313 621 349 621 q 272 608 281 621 q 208 443 232 543 q 183 238 183 343 q 200 121 183 157 q 253 85 217 85 q 342 130 296 85 q 403 231 388 175 z "},"ǽ":{"ha":906,"x_min":49,"x_max":890,"o":"m 49 0 m 665 79 q 738 95 696 79 q 817 136 781 111 l 844 92 q 735 17 803 46 q 604 -12 667 -12 q 465 19 511 -12 q 407 124 419 51 q 318 22 369 58 q 213 -14 267 -14 q 49 208 49 -14 q 94 448 49 331 q 213 639 140 565 q 360 713 285 713 q 453 694 397 713 q 563 644 510 675 q 726 713 632 713 q 844 674 799 713 q 890 574 890 635 q 795 386 890 461 q 535 292 700 311 l 535 281 q 547 160 535 203 q 587 98 558 117 q 665 79 615 79 m 615 607 q 569 501 589 568 q 540 356 549 433 q 710 422 654 375 q 765 546 765 469 q 686 624 765 624 q 641 619 660 624 q 615 607 622 614 m 403 231 q 428 399 406 315 q 488 547 451 483 q 394 601 440 582 q 313 621 349 621 q 272 608 281 621 q 208 443 232 543 q 183 238 183 343 q 200 121 183 157 q 253 85 217 85 q 342 130 296 85 q 403 231 388 175 m 515 821 l 713 1022 q 778 946 778 1004 q 753 901 778 922 q 690 857 729 879 l 553 774 l 515 821 z "},"b":{"ha":663,"x_min":47,"x_max":624,"o":"m 82 886 l 82 947 l 308 974 l 308 865 l 271 625 q 260 602 269 615 q 249 585 251 589 l 251 581 q 343 672 289 631 q 458 713 397 713 q 624 497 624 713 q 591 288 624 408 q 487 76 558 167 q 307 -14 415 -14 q 244 -9 274 -14 q 195 1 214 -4 q 172 7 176 6 l 47 49 l 190 864 l 82 886 m 189 124 q 354 78 261 78 q 390 80 381 78 q 403 88 400 82 q 465 249 439 146 q 492 460 492 353 q 472 576 492 543 q 407 608 453 608 q 328 583 369 608 q 253 528 286 558 l 189 124 z "},"c":{"ha":536,"x_min":40,"x_max":535,"o":"m 475 92 q 444 60 475 88 q 360 10 414 33 q 232 -14 306 -14 q 86 40 132 -14 q 40 210 40 93 q 77 448 40 332 q 188 638 114 564 q 367 713 261 713 q 535 593 535 713 q 521 531 535 558 q 489 486 507 504 q 471 471 471 468 l 428 471 l 417 608 q 390 615 417 610 q 326 621 363 621 q 251 604 268 621 q 222 541 240 589 q 189 424 204 493 q 174 281 174 356 q 188 158 174 200 q 230 99 201 115 q 306 83 258 83 q 365 96 335 83 q 417 122 396 108 q 444 139 439 135 l 475 92 z "},"ć":{"ha":536,"x_min":40,"x_max":535,"o":"m 251 821 l 449 1022 q 514 946 514 1004 q 426 857 514 908 l 289 774 l 251 821 m 232 -14 q 86 40 132 -14 q 40 210 40 93 q 77 448 40 332 q 188 638 114 564 q 367 713 261 713 q 535 593 535 713 q 521 531 535 558 q 489 486 507 504 q 471 471 471 468 l 428 471 l 417 608 q 390 615 417 610 q 326 621 363 621 q 251 604 268 621 q 222 541 240 589 q 189 424 204 493 q 174 281 174 356 q 188 158 174 200 q 230 99 201 115 q 306 83 258 83 q 365 96 335 83 q 417 122 396 108 q 444 139 439 135 l 475 92 q 444 60 475 88 q 360 10 414 33 q 232 -14 306 -14 z "},"č":{"ha":536,"x_min":40,"x_max":564,"o":"m 231 1018 l 365 908 l 525 1014 l 564 971 l 426 842 q 401 817 421 836 q 368 787 382 797 q 346 776 354 776 q 326 785 336 776 q 306 808 317 794 q 290 828 294 822 l 181 969 l 231 1018 m 475 92 q 444 60 475 88 q 360 10 414 33 q 232 -14 306 -14 q 86 40 132 -14 q 40 210 40 93 q 77 448 40 332 q 188 638 114 564 q 367 713 261 713 q 535 593 535 713 q 521 531 535 558 q 489 486 507 504 q 471 471 471 468 l 428 471 l 417 608 q 390 615 417 610 q 326 621 363 621 q 251 604 268 621 q 222 541 240 589 q 189 424 204 493 q 174 281 174 356 q 188 158 174 200 q 230 99 201 115 q 306 83 258 83 q 365 96 335 83 q 417 122 396 108 q 444 139 439 135 l 475 92 z "},"ç":{"ha":536,"x_min":40,"x_max":535,"o":"m 114 -175 q 153 -192 135 -186 q 204 -197 171 -197 q 242 -190 231 -197 q 254 -169 254 -183 q 222 -135 254 -151 l 153 -99 l 153 -69 l 193 -11 q 77 52 114 -1 q 40 210 40 106 q 77 448 40 332 q 188 638 114 564 q 367 713 261 713 q 535 593 535 713 q 521 531 535 558 q 489 486 507 504 q 471 471 471 468 l 428 471 l 417 608 q 390 615 417 610 q 326 621 363 621 q 251 604 268 621 q 222 541 240 589 q 189 424 204 493 q 174 281 174 356 q 188 158 174 200 q 230 99 201 115 q 306 83 258 83 q 365 96 335 83 q 417 122 396 108 q 444 139 439 135 l 475 92 q 448 64 475 89 q 373 16 421 39 q 261 -11 325 -7 l 261 -40 l 308 -68 q 361 -142 361 -99 q 318 -235 361 -208 q 214 -262 275 -262 q 83 -224 142 -262 l 114 -175 z "},"ĉ":{"ha":536,"x_min":40,"x_max":568,"o":"m 40 0 m 475 92 q 444 60 475 88 q 360 10 414 33 q 232 -14 306 -14 q 86 40 132 -14 q 40 210 40 93 q 77 448 40 332 q 188 638 114 564 q 367 713 261 713 q 535 593 535 713 q 521 531 535 558 q 489 486 507 504 q 471 471 471 468 l 428 471 l 417 608 q 390 615 417 610 q 326 621 363 621 q 251 604 268 621 q 222 541 240 589 q 189 424 204 493 q 174 281 174 356 q 188 158 174 200 q 230 99 201 115 q 306 83 258 83 q 365 96 335 83 q 417 122 396 108 q 444 139 439 135 l 475 92 m 385 882 l 226 782 l 185 822 l 324 956 q 351 981 332 963 q 383 1010 369 1000 q 403 1019 396 1019 q 424 1010 414 1019 q 444 987 433 1000 q 458 969 454 974 l 568 826 l 524 776 l 385 882 z "},"ċ":{"ha":536,"x_min":40,"x_max":535,"o":"m 40 0 m 475 92 q 444 60 475 88 q 360 10 414 33 q 232 -14 306 -14 q 86 40 132 -14 q 40 210 40 93 q 77 448 40 332 q 188 638 114 564 q 367 713 261 713 q 535 593 535 713 q 521 531 535 558 q 489 486 507 504 q 471 471 471 468 l 428 471 l 417 608 q 390 615 417 610 q 326 621 363 621 q 251 604 268 621 q 222 541 240 589 q 189 424 204 493 q 174 281 174 356 q 188 158 174 200 q 230 99 201 115 q 306 83 258 83 q 365 96 335 83 q 417 122 396 108 q 444 139 439 135 l 475 92 m 383 811 q 326 833 347 811 q 304 890 304 856 q 328 960 304 929 q 396 992 353 992 q 453 969 431 992 q 476 908 476 946 q 452 840 476 869 q 383 811 428 811 z "},"d":{"ha":701,"x_min":50,"x_max":661,"o":"m 431 146 q 335 30 390 74 q 215 -14 281 -14 q 92 45 133 -14 q 50 208 50 104 q 89 424 50 304 q 200 628 128 543 q 369 713 272 713 q 514 678 442 713 l 547 865 l 436 888 l 436 947 l 661 974 l 661 865 l 540 101 l 640 101 l 640 38 q 615 23 635 33 q 563 3 594 13 q 497 -7 531 -7 q 429 8 450 -7 q 408 58 408 22 q 415 97 408 78 q 435 143 421 115 l 431 146 m 490 553 q 314 621 408 621 q 289 616 300 621 q 274 606 278 611 q 210 450 238 549 q 183 238 183 351 q 199 125 183 165 q 254 85 215 85 q 345 125 299 85 q 429 218 392 165 l 490 553 z "},"ð":{"ha":647,"x_min":50,"x_max":599,"o":"m 256 -14 q 102 47 154 -14 q 50 225 50 108 q 93 474 50 363 q 211 649 136 585 q 379 713 286 713 q 432 704 407 713 q 389 781 410 753 q 338 828 368 808 l 185 729 l 143 790 l 258 864 q 75 888 188 888 l 75 951 q 172 960 104 960 q 357 928 279 960 l 476 1006 l 517 944 l 432 889 q 599 508 599 775 q 557 231 599 349 q 438 49 515 113 q 256 -14 361 -14 m 307 74 q 390 92 372 74 q 440 233 418 128 q 463 438 463 338 q 454 590 463 540 q 321 619 400 619 q 283 614 303 619 q 258 603 264 608 q 208 461 231 572 q 185 249 185 350 q 211 112 185 150 q 307 74 238 74 z "},"ď":{"ha":704,"x_min":50,"x_max":840,"o":"m 692 792 q 704 813 694 796 q 723 857 714 829 q 732 915 732 885 q 714 978 732 951 q 776 1014 736 1014 q 824 996 808 1014 q 840 947 840 978 q 816 860 840 899 q 763 797 792 821 q 719 765 733 772 l 692 792 m 431 146 q 335 30 390 74 q 215 -14 281 -14 q 92 45 133 -14 q 50 208 50 104 q 89 424 50 304 q 200 628 128 543 q 369 713 272 713 q 514 678 442 713 l 547 865 l 436 888 l 436 947 l 661 974 l 661 865 l 540 101 l 640 101 l 640 38 q 615 23 635 33 q 563 3 594 13 q 497 -7 531 -7 q 429 8 450 -7 q 408 58 408 22 q 415 97 408 78 q 435 143 421 115 l 431 146 m 490 553 q 314 621 408 621 q 289 616 300 621 q 274 606 278 611 q 210 450 238 549 q 183 238 183 351 q 199 125 183 165 q 254 85 215 85 q 345 125 299 85 q 429 218 392 165 l 490 553 z "},"đ":{"ha":704,"x_min":50,"x_max":729,"o":"m 215 -14 q 92 45 133 -14 q 50 208 50 104 q 88 422 50 304 q 199 622 126 539 q 368 706 271 706 q 513 672 439 706 l 532 775 l 303 775 l 303 854 l 544 854 l 550 876 l 474 914 l 474 951 l 667 974 l 663 875 l 660 854 l 729 854 l 729 775 l 647 775 l 540 101 l 640 101 l 640 38 q 615 23 635 33 q 563 3 594 13 q 497 -7 531 -7 q 429 8 450 -7 q 408 58 408 22 q 415 97 408 78 q 435 143 421 115 l 431 146 q 335 30 390 74 q 215 -14 281 -14 m 254 85 q 345 125 299 85 q 429 218 392 165 l 490 549 q 313 614 406 614 q 288 608 299 614 q 272 597 276 603 q 210 447 236 542 q 183 238 183 351 q 199 125 183 165 q 254 85 215 85 z "},"ḍ":{"ha":701,"x_min":50,"x_max":661,"o":"m 50 0 m 431 146 q 335 30 390 74 q 215 -14 281 -14 q 92 45 133 -14 q 50 208 50 104 q 89 424 50 304 q 200 628 128 543 q 369 713 272 713 q 514 678 442 713 l 547 865 l 436 888 l 436 947 l 661 974 l 661 865 l 540 101 l 640 101 l 640 38 q 615 23 635 33 q 563 3 594 13 q 497 -7 531 -7 q 429 8 450 -7 q 408 58 408 22 q 415 97 408 78 q 435 143 421 115 l 431 146 m 490 553 q 314 621 408 621 q 289 616 300 621 q 274 606 278 611 q 210 450 238 549 q 183 238 183 351 q 199 125 183 165 q 254 85 215 85 q 345 125 299 85 q 429 218 392 165 l 490 553 m 275 -242 q 217 -219 239 -242 q 196 -162 196 -197 q 220 -92 196 -124 q 288 -61 244 -61 q 345 -84 322 -61 q 368 -144 368 -107 q 344 -212 368 -183 q 275 -242 319 -242 z "},"ǳ":{"ha":1251,"x_min":50,"x_max":1289,"o":"m 50 0 m 431 146 q 335 30 390 74 q 215 -14 281 -14 q 92 45 133 -14 q 50 208 50 104 q 89 424 50 304 q 200 628 128 543 q 369 713 272 713 q 514 678 442 713 l 547 865 l 436 888 l 436 947 l 661 974 l 661 865 l 540 101 l 640 101 l 640 38 q 615 23 635 33 q 563 3 594 13 q 497 -7 531 -7 q 429 8 450 -7 q 408 58 408 22 q 415 97 408 78 q 435 143 421 115 l 431 146 m 490 553 q 314 621 408 621 q 289 616 300 621 q 274 606 278 611 q 210 450 238 549 q 183 238 183 351 q 199 125 183 165 q 254 85 215 85 q 345 125 299 85 q 429 218 392 165 l 490 553 m 1071 550 l 879 633 l 843 504 l 789 504 q 778 522 786 508 q 762 560 769 536 q 754 614 754 585 q 786 688 754 664 q 869 713 818 713 q 1019 689 922 713 l 1167 654 l 1244 710 l 1289 675 l 885 154 l 885 139 l 1092 67 l 1129 194 l 1182 194 q 1192 176 1185 190 q 1207 136 1200 161 q 1214 82 1214 111 q 1181 10 1214 33 q 1099 -14 1147 -14 q 1026 -8 1065 -14 q 947 7 988 -1 l 786 38 l 718 -10 l 671 32 l 1071 536 l 1071 550 z "},"ǆ":{"ha":1251,"x_min":50,"x_max":1289,"o":"m 50 0 m 431 146 q 335 30 390 74 q 215 -14 281 -14 q 92 45 133 -14 q 50 208 50 104 q 89 424 50 304 q 200 628 128 543 q 369 713 272 713 q 514 678 442 713 l 547 865 l 436 888 l 436 947 l 661 974 l 661 865 l 540 101 l 640 101 l 640 38 q 615 23 635 33 q 563 3 594 13 q 497 -7 531 -7 q 429 8 450 -7 q 408 58 408 22 q 415 97 408 78 q 435 143 421 115 l 431 146 m 490 553 q 314 621 408 621 q 289 616 300 621 q 274 606 278 611 q 210 450 238 549 q 183 238 183 351 q 199 125 183 165 q 254 85 215 85 q 345 125 299 85 q 429 218 392 165 l 490 553 m 1071 550 l 879 633 l 843 504 l 789 504 q 778 522 786 508 q 762 560 769 536 q 754 614 754 585 q 786 688 754 664 q 869 713 818 713 q 1019 689 922 713 l 1167 654 l 1244 710 l 1289 675 l 885 154 l 885 139 l 1092 67 l 1129 194 l 1182 194 q 1192 176 1185 190 q 1207 136 1200 161 q 1214 82 1214 111 q 1181 10 1214 33 q 1099 -14 1147 -14 q 1026 -8 1065 -14 q 947 7 988 -1 l 786 38 l 718 -10 l 671 32 l 1071 536 l 1071 550 m 917 1019 l 1053 910 l 1213 1015 l 1251 972 l 1114 843 q 1062 793 1079 808 q 1033 778 1044 778 q 1014 786 1024 778 q 994 808 1004 794 q 978 829 983 822 l 868 971 l 917 1019 z "},"e":{"ha":553,"x_min":51,"x_max":540,"o":"m 258 -12 q 100 35 149 -12 q 51 201 51 82 q 88 433 51 314 q 198 632 125 551 q 375 713 271 713 q 497 670 454 713 q 540 574 540 628 q 494 415 540 472 q 378 333 449 358 q 183 283 308 308 l 183 256 q 197 149 183 186 q 238 95 210 111 q 319 79 267 79 q 391 96 350 79 q 465 139 432 113 l 493 94 q 390 17 456 47 q 258 -12 324 -12 m 190 347 q 338 400 290 372 q 401 460 386 428 q 415 546 415 493 q 336 624 415 624 q 290 619 310 624 q 264 607 271 614 q 219 497 240 571 q 190 347 199 422 z "},"é":{"ha":553,"x_min":51,"x_max":540,"o":"m 258 821 l 454 1022 q 521 946 521 1004 q 433 857 521 908 l 296 774 l 258 821 m 258 -12 q 100 35 149 -12 q 51 201 51 82 q 88 433 51 314 q 198 632 125 551 q 375 713 271 713 q 497 670 454 713 q 540 574 540 628 q 494 415 540 472 q 378 333 449 358 q 183 283 308 308 l 183 256 q 197 149 183 186 q 238 95 210 111 q 319 79 267 79 q 391 96 350 79 q 465 139 432 113 l 493 94 q 390 17 456 47 q 258 -12 324 -12 m 190 347 q 338 400 290 372 q 401 460 386 428 q 415 546 415 493 q 336 624 415 624 q 290 619 310 624 q 264 607 271 614 q 219 497 240 571 q 190 347 199 422 z "},"ĕ":{"ha":553,"x_min":51,"x_max":586,"o":"m 51 0 m 258 -12 q 100 35 149 -12 q 51 201 51 82 q 88 433 51 314 q 198 632 125 551 q 375 713 271 713 q 497 670 454 713 q 540 574 540 628 q 494 415 540 472 q 378 333 449 358 q 183 283 308 308 l 183 256 q 197 149 183 186 q 238 95 210 111 q 319 79 267 79 q 391 96 350 79 q 465 139 432 113 l 493 94 q 390 17 456 47 q 258 -12 324 -12 m 190 347 q 338 400 290 372 q 401 460 386 428 q 415 546 415 493 q 336 624 415 624 q 290 619 310 624 q 264 607 271 614 q 219 497 240 571 q 190 347 199 422 m 350 785 q 256 808 294 785 q 197 867 217 832 q 176 935 176 903 q 189 968 176 956 q 227 988 200 979 q 271 997 254 997 q 299 913 276 946 q 381 881 322 881 q 464 906 426 881 q 525 963 501 932 q 549 997 549 993 l 586 974 q 562 916 586 964 q 485 826 538 868 q 350 785 433 785 z "},"ě":{"ha":553,"x_min":50,"x_max":575,"o":"m 358 776 q 339 785 349 776 q 319 807 329 793 q 303 828 308 821 l 193 969 l 242 1018 l 376 908 l 536 1014 l 575 971 l 438 842 q 413 817 432 836 q 380 787 393 797 q 358 776 367 776 m 256 -12 q 98 35 146 -12 q 50 201 50 82 q 87 433 50 314 q 197 632 124 551 q 374 713 269 713 q 496 670 453 713 q 539 574 539 628 q 493 415 539 472 q 377 333 447 358 q 182 283 307 308 l 182 256 q 194 149 182 186 q 236 95 207 111 q 317 79 265 79 q 380 92 347 79 q 435 120 413 106 q 464 139 458 135 l 492 94 q 460 63 492 90 q 375 11 428 35 q 256 -12 322 -12 m 189 347 q 337 400 289 372 q 399 460 385 428 q 414 546 414 493 q 335 624 414 624 q 288 619 308 624 q 263 607 268 614 q 218 497 239 571 q 189 347 197 422 z "},"ê":{"ha":553,"x_min":51,"x_max":553,"o":"m 369 882 l 210 782 l 169 822 l 308 956 q 335 981 317 963 q 367 1010 354 1000 q 388 1019 381 1019 q 408 1010 399 1019 q 428 987 418 1000 q 443 969 439 974 l 553 826 l 508 776 l 369 882 m 258 -12 q 100 35 149 -12 q 51 201 51 82 q 88 433 51 314 q 198 632 125 551 q 375 713 271 713 q 497 670 454 713 q 540 574 540 628 q 494 415 540 472 q 378 333 449 358 q 183 283 308 308 l 183 256 q 197 149 183 186 q 238 95 210 111 q 319 79 267 79 q 391 96 350 79 q 465 139 432 113 l 493 94 q 390 17 456 47 q 258 -12 324 -12 m 190 347 q 338 400 290 372 q 401 460 386 428 q 415 546 415 493 q 336 624 415 624 q 290 619 310 624 q 264 607 271 614 q 219 497 240 571 q 190 347 199 422 z "},"ế":{"ha":553,"x_min":51,"x_max":696,"o":"m 51 0 m 258 -12 q 100 35 149 -12 q 51 201 51 82 q 88 433 51 314 q 198 632 125 551 q 375 713 271 713 q 497 670 454 713 q 540 574 540 628 q 494 415 540 472 q 378 333 449 358 q 183 283 308 308 l 183 256 q 197 149 183 186 q 238 95 210 111 q 319 79 267 79 q 391 96 350 79 q 465 139 432 113 l 493 94 q 390 17 456 47 q 258 -12 324 -12 m 190 347 q 338 400 290 372 q 401 460 386 428 q 415 546 415 493 q 336 624 415 624 q 290 619 310 624 q 264 607 271 614 q 219 497 240 571 q 190 347 199 422 m 329 882 l 171 782 l 129 822 l 268 956 q 295 981 276 963 q 327 1010 314 1000 q 347 1019 340 1019 q 368 1010 358 1019 q 388 987 378 1000 q 403 969 399 974 l 513 826 l 468 776 l 329 882 m 433 1001 l 631 1203 q 696 1126 696 1185 q 672 1081 696 1103 q 608 1038 647 1060 l 471 954 l 433 1001 z "},"ệ":{"ha":553,"x_min":51,"x_max":561,"o":"m 51 0 m 258 -12 q 100 35 149 -12 q 51 201 51 82 q 88 433 51 314 q 198 632 125 551 q 375 713 271 713 q 497 670 454 713 q 540 574 540 628 q 494 415 540 472 q 378 333 449 358 q 183 283 308 308 l 183 256 q 197 149 183 186 q 238 95 210 111 q 319 79 267 79 q 391 96 350 79 q 465 139 432 113 l 493 94 q 390 17 456 47 q 258 -12 324 -12 m 190 347 q 338 400 290 372 q 401 460 386 428 q 415 546 415 493 q 336 624 415 624 q 290 619 310 624 q 264 607 271 614 q 219 497 240 571 q 190 347 199 422 m 228 -242 q 170 -219 192 -242 q 149 -162 149 -197 q 173 -92 149 -124 q 240 -61 197 -61 q 298 -84 275 -61 q 321 -144 321 -107 q 297 -212 321 -183 q 228 -242 272 -242 m 378 882 l 219 782 l 178 822 l 317 956 q 344 981 325 963 q 376 1010 363 1000 q 396 1019 389 1019 q 417 1010 407 1019 q 437 987 426 1000 q 451 969 447 974 l 561 826 l 517 776 l 378 882 z "},"ề":{"ha":553,"x_min":51,"x_max":625,"o":"m 51 0 m 258 -12 q 100 35 149 -12 q 51 201 51 82 q 88 433 51 314 q 198 632 125 551 q 375 713 271 713 q 497 670 454 713 q 540 574 540 628 q 494 415 540 472 q 378 333 449 358 q 183 283 308 308 l 183 256 q 197 149 183 186 q 238 95 210 111 q 319 79 267 79 q 391 96 350 79 q 465 139 432 113 l 493 94 q 390 17 456 47 q 258 -12 324 -12 m 190 347 q 338 400 290 372 q 401 460 386 428 q 415 546 415 493 q 336 624 415 624 q 290 619 310 624 q 264 607 271 614 q 219 497 240 571 q 190 347 199 422 m 368 882 l 210 782 l 168 822 l 307 956 q 334 981 315 963 q 366 1010 353 1000 q 386 1019 379 1019 q 407 1010 397 1019 q 427 987 417 1000 q 442 969 438 974 l 551 826 l 507 776 l 368 882 m 450 1038 q 385 1081 410 1060 q 361 1126 361 1103 q 428 1203 361 1185 l 625 1001 l 586 954 l 450 1038 z "},"ể":{"ha":553,"x_min":51,"x_max":704,"o":"m 51 0 m 258 -12 q 100 35 149 -12 q 51 201 51 82 q 88 433 51 314 q 198 632 125 551 q 375 713 271 713 q 497 670 454 713 q 540 574 540 628 q 494 415 540 472 q 378 333 449 358 q 183 283 308 308 l 183 256 q 197 149 183 186 q 238 95 210 111 q 319 79 267 79 q 391 96 350 79 q 465 139 432 113 l 493 94 q 390 17 456 47 q 258 -12 324 -12 m 190 347 q 338 400 290 372 q 401 460 386 428 q 415 546 415 493 q 336 624 415 624 q 290 619 310 624 q 264 607 271 614 q 219 497 240 571 q 190 347 199 422 m 340 882 l 182 782 l 140 822 l 279 956 q 306 981 288 963 q 338 1010 325 1000 q 358 1019 351 1019 q 379 1010 369 1019 q 399 987 389 1000 q 414 969 410 974 l 524 826 l 479 776 l 340 882 m 490 925 q 482 963 482 956 q 496 997 482 982 q 544 1026 510 1011 q 584 1051 572 1040 q 596 1079 596 1063 q 582 1103 596 1096 q 538 1111 568 1111 q 451 1100 499 1111 q 442 1138 442 1118 q 463 1179 442 1167 q 539 1192 485 1192 q 661 1167 618 1192 q 704 1092 704 1142 q 680 1030 704 1054 q 608 983 656 1006 q 573 963 581 971 q 565 933 565 954 l 490 925 z "},"ễ":{"ha":553,"x_min":51,"x_max":631,"o":"m 497 1072 q 404 1096 467 1072 l 304 1128 l 204 1081 l 174 1111 l 228 1174 q 265 1213 247 1200 q 306 1225 283 1225 q 346 1218 322 1225 q 393 1204 369 1211 l 500 1169 l 601 1218 l 631 1188 l 576 1126 q 535 1086 554 1100 q 497 1072 517 1072 m 364 882 l 206 782 l 164 822 l 303 956 q 330 981 311 963 q 362 1010 349 1000 q 382 1019 375 1019 q 403 1010 393 1019 q 423 987 413 1000 q 438 969 433 974 l 547 826 l 503 776 l 364 882 m 258 -12 q 100 35 149 -12 q 51 201 51 82 q 88 433 51 314 q 198 632 125 551 q 375 713 271 713 q 497 670 454 713 q 540 574 540 628 q 494 415 540 472 q 378 333 449 358 q 183 283 308 308 l 183 256 q 197 149 183 186 q 238 95 210 111 q 319 79 267 79 q 391 96 350 79 q 465 139 432 113 l 493 94 q 390 17 456 47 q 258 -12 324 -12 m 190 347 q 338 400 290 372 q 401 460 386 428 q 415 546 415 493 q 336 624 415 624 q 290 619 310 624 q 264 607 271 614 q 219 497 240 571 q 190 347 199 422 z "},"ȅ":{"ha":553,"x_min":51,"x_max":540,"o":"m 51 0 m 258 -12 q 100 35 149 -12 q 51 201 51 82 q 88 433 51 314 q 198 632 125 551 q 375 713 271 713 q 497 670 454 713 q 540 574 540 628 q 494 415 540 472 q 378 333 449 358 q 183 283 308 308 l 183 256 q 197 149 183 186 q 238 95 210 111 q 319 79 267 79 q 391 96 350 79 q 465 139 432 113 l 493 94 q 390 17 456 47 q 258 -12 324 -12 m 190 347 q 338 400 290 372 q 401 460 386 428 q 415 546 415 493 q 336 624 415 624 q 290 619 310 624 q 264 607 271 614 q 219 497 240 571 q 190 347 199 422 m 181 872 q 143 956 143 926 q 171 1006 143 985 q 250 1035 199 1028 l 311 806 l 256 772 l 181 872 m 403 872 q 373 922 382 903 q 364 956 364 940 q 390 1005 364 983 q 471 1035 415 1026 l 533 806 l 476 772 l 403 872 z "},"ë":{"ha":553,"x_min":51,"x_max":581,"o":"m 221 818 q 169 838 189 818 q 150 886 150 857 q 174 957 150 925 q 242 989 199 989 q 294 969 275 989 q 314 914 314 949 q 288 847 314 876 q 221 818 263 818 m 488 818 q 436 838 456 818 q 417 886 417 857 q 442 957 417 925 q 510 989 467 989 q 561 969 542 989 q 581 914 581 949 q 555 847 581 876 q 488 818 529 818 m 258 -12 q 100 35 149 -12 q 51 201 51 82 q 88 433 51 314 q 198 632 125 551 q 375 713 271 713 q 497 670 454 713 q 540 574 540 628 q 494 415 540 472 q 378 333 449 358 q 183 283 308 308 l 183 256 q 197 149 183 186 q 238 95 210 111 q 319 79 267 79 q 391 96 350 79 q 465 139 432 113 l 493 94 q 390 17 456 47 q 258 -12 324 -12 m 190 347 q 338 400 290 372 q 401 460 386 428 q 415 546 415 493 q 336 624 415 624 q 290 619 310 624 q 264 607 271 614 q 219 497 240 571 q 190 347 199 422 z "},"ė":{"ha":553,"x_min":50,"x_max":539,"o":"m 375 811 q 319 834 340 811 q 297 890 297 857 q 322 960 297 929 q 389 992 346 992 q 446 969 424 992 q 468 908 468 946 q 444 840 468 869 q 375 811 419 811 m 256 -12 q 98 35 146 -12 q 50 201 50 82 q 87 433 50 314 q 197 632 124 551 q 374 713 269 713 q 496 670 453 713 q 539 574 539 628 q 493 415 539 472 q 377 333 447 358 q 182 283 307 308 l 182 256 q 194 149 182 186 q 236 95 207 111 q 317 79 265 79 q 380 92 347 79 q 435 120 413 106 q 464 139 458 135 l 492 94 q 460 63 492 90 q 375 11 428 35 q 256 -12 322 -12 m 189 347 q 337 400 289 372 q 399 460 385 428 q 414 546 414 493 q 335 624 414 624 q 288 619 308 624 q 263 607 268 614 q 218 497 239 571 q 189 347 197 422 z "},"ẹ":{"ha":553,"x_min":51,"x_max":540,"o":"m 51 0 m 258 -12 q 100 35 149 -12 q 51 201 51 82 q 88 433 51 314 q 198 632 125 551 q 375 713 271 713 q 497 670 454 713 q 540 574 540 628 q 494 415 540 472 q 378 333 449 358 q 183 283 308 308 l 183 256 q 197 149 183 186 q 238 95 210 111 q 319 79 267 79 q 391 96 350 79 q 465 139 432 113 l 493 94 q 390 17 456 47 q 258 -12 324 -12 m 190 347 q 338 400 290 372 q 401 460 386 428 q 415 546 415 493 q 336 624 415 624 q 290 619 310 624 q 264 607 271 614 q 219 497 240 571 q 190 347 199 422 m 228 -242 q 170 -219 192 -242 q 149 -162 149 -197 q 173 -92 149 -124 q 240 -61 197 -61 q 298 -84 275 -61 q 321 -144 321 -107 q 297 -212 321 -183 q 228 -242 272 -242 z "},"è":{"ha":553,"x_min":51,"x_max":540,"o":"m 317 857 q 229 946 229 908 q 296 1022 229 1004 l 493 821 l 454 774 l 317 857 m 258 -12 q 100 35 149 -12 q 51 201 51 82 q 88 433 51 314 q 198 632 125 551 q 375 713 271 713 q 497 670 454 713 q 540 574 540 628 q 494 415 540 472 q 378 333 449 358 q 183 283 308 308 l 183 256 q 197 149 183 186 q 238 95 210 111 q 319 79 267 79 q 391 96 350 79 q 465 139 432 113 l 493 94 q 390 17 456 47 q 258 -12 324 -12 m 190 347 q 338 400 290 372 q 401 460 386 428 q 415 546 415 493 q 336 624 415 624 q 290 619 310 624 q 264 607 271 614 q 219 497 240 571 q 190 347 199 422 z "},"ẻ":{"ha":553,"x_min":51,"x_max":540,"o":"m 51 0 m 258 -12 q 100 35 149 -12 q 51 201 51 82 q 88 433 51 314 q 198 632 125 551 q 375 713 271 713 q 497 670 454 713 q 540 574 540 628 q 494 415 540 472 q 378 333 449 358 q 183 283 308 308 l 183 256 q 197 149 183 186 q 238 95 210 111 q 319 79 267 79 q 391 96 350 79 q 465 139 432 113 l 493 94 q 390 17 456 47 q 258 -12 324 -12 m 190 347 q 338 400 290 372 q 401 460 386 428 q 415 546 415 493 q 336 624 415 624 q 290 619 310 624 q 264 607 271 614 q 219 497 240 571 q 190 347 199 422 m 322 744 q 314 782 314 775 q 328 816 314 801 q 376 846 342 831 q 416 871 404 860 q 428 899 428 882 q 414 923 428 915 q 369 931 400 931 q 283 919 331 931 q 274 957 274 938 q 295 999 274 986 q 371 1011 317 1011 q 493 986 450 1011 q 536 911 536 961 q 512 849 536 874 q 440 803 488 825 q 405 782 413 790 q 397 753 397 774 l 322 744 z "},"ȇ":{"ha":553,"x_min":51,"x_max":586,"o":"m 51 0 m 258 -12 q 100 35 149 -12 q 51 201 51 82 q 88 433 51 314 q 198 632 125 551 q 375 713 271 713 q 497 670 454 713 q 540 574 540 628 q 494 415 540 472 q 378 333 449 358 q 183 283 308 308 l 183 256 q 197 149 183 186 q 238 95 210 111 q 319 79 267 79 q 391 96 350 79 q 465 139 432 113 l 493 94 q 390 17 456 47 q 258 -12 324 -12 m 190 347 q 338 400 290 372 q 401 460 386 428 q 415 546 415 493 q 336 624 415 624 q 290 619 310 624 q 264 607 271 614 q 219 497 240 571 q 190 347 199 422 m 176 811 q 201 868 176 821 q 277 957 225 915 q 413 999 329 999 q 507 975 468 999 q 566 916 546 951 q 586 849 586 881 q 576 818 586 833 q 538 795 565 804 q 492 786 510 786 q 463 871 486 838 q 382 904 440 904 q 299 878 336 904 q 238 821 261 851 q 214 786 214 790 l 176 811 z "},"ē":{"ha":553,"x_min":50,"x_max":585,"o":"m 161 850 l 172 946 l 585 946 l 572 850 l 161 850 m 256 -12 q 98 35 146 -12 q 50 201 50 82 q 87 433 50 314 q 197 632 124 551 q 374 713 269 713 q 496 670 453 713 q 539 574 539 628 q 493 415 539 472 q 377 333 447 358 q 182 283 307 308 l 182 256 q 194 149 182 186 q 236 95 207 111 q 317 79 265 79 q 380 92 347 79 q 435 120 413 106 q 464 139 458 135 l 492 94 q 460 63 492 90 q 375 11 428 35 q 256 -12 322 -12 m 189 347 q 337 400 289 372 q 399 460 385 428 q 414 546 414 493 q 335 624 414 624 q 288 619 308 624 q 263 607 268 614 q 218 497 239 571 q 189 347 197 422 z "},"ę":{"ha":553,"x_min":50,"x_max":539,"o":"m 300 -250 q 188 -160 188 -250 q 211 -78 188 -117 q 275 -11 235 -40 q 256 -12 269 -12 q 98 35 146 -12 q 50 201 50 82 q 87 433 50 314 q 197 632 124 551 q 374 713 269 713 q 496 670 453 713 q 539 574 539 628 q 493 415 539 472 q 377 333 447 358 q 182 283 307 308 l 182 256 q 194 149 182 186 q 236 95 207 111 q 317 79 265 79 q 380 92 347 79 q 435 120 413 106 q 464 139 458 135 l 492 94 q 476 78 489 90 q 440 47 463 65 q 388 15 417 29 q 324 -37 357 -1 q 290 -118 290 -72 q 344 -172 290 -172 q 422 -144 376 -172 l 447 -182 q 426 -201 447 -183 q 372 -235 404 -219 q 300 -250 339 -250 m 189 347 q 337 400 289 372 q 399 460 385 428 q 414 546 414 493 q 335 624 414 624 q 288 619 308 624 q 263 607 268 614 q 218 497 239 571 q 189 347 197 422 z "},"ẽ":{"ha":553,"x_min":51,"x_max":611,"o":"m 51 0 m 258 -12 q 100 35 149 -12 q 51 201 51 82 q 88 433 51 314 q 198 632 125 551 q 375 713 271 713 q 497 670 454 713 q 540 574 540 628 q 494 415 540 472 q 378 333 449 358 q 183 283 308 308 l 183 256 q 197 149 183 186 q 238 95 210 111 q 319 79 267 79 q 391 96 350 79 q 465 139 432 113 l 493 94 q 390 17 456 47 q 258 -12 324 -12 m 190 347 q 338 400 290 372 q 401 460 386 428 q 415 546 415 493 q 336 624 415 624 q 290 619 310 624 q 264 607 271 614 q 219 497 240 571 q 190 347 199 422 m 478 818 q 385 842 447 818 l 285 875 l 185 826 l 154 858 l 208 924 q 246 964 228 951 q 286 976 264 976 q 326 969 303 976 q 374 956 350 963 l 481 919 l 582 969 l 611 938 l 557 874 q 516 833 535 847 q 478 818 497 818 z "},"ə":{"ha":553,"x_min":13,"x_max":501,"o":"m 294 699 q 453 651 404 699 q 501 485 501 604 q 465 253 501 372 q 355 54 428 135 q 178 -26 282 -26 q 56 16 99 -26 q 13 113 13 58 q 58 271 13 214 q 174 353 104 328 q 369 403 244 378 l 369 431 q 356 538 369 500 q 315 591 343 575 q 233 607 286 607 q 162 590 203 607 q 88 547 121 574 l 60 592 q 163 669 97 639 q 294 699 229 699 m 363 339 q 215 286 263 314 q 152 226 167 258 q 138 140 138 193 q 217 63 138 63 q 263 67 243 63 q 289 79 282 72 q 333 190 313 115 q 363 339 354 264 z "},"f":{"ha":386,"x_min":39,"x_max":561,"o":"m 172 619 l 68 619 l 68 667 l 90 704 l 190 704 q 299 910 215 832 q 497 988 382 988 q 545 974 529 988 q 561 931 561 961 q 556 900 561 914 q 544 878 550 886 q 538 869 539 871 l 443 869 q 383 865 407 869 q 350 851 358 860 q 328 815 340 842 q 308 742 315 789 l 303 704 l 451 704 l 451 658 l 429 619 l 290 619 l 169 -232 l 39 -247 l 172 619 z "},"g":{"ha":671,"x_min":-24,"x_max":640,"o":"m 186 -233 q 31 -200 85 -233 q -24 -103 -24 -167 q -2 -33 -24 -71 q 43 15 19 4 l 97 15 l 97 -112 q 155 -142 118 -131 q 226 -153 192 -153 q 317 -137 285 -153 q 367 -85 349 -121 q 399 18 385 -50 q 425 138 415 103 q 450 207 435 174 l 446 210 q 349 94 415 144 q 225 44 282 44 q 106 101 147 44 q 65 263 65 157 q 110 474 65 369 q 225 646 154 579 q 367 713 296 713 q 451 701 407 713 q 535 668 496 689 l 574 718 l 640 718 l 526 31 q 417 -164 507 -94 q 186 -233 326 -233 m 269 143 q 349 176 301 143 q 444 265 397 210 l 494 553 q 404 599 453 582 q 318 617 356 617 q 293 615 300 617 q 282 607 286 613 q 225 463 250 563 q 200 282 200 363 q 219 181 200 218 q 269 143 238 143 z "},"ǵ":{"ha":671,"x_min":-24,"x_max":640,"o":"m 0 0 m 186 -233 q 31 -200 85 -233 q -24 -103 -24 -167 q -2 -33 -24 -71 q 43 15 19 4 l 97 15 l 97 -112 q 155 -142 118 -131 q 226 -153 192 -153 q 317 -137 285 -153 q 367 -85 349 -121 q 399 18 385 -50 q 425 138 415 103 q 450 207 435 174 l 446 210 q 349 94 415 144 q 225 44 282 44 q 106 101 147 44 q 65 263 65 157 q 110 474 65 369 q 225 646 154 579 q 367 713 296 713 q 451 701 407 713 q 535 668 496 689 l 574 718 l 640 718 l 526 31 q 417 -164 507 -94 q 186 -233 326 -233 m 269 143 q 349 176 301 143 q 444 265 397 210 l 494 553 q 404 599 453 582 q 318 617 356 617 q 293 615 300 617 q 282 607 286 613 q 225 463 250 563 q 200 282 200 363 q 219 181 200 218 q 269 143 238 143 m 339 821 l 536 1022 q 601 946 601 1004 q 577 901 601 922 q 514 857 553 879 l 376 774 l 339 821 z "},"ğ":{"ha":671,"x_min":-24,"x_max":654,"o":"m 418 785 q 323 808 363 785 q 263 867 283 832 q 243 935 243 903 q 256 967 243 951 q 294 988 267 979 q 338 997 321 997 q 367 913 344 946 q 447 881 390 881 q 532 906 494 881 q 593 963 569 932 q 617 997 617 993 l 654 974 q 630 916 654 964 q 553 826 606 868 q 418 785 500 785 m 186 -233 q 31 -200 86 -233 q -24 -103 -24 -167 q -9 -43 -24 -69 q 23 -1 6 -17 q 43 15 40 15 l 97 15 l 97 -112 q 117 -125 101 -115 q 161 -144 132 -135 q 226 -153 190 -153 q 313 -139 282 -153 q 365 -89 344 -125 q 399 18 385 -53 q 426 141 418 108 q 450 207 433 174 l 446 210 q 396 138 429 176 q 318 72 363 100 q 225 44 274 44 q 109 97 153 44 q 65 263 65 149 q 99 444 65 336 q 201 632 133 551 q 367 713 269 713 q 455 700 411 713 q 535 668 499 688 l 574 718 l 640 718 l 526 31 q 423 -159 507 -85 q 186 -233 339 -233 m 269 143 q 366 188 313 143 q 444 265 419 233 l 494 553 q 423 594 478 571 q 318 617 368 617 q 294 615 301 617 q 282 607 286 613 q 227 468 254 565 q 200 282 200 371 q 222 172 200 201 q 269 143 244 143 z "},"ǧ":{"ha":671,"x_min":-24,"x_max":640,"o":"m 0 0 m 186 -233 q 31 -200 85 -233 q -24 -103 -24 -167 q -2 -33 -24 -71 q 43 15 19 4 l 97 15 l 97 -112 q 155 -142 118 -131 q 226 -153 192 -153 q 317 -137 285 -153 q 367 -85 349 -121 q 399 18 385 -50 q 425 138 415 103 q 450 207 435 174 l 446 210 q 349 94 415 144 q 225 44 282 44 q 106 101 147 44 q 65 263 65 157 q 110 474 65 369 q 225 646 154 579 q 367 713 296 713 q 451 701 407 713 q 535 668 496 689 l 574 718 l 640 718 l 526 31 q 417 -164 507 -94 q 186 -233 326 -233 m 269 143 q 349 176 301 143 q 444 265 397 210 l 494 553 q 404 599 453 582 q 318 617 356 617 q 293 615 300 617 q 282 607 286 613 q 225 463 250 563 q 200 282 200 363 q 219 181 200 218 q 269 143 238 143 m 272 1018 l 408 908 l 568 1014 l 607 971 l 469 842 q 417 792 435 807 q 389 776 400 776 q 369 785 379 776 q 349 807 360 793 q 333 828 339 821 l 224 969 l 272 1018 z "},"ĝ":{"ha":671,"x_min":-24,"x_max":640,"o":"m 0 0 m 186 -233 q 31 -200 85 -233 q -24 -103 -24 -167 q -2 -33 -24 -71 q 43 15 19 4 l 97 15 l 97 -112 q 155 -142 118 -131 q 226 -153 192 -153 q 317 -137 285 -153 q 367 -85 349 -121 q 399 18 385 -50 q 425 138 415 103 q 450 207 435 174 l 446 210 q 349 94 415 144 q 225 44 282 44 q 106 101 147 44 q 65 263 65 157 q 110 474 65 369 q 225 646 154 579 q 367 713 296 713 q 451 701 407 713 q 535 668 496 689 l 574 718 l 640 718 l 526 31 q 417 -164 507 -94 q 186 -233 326 -233 m 269 143 q 349 176 301 143 q 444 265 397 210 l 494 553 q 404 599 453 582 q 318 617 356 617 q 293 615 300 617 q 282 607 286 613 q 225 463 250 563 q 200 282 200 363 q 219 181 200 218 q 269 143 238 143 m 410 882 l 251 782 l 210 822 l 349 956 q 376 981 357 963 q 408 1010 394 1000 q 428 1019 421 1019 q 449 1010 439 1019 q 469 987 458 1000 q 483 969 479 974 l 593 826 l 549 776 l 410 882 z "},"ģ":{"ha":671,"x_min":-24,"x_max":640,"o":"m 436 774 q 381 794 401 774 q 361 854 361 815 q 410 958 361 915 q 496 1017 458 1000 l 521 988 q 505 971 518 986 q 481 933 492 956 q 471 885 471 910 q 481 838 471 857 q 503 810 492 819 q 436 774 479 774 m 186 -233 q 31 -200 86 -233 q -24 -103 -24 -167 q -9 -43 -24 -69 q 23 -1 6 -17 q 43 15 40 15 l 97 15 l 97 -112 q 117 -125 101 -115 q 161 -144 132 -135 q 226 -153 190 -153 q 313 -139 282 -153 q 365 -89 344 -125 q 399 18 385 -53 q 426 141 418 108 q 450 207 433 174 l 446 210 q 396 138 429 176 q 318 72 363 100 q 225 44 274 44 q 109 97 153 44 q 65 263 65 149 q 99 444 65 336 q 201 632 133 551 q 367 713 269 713 q 455 700 411 713 q 535 668 499 688 l 574 718 l 640 718 l 526 31 q 423 -159 507 -85 q 186 -233 339 -233 m 269 143 q 366 188 313 143 q 444 265 419 233 l 494 553 q 423 594 478 571 q 318 617 368 617 q 294 615 301 617 q 282 607 286 613 q 227 468 254 565 q 200 282 200 371 q 222 172 200 201 q 269 143 244 143 z "},"ġ":{"ha":671,"x_min":-24,"x_max":640,"o":"m 0 0 m 186 -233 q 31 -200 85 -233 q -24 -103 -24 -167 q -2 -33 -24 -71 q 43 15 19 4 l 97 15 l 97 -112 q 155 -142 118 -131 q 226 -153 192 -153 q 317 -137 285 -153 q 367 -85 349 -121 q 399 18 385 -50 q 425 138 415 103 q 450 207 435 174 l 446 210 q 349 94 415 144 q 225 44 282 44 q 106 101 147 44 q 65 263 65 157 q 110 474 65 369 q 225 646 154 579 q 367 713 296 713 q 451 701 407 713 q 535 668 496 689 l 574 718 l 640 718 l 526 31 q 417 -164 507 -94 q 186 -233 326 -233 m 269 143 q 349 176 301 143 q 444 265 397 210 l 494 553 q 404 599 453 582 q 318 617 356 617 q 293 615 300 617 q 282 607 286 613 q 225 463 250 563 q 200 282 200 363 q 219 181 200 218 q 269 143 238 143 m 408 811 q 351 833 372 811 q 329 890 329 856 q 353 960 329 929 q 421 992 378 992 q 478 969 456 992 q 501 908 501 946 q 477 840 501 869 q 408 811 453 811 z "},"h":{"ha":733,"x_min":63,"x_max":668,"o":"m 101 886 l 101 947 l 326 974 l 326 865 l 288 610 q 399 681 339 650 q 511 713 460 713 q 638 589 638 713 q 625 474 638 557 l 565 101 l 668 101 l 668 38 q 642 23 663 33 q 590 3 622 13 q 522 -7 557 -7 q 454 11 474 -7 q 435 67 435 29 q 440 114 435 86 l 503 482 q 510 547 510 510 q 498 593 510 578 q 451 608 486 608 q 359 588 407 608 q 278 547 311 568 l 194 0 l 63 0 l 213 865 l 101 886 z "},"ħ":{"ha":733,"x_min":63,"x_max":668,"o":"m 522 -7 q 454 11 474 -7 q 435 67 435 29 q 440 114 435 86 l 503 475 q 510 540 510 500 q 497 586 510 571 q 451 601 485 601 q 278 540 383 601 l 194 0 l 63 0 l 197 771 l 101 771 l 101 850 l 210 850 l 215 876 l 139 914 l 139 951 l 332 974 l 328 872 l 324 850 l 526 850 l 526 771 l 313 771 l 288 603 q 399 674 339 643 q 511 706 460 706 q 638 581 638 706 q 625 467 638 546 l 565 101 l 668 101 l 668 38 q 642 23 663 33 q 590 3 622 13 q 522 -7 557 -7 z "},"ĥ":{"ha":733,"x_min":63,"x_max":668,"o":"m 63 0 m 101 886 l 101 947 l 326 974 l 326 865 l 288 610 q 399 681 339 650 q 511 713 460 713 q 638 589 638 713 q 625 474 638 557 l 565 101 l 668 101 l 668 38 q 642 23 663 33 q 590 3 622 13 q 522 -7 557 -7 q 454 11 474 -7 q 435 67 435 29 q 440 114 435 86 l 503 482 q 510 547 510 510 q 498 593 510 578 q 451 608 486 608 q 359 588 407 608 q 278 547 311 568 l 194 0 l 63 0 l 213 865 l 101 886 m 299 1096 l 140 996 l 99 1036 l 238 1169 q 265 1195 246 1176 q 297 1224 283 1214 q 317 1233 310 1233 q 338 1224 328 1233 q 358 1201 347 1214 q 372 1183 368 1188 l 482 1040 l 438 990 l 299 1096 z "},"ḥ":{"ha":733,"x_min":63,"x_max":668,"o":"m 63 0 m 101 886 l 101 947 l 326 974 l 326 865 l 288 610 q 399 681 339 650 q 511 713 460 713 q 638 589 638 713 q 625 474 638 557 l 565 101 l 668 101 l 668 38 q 642 23 663 33 q 590 3 622 13 q 522 -7 557 -7 q 454 11 474 -7 q 435 67 435 29 q 440 114 435 86 l 503 482 q 510 547 510 510 q 498 593 510 578 q 451 608 486 608 q 359 588 407 608 q 278 547 311 568 l 194 0 l 63 0 l 213 865 l 101 886 m 290 -242 q 233 -219 254 -242 q 211 -162 211 -197 q 235 -92 211 -124 q 303 -61 260 -61 q 360 -84 338 -61 q 383 -144 383 -107 q 359 -212 383 -183 q 290 -242 335 -242 z "},"i":{"ha":407,"x_min":74,"x_max":344,"o":"m 251 811 q 195 834 217 811 q 174 890 174 857 q 198 960 174 929 q 265 992 222 992 q 322 969 300 992 q 344 908 344 946 q 320 840 344 869 q 251 811 296 811 m 74 615 l 74 676 l 303 703 l 303 590 l 221 101 l 321 101 l 321 38 q 295 23 315 33 q 242 3 275 13 q 174 -7 210 -7 q 108 11 128 -7 q 89 67 89 29 q 94 114 89 89 l 182 592 l 74 615 z "},"ı":{"ha":406,"x_min":71,"x_max":318,"o":"m 71 615 l 71 676 l 300 703 l 300 590 l 217 101 l 318 101 l 318 38 q 292 23 313 33 q 238 3 271 13 q 169 -7 206 -7 q 105 12 125 -7 q 85 67 85 31 q 90 115 85 88 l 179 592 l 71 615 z "},"í":{"ha":406,"x_min":69,"x_max":371,"o":"m 107 821 l 304 1022 q 371 946 371 1004 q 282 857 371 908 l 146 774 l 107 821 m 169 -7 q 104 11 124 -7 q 85 67 85 29 q 90 115 85 88 l 178 592 l 69 615 l 69 676 l 299 703 l 299 590 l 217 101 l 317 101 l 317 38 q 291 23 311 33 q 238 3 271 13 q 169 -7 206 -7 z "},"ĭ":{"ha":406,"x_min":71,"x_max":485,"o":"m 71 0 m 71 615 l 71 676 l 300 703 l 300 590 l 217 101 l 318 101 l 318 38 q 292 23 313 33 q 238 3 271 13 q 169 -7 206 -7 q 105 12 125 -7 q 85 67 85 31 q 90 115 85 88 l 179 592 l 71 615 m 249 785 q 154 808 193 785 q 95 867 115 832 q 75 935 75 903 q 88 968 75 956 q 126 988 99 979 q 169 997 153 997 q 198 913 175 946 q 279 881 221 881 q 363 906 325 881 q 424 963 400 932 q 447 997 447 993 l 485 974 q 460 916 485 964 q 384 826 436 868 q 249 785 332 785 z "},"ǐ":{"ha":406,"x_min":71,"x_max":474,"o":"m 71 0 m 71 615 l 71 676 l 300 703 l 300 590 l 217 101 l 318 101 l 318 38 q 292 23 313 33 q 238 3 271 13 q 169 -7 206 -7 q 105 12 125 -7 q 85 67 85 31 q 90 115 85 88 l 179 592 l 71 615 m 139 1018 l 275 908 l 435 1014 l 474 971 l 336 842 q 284 792 301 807 q 256 776 267 776 q 236 785 246 776 q 216 807 226 793 q 200 828 206 821 l 90 969 l 139 1018 z "},"î":{"ha":406,"x_min":38,"x_max":401,"o":"m 228 883 l 78 786 l 38 828 l 165 956 q 217 1006 200 990 q 246 1021 235 1021 q 265 1013 256 1021 q 285 990 275 1004 q 301 969 296 976 l 401 831 l 357 782 l 228 883 m 169 -7 q 105 12 125 -7 q 85 67 85 31 q 90 115 85 88 l 179 592 l 71 615 l 71 676 l 300 703 l 300 590 l 217 101 l 318 101 l 318 38 q 292 23 313 33 q 238 3 271 13 q 169 -7 206 -7 z "},"ȉ":{"ha":406,"x_min":42,"x_max":432,"o":"m 42 0 m 71 615 l 71 676 l 300 703 l 300 590 l 217 101 l 318 101 l 318 38 q 292 23 313 33 q 238 3 271 13 q 169 -7 206 -7 q 105 12 125 -7 q 85 67 85 31 q 90 115 85 88 l 179 592 l 71 615 m 79 872 q 42 956 42 926 q 69 1006 42 985 q 149 1035 97 1028 l 210 806 l 154 772 l 79 872 m 301 872 q 272 922 281 903 q 263 956 263 940 q 288 1005 263 983 q 369 1035 314 1026 l 432 806 l 375 772 l 301 872 z "},"ï":{"ha":406,"x_min":32,"x_max":461,"o":"m 101 818 q 51 838 69 818 q 32 886 32 857 q 56 958 32 926 q 124 989 81 989 q 176 969 156 989 q 196 914 196 949 q 170 847 196 876 q 101 818 144 818 m 368 818 q 317 838 336 818 q 297 886 297 857 q 322 957 297 925 q 390 989 347 989 q 442 969 422 989 q 461 914 461 949 q 436 847 461 876 q 368 818 411 818 m 169 -7 q 105 12 125 -7 q 85 67 85 31 q 90 115 85 88 l 179 592 l 71 615 l 71 676 l 300 703 l 300 590 l 217 101 l 318 101 l 318 38 q 292 23 313 33 q 238 3 271 13 q 169 -7 206 -7 z "},"ị":{"ha":407,"x_min":53,"x_max":344,"o":"m 53 0 m 251 811 q 195 834 217 811 q 174 890 174 857 q 198 960 174 929 q 265 992 222 992 q 322 969 300 992 q 344 908 344 946 q 320 840 344 869 q 251 811 296 811 m 74 615 l 74 676 l 303 703 l 303 590 l 221 101 l 321 101 l 321 38 q 295 23 315 33 q 242 3 275 13 q 174 -7 210 -7 q 108 11 128 -7 q 89 67 89 29 q 94 114 89 89 l 182 592 l 74 615 m 132 -242 q 74 -219 96 -242 q 53 -162 53 -197 q 77 -92 53 -124 q 144 -61 101 -61 q 202 -84 179 -61 q 225 -144 225 -107 q 201 -212 225 -183 q 132 -242 176 -242 z "},"ì":{"ha":406,"x_min":71,"x_max":349,"o":"m 172 857 q 110 901 135 879 q 85 946 85 924 q 151 1022 85 1004 l 349 821 l 310 774 l 172 857 m 71 615 l 71 676 l 300 703 l 300 590 l 217 101 l 318 101 l 318 38 q 292 23 313 33 q 238 3 271 13 q 169 -7 206 -7 q 105 12 125 -7 q 85 67 85 31 q 90 115 85 88 l 179 592 l 71 615 z "},"ỉ":{"ha":406,"x_min":71,"x_max":435,"o":"m 71 0 m 71 615 l 71 676 l 300 703 l 300 590 l 217 101 l 318 101 l 318 38 q 292 23 313 33 q 238 3 271 13 q 169 -7 206 -7 q 105 12 125 -7 q 85 67 85 31 q 90 115 85 88 l 179 592 l 71 615 m 221 744 q 213 782 213 775 q 226 816 213 801 q 275 846 240 831 q 315 871 303 860 q 326 899 326 882 q 313 923 326 915 q 268 931 299 931 q 182 919 229 931 q 172 957 172 938 q 194 999 172 986 q 269 1011 215 1011 q 392 986 349 1011 q 435 911 435 961 q 410 849 435 874 q 339 803 386 825 q 303 782 311 790 q 296 753 296 774 l 221 744 z "},"ȋ":{"ha":406,"x_min":71,"x_max":485,"o":"m 71 0 m 71 615 l 71 676 l 300 703 l 300 590 l 217 101 l 318 101 l 318 38 q 292 23 313 33 q 238 3 271 13 q 169 -7 206 -7 q 105 12 125 -7 q 85 67 85 31 q 90 115 85 88 l 179 592 l 71 615 m 75 811 q 99 868 75 821 q 176 957 124 915 q 311 999 228 999 q 406 975 367 999 q 465 916 444 951 q 485 849 485 881 q 475 818 485 833 q 436 795 464 804 q 390 786 408 786 q 362 871 385 838 q 281 904 339 904 q 197 878 235 904 q 136 821 160 851 q 113 786 113 790 l 75 811 z "},"ĳ":{"ha":754,"x_min":74,"x_max":719,"o":"m 74 0 m 251 811 q 195 834 217 811 q 174 890 174 857 q 198 960 174 929 q 265 992 222 992 q 322 969 300 992 q 344 908 344 946 q 320 840 344 869 q 251 811 296 811 m 74 615 l 74 676 l 303 703 l 303 590 l 221 101 l 321 101 l 321 38 q 295 23 315 33 q 242 3 275 13 q 174 -7 210 -7 q 108 11 128 -7 q 89 67 89 29 q 94 114 89 89 l 182 592 l 74 615 m 626 803 q 570 826 592 803 q 549 882 549 849 q 572 953 549 922 q 640 983 596 983 q 697 960 675 983 q 719 900 719 938 q 695 832 719 861 q 626 803 671 803 m 301 -233 q 251 -221 267 -233 q 235 -176 235 -208 q 244 -132 235 -146 q 253 -118 253 -118 l 354 -118 q 404 -113 382 -118 q 431 -103 426 -108 q 478 21 465 -56 l 567 597 l 460 621 l 460 683 l 688 710 l 688 599 l 607 53 q 503 -158 588 -82 q 301 -233 418 -233 z "},"ī":{"ha":406,"x_min":33,"x_max":414,"o":"m 47 942 l 414 942 l 400 846 l 33 846 l 47 942 m 71 615 l 71 676 l 300 703 l 300 590 l 217 101 l 318 101 l 318 38 q 292 23 313 33 q 238 3 271 13 q 169 -7 206 -7 q 105 12 125 -7 q 85 67 85 31 q 90 115 85 88 l 179 592 l 71 615 z "},"į":{"ha":406,"x_min":71,"x_max":342,"o":"m 247 811 q 191 834 213 811 q 169 890 169 857 q 194 960 169 929 q 261 992 218 992 q 319 969 296 992 q 342 908 342 946 q 317 840 342 869 q 247 811 292 811 m 238 -172 q 314 -144 268 -172 l 340 -182 q 319 -201 340 -183 q 265 -235 297 -219 q 193 -250 232 -250 q 79 -160 79 -250 q 174 -8 79 -72 l 172 -8 q 105 10 125 -8 q 85 67 85 29 q 90 114 85 89 l 179 592 l 71 615 l 71 676 l 300 703 l 300 590 l 217 101 l 318 101 l 318 38 q 306 29 317 36 q 276 15 294 22 q 213 -37 243 -4 q 183 -118 183 -69 q 238 -172 183 -172 z "},"ĩ":{"ha":406,"x_min":53,"x_max":510,"o":"m 53 0 m 71 615 l 71 676 l 300 703 l 300 590 l 217 101 l 318 101 l 318 38 q 292 23 313 33 q 238 3 271 13 q 169 -7 206 -7 q 105 12 125 -7 q 85 67 85 31 q 90 115 85 88 l 179 592 l 71 615 m 376 818 q 283 842 346 818 l 183 875 l 83 826 l 53 858 l 107 924 q 144 964 126 951 q 185 976 163 976 q 225 969 201 976 q 272 956 249 963 l 379 919 l 481 969 l 510 938 l 456 874 q 415 833 433 847 q 376 818 396 818 z "},"j":{"ha":381,"x_min":-139,"x_max":346,"o":"m 253 803 q 197 826 218 803 q 175 882 175 849 q 199 953 175 922 q 267 983 222 983 q 324 960 301 983 q 346 900 346 938 q 322 832 346 861 q 253 803 297 803 m -72 -233 q -123 -221 -107 -233 q -139 -176 -139 -208 q -130 -132 -139 -146 q -121 -118 -121 -118 l -19 -118 q 31 -113 8 -118 q 57 -103 53 -108 q 104 21 92 -56 l 193 597 l 86 621 l 86 683 l 314 710 l 314 599 l 233 53 q 129 -158 214 -82 q -72 -233 44 -233 z "},"ȷ":{"ha":381,"x_min":-139,"x_max":314,"o":"m -19 -118 q 31 -113 8 -118 q 57 -103 53 -108 q 104 21 92 -56 l 193 597 l 86 621 l 86 683 l 314 710 l 314 599 l 233 53 q 129 -158 214 -82 q -72 -233 44 -233 q -123 -221 -107 -233 q -139 -176 -139 -208 q -130 -132 -139 -146 q -121 -118 -121 -118 l -19 -118 z "},"ĵ":{"ha":381,"x_min":-139,"x_max":460,"o":"m 0 0 m -19 -118 q 31 -113 8 -118 q 57 -103 53 -108 q 104 21 92 -56 l 193 597 l 86 621 l 86 683 l 314 710 l 314 599 l 233 53 q 129 -158 214 -82 q -72 -233 44 -233 q -123 -221 -107 -233 q -139 -176 -139 -208 q -130 -132 -139 -146 q -121 -118 -121 -118 l -19 -118 m 276 882 l 118 782 l 76 822 l 215 956 q 242 981 224 963 q 274 1010 261 1000 q 294 1019 288 1019 q 315 1010 306 1019 q 335 987 325 1000 q 350 969 346 974 l 460 826 l 415 776 l 276 882 z "},"k":{"ha":667,"x_min":53,"x_max":636,"o":"m 92 886 l 92 947 l 317 974 l 317 865 l 278 613 q 496 713 413 713 q 600 677 564 713 q 636 581 636 642 q 603 468 636 519 q 524 381 569 417 q 415 304 479 346 l 511 101 l 632 101 l 632 38 q 615 25 632 36 q 567 4 597 14 q 499 -6 538 -6 q 433 9 456 -6 q 394 58 410 24 l 300 275 l 300 313 q 449 432 390 369 q 507 549 507 494 q 440 608 507 608 q 268 549 371 608 l 183 0 l 53 0 l 203 865 l 92 886 z "},"ķ":{"ha":663,"x_min":56,"x_max":639,"o":"m 93 886 l 93 947 l 319 974 l 319 865 l 281 613 q 499 713 415 713 q 603 677 567 713 q 639 581 639 642 q 605 468 639 519 q 526 381 571 417 q 417 304 482 346 l 514 101 l 635 101 l 635 38 q 617 25 635 36 q 570 4 600 14 q 501 -6 540 -6 q 435 9 458 -6 q 397 58 413 24 l 301 275 l 301 313 q 450 431 392 368 q 508 549 508 494 q 443 608 508 608 q 269 549 378 608 l 186 0 l 56 0 l 204 865 l 93 886 m 222 -257 q 239 -239 226 -253 q 263 -202 251 -225 q 274 -154 274 -179 q 242 -78 274 -110 q 308 -42 267 -42 q 363 -62 343 -42 q 383 -124 383 -83 q 335 -226 383 -183 q 249 -285 286 -268 l 222 -257 z "},"ĸ":{"ha":686,"x_min":72,"x_max":656,"o":"m 531 101 l 651 101 l 651 38 q 634 25 651 36 q 587 4 617 14 q 518 -6 557 -6 q 452 9 475 -6 q 414 58 429 24 l 319 275 l 319 313 q 467 433 408 369 q 526 550 526 496 q 509 594 526 579 q 460 608 492 608 q 373 588 418 608 q 293 544 328 568 l 203 0 l 72 0 l 181 592 l 74 615 l 74 676 l 303 703 l 303 610 q 524 713 432 713 q 621 677 586 713 q 656 579 656 642 q 594 431 656 493 q 435 304 533 368 l 531 101 z "},"l":{"ha":383,"x_min":78,"x_max":329,"o":"m 104 888 l 104 947 l 329 974 l 329 865 l 208 100 l 310 100 l 310 36 q 285 23 304 33 q 235 3 267 13 q 169 -7 204 -7 q 99 11 119 -7 q 78 67 78 29 q 83 114 78 86 l 215 865 l 104 888 z "},"ĺ":{"ha":379,"x_min":74,"x_max":413,"o":"m 96 1031 l 371 1179 q 401 1149 389 1168 q 413 1110 413 1129 q 398 1066 413 1079 q 343 1040 383 1053 l 119 975 l 96 1031 m 165 -7 q 94 11 115 -7 q 74 67 74 29 q 79 114 74 86 l 211 865 l 100 888 l 100 947 l 325 979 l 325 865 l 206 100 l 306 100 l 306 36 q 281 23 300 33 q 231 3 263 13 q 165 -7 200 -7 z "},"ľ":{"ha":379,"x_min":74,"x_max":506,"o":"m 360 799 q 371 817 363 803 q 388 858 379 832 q 396 915 396 885 q 378 978 396 951 q 442 1014 403 1014 q 490 996 474 1014 q 506 947 506 978 q 481 861 506 899 q 428 801 457 824 q 385 772 400 779 l 360 799 m 100 888 l 100 947 l 325 974 l 325 865 l 206 100 l 306 100 l 306 36 q 281 23 300 33 q 231 3 263 13 q 165 -7 200 -7 q 94 11 115 -7 q 74 67 74 29 q 79 114 74 86 l 211 865 l 100 888 z "},"ļ":{"ha":379,"x_min":53,"x_max":321,"o":"m 96 888 l 96 947 l 321 974 l 321 865 l 200 100 l 301 100 l 301 36 q 277 23 296 33 q 227 3 258 13 q 161 -7 196 -7 q 90 11 111 -7 q 69 67 69 29 q 75 114 69 86 l 207 865 l 96 888 m 53 -257 q 69 -239 57 -253 q 92 -202 81 -225 q 103 -154 103 -179 q 72 -78 103 -108 q 98 -53 81 -64 q 139 -42 115 -42 q 194 -62 174 -42 q 214 -124 214 -83 q 165 -226 214 -183 q 79 -285 117 -268 l 53 -257 z "},"ŀ":{"ha":383,"x_min":78,"x_max":486,"o":"m 78 0 m 104 888 l 104 947 l 329 974 l 329 865 l 208 100 l 310 100 l 310 36 q 285 23 304 33 q 235 3 267 13 q 169 -7 204 -7 q 99 11 119 -7 q 78 67 78 29 q 83 114 78 86 l 215 865 l 104 888 m 385 417 q 333 437 353 417 q 313 490 313 457 q 340 567 313 533 q 411 600 367 600 q 465 579 444 600 q 486 526 486 558 q 458 449 486 482 q 385 417 431 417 z "},"ǉ":{"ha":764,"x_min":78,"x_max":729,"o":"m 78 0 m 104 888 l 104 947 l 329 974 l 329 865 l 208 100 l 310 100 l 310 36 q 285 23 304 33 q 235 3 267 13 q 169 -7 204 -7 q 99 11 119 -7 q 78 67 78 29 q 83 114 78 86 l 215 865 l 104 888 m 636 803 q 580 826 601 803 q 558 882 558 849 q 582 953 558 922 q 650 983 606 983 q 707 960 685 983 q 729 900 729 938 q 705 832 729 861 q 636 803 681 803 m 311 -233 q 260 -221 276 -233 q 244 -176 244 -208 q 253 -132 244 -146 q 263 -118 263 -118 l 364 -118 q 414 -113 392 -118 q 440 -103 436 -108 q 488 21 475 -56 l 576 597 l 469 621 l 469 683 l 697 710 l 697 599 l 617 53 q 513 -158 597 -82 q 311 -233 428 -233 z "},"ł":{"ha":376,"x_min":-8,"x_max":403,"o":"m -8 338 l -8 415 l 142 475 l 211 865 l 100 888 l 100 947 l 325 974 l 325 865 l 272 526 l 403 579 l 403 497 l 258 440 l 206 100 l 306 100 l 306 36 q 281 23 300 33 q 231 3 263 13 q 165 -7 200 -7 q 94 11 115 -7 q 74 67 74 29 q 79 114 74 86 l 126 389 l -8 338 z "},"m":{"ha":1099,"x_min":74,"x_max":1031,"o":"m 78 615 l 78 676 l 307 703 l 307 608 q 532 713 443 713 q 653 606 650 713 q 767 678 704 644 q 886 713 831 713 q 978 682 950 713 q 1007 604 1007 651 q 993 492 1007 585 l 929 101 l 1031 101 l 1031 38 q 1006 23 1025 33 q 955 3 986 13 q 889 -7 924 -7 q 817 11 838 -7 q 796 67 796 29 q 801 114 796 86 l 867 474 q 875 554 875 518 q 863 592 875 576 q 819 608 850 608 q 731 588 779 608 q 649 546 683 568 l 642 492 l 563 0 l 431 0 l 514 474 q 522 554 522 518 q 468 608 522 608 q 351 578 404 608 q 296 546 299 547 l 211 0 l 74 0 l 185 592 l 78 615 z "},"n":{"ha":750,"x_min":72,"x_max":681,"o":"m 74 615 l 74 676 l 303 703 l 303 608 q 414 680 353 647 q 528 713 475 713 q 656 589 656 713 q 649 521 656 560 q 642 474 643 482 l 579 101 l 681 101 l 681 38 q 656 23 675 33 q 604 3 636 13 q 538 -7 572 -7 q 469 11 489 -7 q 449 67 449 29 q 454 114 449 86 l 521 482 q 528 550 528 524 q 515 594 528 579 q 467 608 501 608 q 372 588 421 608 q 293 546 324 567 l 207 0 l 72 0 l 181 592 l 74 615 z "},"ń":{"ha":750,"x_min":74,"x_max":682,"o":"m 353 821 l 550 1022 q 617 946 617 1004 q 529 857 617 908 l 392 774 l 353 821 m 539 -7 q 470 11 490 -7 q 450 67 450 29 q 456 114 450 86 l 522 482 q 529 550 529 524 q 516 594 529 579 q 468 608 503 608 q 374 588 422 608 q 294 546 325 567 l 208 0 l 74 0 l 182 592 l 74 615 l 74 676 l 304 703 l 304 608 q 415 680 354 647 q 529 713 476 713 q 657 589 657 713 q 651 521 657 560 q 643 474 644 482 l 581 101 l 682 101 l 682 38 q 657 23 676 33 q 606 3 638 13 q 539 -7 574 -7 z "},"ŉ":{"ha":833,"x_min":72,"x_max":681,"o":"m 72 0 m 85 799 q 96 817 88 803 q 113 858 104 832 q 121 915 121 885 q 103 978 121 951 q 167 1014 128 1014 q 215 996 199 1014 q 231 947 231 978 q 206 861 231 899 q 153 801 182 824 q 110 772 125 779 l 85 799 m 74 615 l 74 676 l 303 703 l 303 608 q 414 680 353 647 q 528 713 475 713 q 656 589 656 713 q 649 521 656 560 q 642 474 643 482 l 579 101 l 681 101 l 681 38 q 656 23 675 33 q 604 3 636 13 q 538 -7 572 -7 q 469 11 489 -7 q 449 67 449 29 q 454 114 449 86 l 521 482 q 528 550 528 524 q 515 594 528 579 q 467 608 501 608 q 372 588 421 608 q 293 546 324 567 l 207 0 l 72 0 l 181 592 l 74 615 z "},"ň":{"ha":750,"x_min":74,"x_max":682,"o":"m 314 1018 l 449 908 l 610 1014 l 647 971 l 510 842 q 485 817 504 836 q 452 787 465 797 q 431 776 439 776 q 411 785 421 776 q 391 807 401 793 q 375 828 381 821 l 265 969 l 314 1018 m 74 615 l 74 676 l 304 703 l 304 608 q 415 680 354 647 q 529 713 476 713 q 657 589 657 713 q 651 521 657 560 q 643 474 644 482 l 581 101 l 682 101 l 682 38 q 657 23 676 33 q 606 3 638 13 q 539 -7 574 -7 q 470 11 490 -7 q 450 67 450 29 q 456 114 450 86 l 522 482 q 529 550 529 524 q 516 594 529 579 q 468 608 503 608 q 374 588 422 608 q 294 546 325 567 l 208 0 l 74 0 l 182 592 l 74 615 z "},"ņ":{"ha":750,"x_min":74,"x_max":682,"o":"m 74 615 l 74 676 l 304 703 l 304 608 q 415 680 354 647 q 529 713 476 713 q 657 589 657 713 q 651 521 657 560 q 643 474 644 482 l 581 101 l 682 101 l 682 38 q 657 23 676 33 q 606 3 638 13 q 539 -7 574 -7 q 470 11 490 -7 q 450 67 450 29 q 456 114 450 86 l 522 482 q 529 550 529 524 q 516 594 529 579 q 468 608 503 608 q 374 588 422 608 q 294 546 325 567 l 208 0 l 74 0 l 182 592 l 74 615 m 263 -257 q 278 -239 267 -253 q 301 -202 290 -225 q 313 -154 313 -179 q 282 -78 313 -108 q 308 -53 290 -64 q 349 -42 325 -42 q 403 -62 383 -42 q 424 -124 424 -83 q 375 -226 424 -183 q 289 -285 326 -268 l 263 -257 z "},"ṅ":{"ha":750,"x_min":72,"x_max":681,"o":"m 72 0 m 74 615 l 74 676 l 303 703 l 303 608 q 414 680 353 647 q 528 713 475 713 q 656 589 656 713 q 649 521 656 560 q 642 474 643 482 l 579 101 l 681 101 l 681 38 q 656 23 675 33 q 604 3 636 13 q 538 -7 572 -7 q 469 11 489 -7 q 449 67 449 29 q 454 114 449 86 l 521 482 q 528 550 528 524 q 515 594 528 579 q 467 608 501 608 q 372 588 421 608 q 293 546 324 567 l 207 0 l 72 0 l 181 592 l 74 615 m 449 811 q 391 833 413 811 q 369 890 369 856 q 394 960 369 929 q 461 992 418 992 q 519 969 496 992 q 542 908 542 946 q 517 840 542 869 q 449 811 493 811 z "},"ŋ":{"ha":728,"x_min":72,"x_max":656,"o":"m 274 -233 q 222 -220 238 -233 q 207 -176 207 -207 q 213 -144 207 -160 q 225 -118 218 -128 l 326 -118 q 374 -114 353 -118 q 403 -103 396 -110 q 431 -52 418 -85 q 450 21 444 -19 l 521 485 q 528 550 528 521 q 513 594 528 581 q 467 608 499 608 q 382 590 431 608 q 293 546 333 571 l 207 0 l 72 0 l 181 592 l 74 615 l 74 676 l 303 703 l 303 608 q 424 685 364 657 q 528 713 485 713 q 623 681 590 713 q 656 589 656 650 q 642 474 656 563 l 579 53 q 477 -156 561 -78 q 274 -233 393 -233 z "},"ɲ":{"ha":765,"x_min":-139,"x_max":696,"o":"m 696 101 l 696 38 q 670 23 690 33 q 618 3 650 13 q 551 -7 586 -7 q 483 11 503 -7 q 464 67 464 29 q 468 114 464 93 l 535 482 q 543 550 543 515 q 530 594 543 579 q 482 608 517 608 q 307 546 407 608 l 233 53 q 129 -158 214 -82 q -72 -233 44 -233 q -123 -221 -107 -233 q -139 -176 -139 -208 q -130 -133 -139 -147 q -121 -118 -121 -119 l -19 -118 q 31 -113 8 -118 q 57 -103 53 -108 q 104 21 92 -56 l 196 592 l 88 615 l 88 676 l 317 703 l 317 608 q 428 680 367 647 q 543 713 489 713 q 640 678 610 713 q 669 589 669 644 q 657 474 669 557 l 593 101 l 696 101 z "},"ǌ":{"ha":1131,"x_min":72,"x_max":1096,"o":"m 72 0 m 74 615 l 74 676 l 303 703 l 303 608 q 414 680 353 647 q 528 713 475 713 q 656 589 656 713 q 649 521 656 560 q 642 474 643 482 l 579 101 l 681 101 l 681 38 q 656 23 675 33 q 604 3 636 13 q 538 -7 572 -7 q 469 11 489 -7 q 449 67 449 29 q 454 114 449 86 l 521 482 q 528 550 528 524 q 515 594 528 579 q 467 608 501 608 q 372 588 421 608 q 293 546 324 567 l 207 0 l 72 0 l 181 592 l 74 615 m 1003 803 q 947 826 968 803 q 925 882 925 849 q 949 953 925 922 q 1017 983 972 983 q 1074 960 1051 983 q 1096 900 1096 938 q 1072 832 1096 861 q 1003 803 1047 803 m 678 -233 q 627 -221 643 -233 q 611 -176 611 -208 q 620 -132 611 -146 q 629 -118 629 -118 l 731 -118 q 781 -113 758 -118 q 807 -103 803 -108 q 854 21 842 -56 l 943 597 l 836 621 l 836 683 l 1064 710 l 1064 599 l 983 53 q 879 -158 964 -82 q 678 -233 794 -233 z "},"ñ":{"ha":751,"x_min":74,"x_max":682,"o":"m 536 822 q 443 844 501 822 l 343 879 l 243 831 l 213 861 l 267 928 q 305 967 288 954 q 344 981 322 981 q 432 960 369 981 l 539 924 l 640 972 l 669 942 l 615 878 q 574 837 593 851 q 536 822 556 822 m 539 -7 q 469 11 489 -7 q 450 67 450 29 q 454 114 450 72 l 522 482 q 529 550 529 524 q 516 594 529 579 q 468 608 503 608 q 293 546 393 608 l 208 0 l 74 0 l 182 592 l 74 615 l 74 676 l 303 703 l 303 608 q 529 713 438 713 q 626 678 596 713 q 656 589 656 644 q 643 474 656 557 l 579 101 l 682 101 l 682 38 q 656 23 676 33 q 604 3 636 13 q 539 -7 572 -7 z "},"o":{"ha":644,"x_min":50,"x_max":596,"o":"m 257 -14 q 103 47 156 -14 q 50 222 50 107 q 92 474 50 363 q 210 649 133 585 q 390 713 288 713 q 596 472 596 713 q 556 226 596 336 q 439 51 515 115 q 257 -14 363 -14 m 307 74 q 392 92 374 74 q 421 160 404 110 q 449 281 438 211 q 461 426 461 351 q 450 549 461 507 q 413 607 439 590 q 340 624 388 624 q 293 618 317 624 q 258 603 269 613 q 229 541 247 590 q 198 421 211 492 q 185 274 185 350 q 195 152 185 194 q 232 92 206 110 q 307 74 258 74 z "},"ó":{"ha":644,"x_min":50,"x_max":596,"o":"m 268 821 l 465 1022 q 532 946 532 1004 q 443 857 532 908 l 306 774 l 268 821 m 257 -14 q 103 47 156 -14 q 50 222 50 107 q 92 474 50 363 q 210 649 133 585 q 390 713 288 713 q 596 472 596 713 q 556 226 596 336 q 439 51 515 115 q 257 -14 363 -14 m 307 74 q 392 92 374 74 q 421 160 404 110 q 449 281 438 211 q 461 426 461 351 q 450 549 461 507 q 413 607 439 590 q 340 624 388 624 q 293 618 317 624 q 258 603 269 613 q 229 541 247 590 q 198 421 211 492 q 185 274 185 350 q 195 152 185 194 q 232 92 206 110 q 307 74 258 74 z "},"ŏ":{"ha":644,"x_min":50,"x_max":621,"o":"m 50 0 m 257 -14 q 103 47 156 -14 q 50 222 50 107 q 92 474 50 363 q 210 649 133 585 q 390 713 288 713 q 596 472 596 713 q 556 226 596 336 q 439 51 515 115 q 257 -14 363 -14 m 307 74 q 392 92 374 74 q 421 160 404 110 q 449 281 438 211 q 461 426 461 351 q 450 549 461 507 q 413 607 439 590 q 340 624 388 624 q 293 618 317 624 q 258 603 269 613 q 229 541 247 590 q 198 421 211 492 q 185 274 185 350 q 195 152 185 194 q 232 92 206 110 q 307 74 258 74 m 385 785 q 290 808 329 785 q 231 867 251 832 q 211 935 211 903 q 224 968 211 956 q 262 988 235 979 q 306 997 289 997 q 334 913 311 946 q 415 881 357 881 q 499 906 461 881 q 560 963 536 932 q 583 997 583 993 l 621 974 q 597 916 621 964 q 520 826 572 868 q 385 785 468 785 z "},"ǒ":{"ha":644,"x_min":50,"x_max":610,"o":"m 50 0 m 257 -14 q 103 47 156 -14 q 50 222 50 107 q 92 474 50 363 q 210 649 133 585 q 390 713 288 713 q 596 472 596 713 q 556 226 596 336 q 439 51 515 115 q 257 -14 363 -14 m 307 74 q 392 92 374 74 q 421 160 404 110 q 449 281 438 211 q 461 426 461 351 q 450 549 461 507 q 413 607 439 590 q 340 624 388 624 q 293 618 317 624 q 258 603 269 613 q 229 541 247 590 q 198 421 211 492 q 185 274 185 350 q 195 152 185 194 q 232 92 206 110 q 307 74 258 74 m 275 1018 l 411 908 l 571 1014 l 610 971 l 472 842 q 420 792 438 807 q 392 776 403 776 q 372 785 382 776 q 352 807 363 793 q 336 828 342 821 l 226 969 l 275 1018 z "},"ô":{"ha":644,"x_min":50,"x_max":596,"o":"m 393 882 l 235 782 l 193 822 l 332 956 q 359 981 340 963 q 391 1010 378 1000 q 411 1019 404 1019 q 432 1010 422 1019 q 452 987 442 1000 q 467 969 463 974 l 576 826 l 532 776 l 393 882 m 257 -14 q 103 47 156 -14 q 50 222 50 107 q 92 474 50 363 q 210 649 133 585 q 390 713 288 713 q 596 472 596 713 q 556 226 596 336 q 439 51 515 115 q 257 -14 363 -14 m 307 74 q 392 92 374 74 q 421 160 404 110 q 449 281 438 211 q 461 426 461 351 q 450 549 461 507 q 413 607 439 590 q 340 624 388 624 q 293 618 317 624 q 258 603 269 613 q 229 541 247 590 q 198 421 211 492 q 185 274 185 350 q 195 152 185 194 q 232 92 206 110 q 307 74 258 74 z "},"ố":{"ha":644,"x_min":50,"x_max":731,"o":"m 50 0 m 257 -14 q 103 47 156 -14 q 50 222 50 107 q 92 474 50 363 q 210 649 133 585 q 390 713 288 713 q 596 472 596 713 q 556 226 596 336 q 439 51 515 115 q 257 -14 363 -14 m 307 74 q 392 92 374 74 q 421 160 404 110 q 449 281 438 211 q 461 426 461 351 q 450 549 461 507 q 413 607 439 590 q 340 624 388 624 q 293 618 317 624 q 258 603 269 613 q 229 541 247 590 q 198 421 211 492 q 185 274 185 350 q 195 152 185 194 q 232 92 206 110 q 307 74 258 74 m 364 882 l 206 782 l 164 822 l 303 956 q 330 981 311 963 q 362 1010 349 1000 q 382 1019 375 1019 q 403 1010 393 1019 q 423 987 413 1000 q 438 969 433 974 l 547 826 l 503 776 l 364 882 m 468 1001 l 665 1203 q 731 1126 731 1185 q 706 1081 731 1103 q 643 1038 682 1060 l 506 954 l 468 1001 z "},"ộ":{"ha":644,"x_min":50,"x_max":596,"o":"m 50 0 m 257 -14 q 103 47 156 -14 q 50 222 50 107 q 92 474 50 363 q 210 649 133 585 q 390 713 288 713 q 596 472 596 713 q 556 226 596 336 q 439 51 515 115 q 257 -14 363 -14 m 307 74 q 392 92 374 74 q 421 160 404 110 q 449 281 438 211 q 461 426 461 351 q 450 549 461 507 q 413 607 439 590 q 340 624 388 624 q 293 618 317 624 q 258 603 269 613 q 229 541 247 590 q 198 421 211 492 q 185 274 185 350 q 195 152 185 194 q 232 92 206 110 q 307 74 258 74 m 246 -242 q 188 -219 210 -242 q 167 -162 167 -197 q 191 -92 167 -124 q 258 -61 215 -61 q 316 -84 293 -61 q 339 -144 339 -107 q 315 -212 339 -183 q 246 -242 290 -242 m 413 882 l 254 782 l 213 822 l 351 956 q 378 981 360 963 q 410 1010 397 1000 q 431 1019 424 1019 q 451 1010 442 1019 q 472 987 461 1000 q 486 969 482 974 l 596 826 l 551 776 l 413 882 z "},"ồ":{"ha":644,"x_min":50,"x_max":660,"o":"m 50 0 m 257 -14 q 103 47 156 -14 q 50 222 50 107 q 92 474 50 363 q 210 649 133 585 q 390 713 288 713 q 596 472 596 713 q 556 226 596 336 q 439 51 515 115 q 257 -14 363 -14 m 307 74 q 392 92 374 74 q 421 160 404 110 q 449 281 438 211 q 461 426 461 351 q 450 549 461 507 q 413 607 439 590 q 340 624 388 624 q 293 618 317 624 q 258 603 269 613 q 229 541 247 590 q 198 421 211 492 q 185 274 185 350 q 195 152 185 194 q 232 92 206 110 q 307 74 258 74 m 403 882 l 244 782 l 203 822 l 342 956 q 369 981 350 963 q 401 1010 388 1000 q 421 1019 414 1019 q 442 1010 432 1019 q 462 987 451 1000 q 476 969 472 974 l 586 826 l 542 776 l 403 882 m 485 1038 q 420 1081 444 1060 q 396 1126 396 1103 q 463 1203 396 1185 l 660 1001 l 621 954 l 485 1038 z "}}}
